<svg xmlns="http://www.w3.org/2000/svg" xml:space="preserve" width="1050" height="600" data-name="Flag of Iran" viewBox="0 0 1050 600"><path d="M0 0h1050v600H0z" style="fill:#319b42;fill-opacity:1;stroke-width:1"/><path d="M0 200h1050v400H0z" style="fill:#fff;stroke-width:1"/><path d="M0 400h1050v200H0z" style="fill:#da291c;fill-opacity:1;stroke-width:1"/><g fill="#ffbb26" stroke="#000" stroke-width="1.7" style="fill:none;fill-opacity:1;stroke:none;stroke-width:1.70249;stroke-dasharray:none"><g style="fill:none;fill-opacity:1;stroke:none;stroke-width:1.70249;stroke-dasharray:none"><path d="M29.11 219.033h222.055v-12.407H29.11Z" style="fill:#ffb81c;fill-opacity:1;stroke:#000;stroke-width:1.70249;stroke-dasharray:none;stroke-opacity:1" transform="matrix(1.0279 0 0 1.02792 380.953 173.977)"/><g fill="#ffbb26" stroke="#000" stroke-width="1.7" style="fill:none;fill-opacity:1;stroke:none;stroke-width:1.70249;stroke-dasharray:none"><path fill="#000" d="M33.925 206.625c.392 2.318.842 5.735 4.12 6.205-.841-.963-1.58-3.916-1.84-6.205zm6.724 0c.393 2.318.842 5.735 4.12 6.205-.841-.963-1.58-3.916-1.84-6.205zm6.724 0c.393 2.318.845 5.735 4.123 6.205-.842-.963-1.583-3.916-1.842-6.205zm6.727 0c.392 2.318.842 5.735 4.12 6.205-.842-.963-1.583-3.916-1.842-6.205zm6.724 0c.392 2.318.842 5.735 4.12 6.205-.842-.963-1.582-3.916-1.842-6.205zm6.724 0c.392 2.318.842 5.735 4.12 6.205-.842-.963-1.582-3.916-1.842-6.205zm6.724 0c.392 2.318.842 5.735 4.12 6.205-.841-.963-1.58-3.916-1.84-6.205zm6.724 0c.393 2.318.842 5.735 4.12 6.205-.841-.963-1.58-3.916-1.84-6.205zm6.724 0c.393 2.318.842 5.735 4.12 6.205-.841-.963-1.58-3.916-1.84-6.205zm6.724 0c.393 2.318.843 5.735 4.12 6.205-.841-.963-1.58-3.916-1.84-6.205zm6.727 0c.392 2.318.842 5.735 4.12 6.205-.842-.963-1.583-3.916-1.842-6.205zm6.724 0c.392 2.318.842 5.735 4.12 6.205-.842-.963-1.582-3.916-1.842-6.205zm6.724 0c.392 2.318.842 5.735 4.12 6.205-.842-.963-1.582-3.916-1.842-6.205zm6.724 0c.392 2.318.842 5.735 4.12 6.205-.842-.963-1.582-3.916-1.842-6.205zm6.724 0c.392 2.318.842 5.735 4.12 6.205-.841-.963-1.58-3.916-1.84-6.205zm6.724 0c.393 2.318.843 5.735 4.12 6.205-.841-.963-1.58-3.916-1.84-6.205zm6.725 0c.392 2.318.842 5.735 4.12 6.205-.842-.963-1.58-3.916-1.84-6.205zm6.724 0c.392 2.318.842 5.735 4.12 6.205-.842-.963-1.58-3.916-1.84-6.205zm6.726 0c.392 2.318.842 5.735 4.12 6.205-.842-.963-1.582-3.916-1.842-6.205zm6.724 0c.392 2.318.842 5.735 4.12 6.205-.842-.963-1.582-3.916-1.842-6.205zm6.724 0c.392 2.318.842 5.735 4.12 6.205-.841-.963-1.582-3.916-1.842-6.205zm6.724 0c.393 2.318.842 5.735 4.12 6.205-.841-.963-1.582-3.916-1.842-6.205zm6.724 0c.393 2.318.843 5.735 4.12 6.205-.841-.963-1.58-3.916-1.84-6.205zm6.725 0c.392 2.318.842 5.735 4.12 6.205-.842-.963-1.58-3.916-1.84-6.205zm6.724 0c.392 2.318.842 5.735 4.12 6.205-.842-.963-1.58-3.916-1.84-6.205zm6.724 0c.392 2.318.844 5.735 4.122 6.205-.842-.963-1.582-3.916-1.842-6.205zm6.726 0c.392 2.318.842 5.735 4.12 6.205-.842-.963-1.582-3.916-1.842-6.205zm6.724 0c.392 2.318.842 5.735 4.12 6.205-.841-.963-1.582-3.916-1.842-6.205zm6.724 0c.393 2.318.842 5.735 4.12 6.205-.841-.963-1.582-3.916-1.841-6.205zm6.724 0c.393 2.318.843 5.735 4.12 6.205-.841-.963-1.58-3.916-1.84-6.205zm6.725 0c.392 2.318.842 5.735 4.12 6.205-.842-.963-1.58-3.916-1.84-6.205zm6.724 0c.392 2.318.842 5.735 4.12 6.205-.842-.963-1.58-3.916-1.84-6.205z" style="fill:#000;fill-opacity:1;stroke:none;stroke-width:1.70249;stroke-dasharray:none" transform="matrix(1.0279 0 0 1.02792 380.953 173.977)"/></g></g><g style="fill:none;fill-opacity:1;stroke:none;stroke-width:1.70249;stroke-dasharray:none"><path d="m161.071 117.313 1.58-86.247-7.64-.03 1.472 86.277z" style="fill:#ffb81c;fill-opacity:1;stroke:#000;stroke-width:1.70249;stroke-dasharray:none;stroke-opacity:1" transform="matrix(1.0279 0 0 1.02792 380.953 173.977)"/><path d="m168.968 51.483-12.437 65.364 4.492.933 14.79-65.103z" style="fill:#ffb81c;fill-opacity:1;stroke:#000;stroke-width:1.70249;stroke-dasharray:none;stroke-opacity:1" transform="matrix(1.0279 0 0 1.02792 380.953 173.977)"/><path d="m160.88 118.228 35.842-78.464-6.995-3.074-33.054 79.709z" style="fill:#ffb81c;fill-opacity:1;stroke:#000;stroke-width:1.70249;stroke-dasharray:none;stroke-opacity:1" transform="matrix(1.0279 0 0 1.02792 380.953 173.977)"/><path d="m195.218 59.767-38.314 56.222 3.746 2.649 40.308-54.852Z" style="fill:#ffb81c;fill-opacity:1;stroke:#000;stroke-width:1.70249;stroke-dasharray:none;stroke-opacity:1" transform="matrix(1.0279 0 0 1.02792 380.953 173.977)"/><path d="m160.342 118.991 64.155-57.664-5.189-5.608-62.095 59.917z" style="fill:#ffb81c;fill-opacity:1;stroke:#000;stroke-width:1.70249;stroke-dasharray:none;stroke-opacity:1" transform="matrix(1.0279 0 0 1.02792 380.953 173.977)"/><path d="m214.98 79.173-57.393 36.18 2.381 3.921 58.613-34.113z" style="fill:#ffb81c;fill-opacity:1;stroke:#000;stroke-width:1.70249;stroke-dasharray:none;stroke-opacity:1" transform="matrix(1.0279 0 0 1.02792 380.953 173.977)"/><path d="m159.543 119.476 84.17-28.081-2.551-7.295-83.15 31.05z" style="fill:#ffb81c;fill-opacity:1;stroke:#000;stroke-width:1.70249;stroke-dasharray:none;stroke-opacity:1" transform="matrix(1.0279 0 0 1.02792 380.953 173.977)"/><path d="m230.236 104.024-71.768 11.016.62 4.547 72.284-8.492z" style="fill:#ffb81c;fill-opacity:1;stroke:#000;stroke-width:1.70249;stroke-dasharray:none;stroke-opacity:1" transform="matrix(1.0279 0 0 1.02792 380.953 173.977)"/><path d="m148.665 51.45-6.849 1.174 14.715 65.156 4.492-.933z" style="fill:#ffb81c;fill-opacity:1;stroke:#000;stroke-width:1.70249;stroke-dasharray:none;stroke-opacity:1" transform="matrix(1.0279 0 0 1.02792 380.953 173.977)"/><path d="m160.88 116.399-32.94-79.725-7.019 3.02 35.752 78.534z" style="fill:#ffb81c;fill-opacity:1;stroke:#000;stroke-width:1.70249;stroke-dasharray:none;stroke-opacity:1" transform="matrix(1.0279 0 0 1.02792 380.953 173.977)"/><path d="m122.382 59.677-5.676 4.109 40.198 54.852 3.746-2.649z" style="fill:#ffb81c;fill-opacity:1;stroke:#000;stroke-width:1.70249;stroke-dasharray:none;stroke-opacity:1" transform="matrix(1.0279 0 0 1.02792 380.953 173.977)"/><path d="m160.342 115.636-39.59-38.298-1.801 7.174 38.262 34.48z" style="fill:#ffb81c;fill-opacity:1;stroke:#000;stroke-width:1.70249;stroke-dasharray:none;stroke-opacity:1" transform="matrix(1.0279 0 0 1.02792 380.953 173.977)"/><path d="M158.732 84.466c-19.756 0-36.012 14.6-36.012 32.804s16.24 32.891 36.012 32.891c19.77 0 36.102-14.67 36.102-32.89s-16.346-32.805-36.102-32.805z" style="fill:#ffb81c;fill-opacity:1;stroke:#000;stroke-width:1.70249;stroke-dasharray:none;stroke-opacity:1" transform="matrix(1.0279 0 0 1.02792 380.953 173.977)"/></g><g style="fill:none;fill-opacity:1;stroke:none;stroke-width:1.70249;stroke-dasharray:none"><path d="m27.076 114.492-.015 29.515H40.9v-29.515c-.943-28.137 4.202-40.045 8.71-47.772 14.016-24.022 41.728-30.547 59.099-31.456-17.063-8.577-53.323-6.161-71.978 26.796-9.625 15.85-9.706 34.457-9.655 52.432z" style="fill:#ffb81c;fill-opacity:1;stroke:#000;stroke-width:1.70249;stroke-dasharray:none;stroke-opacity:1" transform="matrix(1.0279 0 0 1.02792 380.953 173.977)"/><g fill="#ffbb26" stroke="#000" stroke-width="1.7" style="fill:none;fill-opacity:1;stroke:none;stroke-width:1.70249;stroke-dasharray:none"><path fill="#000" d="M72.746 39.182c-20.674 5.441-32.304 24.756-35.93 37.453-2.503 8.767-4.097 17.92-3.769 37.857h1.99c-.302-12.393-.229-25.585 3.715-37.797 4.925-15.248 14.785-28.566 33.994-37.513" style="fill:#000;fill-opacity:1;stroke:none;stroke-width:1.70249;stroke-dasharray:none" transform="matrix(1.0279 0 0 1.02792 380.953 173.977)"/></g><path d="M14.669 111.524h9.216l10.103-2.86 9.842 2.86h9.217l4.356 2.968-4.356 2.968H43.83l-9.842 2.86-10.103-2.86H14.67l-4.356-2.968z" style="fill:#ffb81c;fill-opacity:1;stroke:#000;stroke-width:1.70249;stroke-dasharray:none;stroke-opacity:1" transform="matrix(1.0279 0 0 1.02792 380.953 173.977)"/></g><g style="fill:none;fill-opacity:1;stroke:none;stroke-width:1.70249;stroke-dasharray:none"><path d="M30.556 143.688c9.865 6.637 13.34 7.254 25.814 3.499 8.906 12.47 17.928 11.498 25.894 21.95l3.333-37.887s-22.585-2.045-33.28-5.247c-3.475-1.04-6.233-2.836-9.814-3.499-8.373-1.549-17.861-.56-17.861 4.318 0 1.666 1.066 3.218 4.42 3.625z" style="fill:#ffb81c;fill-opacity:1;stroke:#000;stroke-width:1.70249;stroke-dasharray:none;stroke-opacity:1" transform="matrix(1.0279 0 0 1.02792 380.953 173.977)"/><path d="M39.943 140.414c1.216.475 2.481 1.89 2.347 3.186-.147 1.412-1.854 2.121-3.2 2.809-2.766 1.414-8.99 1.644-12.374-.389-.904-.543-1.28-1.535-1.28-2.522 0-1.029.854-2.5.854-2.5" style="fill:#ffb81c;fill-opacity:1;stroke:#000;stroke-width:1.70249;stroke-dasharray:none;stroke-opacity:1" transform="matrix(1.0279 0 0 1.02792 380.953 173.977)"/><path d="M40.796 135.047c1.216.475 2.277 1.75 2.128 3.084s-1.639 2.1-2.981 2.628c-3.948 1.553-10.056 2.033-13.44 0-.904-.543-1.28-1.459-1.28-2.445 0-1.2 1.28-3.073 1.28-3.073" style="fill:#ffb81c;fill-opacity:1;stroke:#000;stroke-width:1.70249;stroke-dasharray:none;stroke-opacity:1" transform="matrix(1.0279 0 0 1.02792 380.953 173.977)"/><path d="M24.642 126.822c0 1.666 1.066 3.218 4.42 3.625 5.666.687 9.195-1.86 11.734-.893.925.352 2.164 1.093 2.17 2.784.005 1.271-1.69 2.224-3.023 2.776-3.638 1.51-10.056 2.033-13.44 0-.904-.543-1.28-1.414-1.28-2.4 0-1.335.784-2.069 1.323-3.003m141.294 45.113c-4.295 7.16 1.665 13.559-1.574 19.035-10.451-2.37-20.852-3.425-27.474 6.244-3.249 4.745.693 9.284 6.342 6.916 5.051 4.645 11.002 1.671 18.291-.87 2.86-.997 7.631 1.873 11.402.416 4.296-1.66 7.207-6.552 9.931-14.402l4.234 1.776c.045-3.356-1.448-5.915-3.399-8.237l5.052 1.7c.032-3.34-1.677-5.71-3.265-7.625l4.864 1.797c-.974-4.37-.033-8.065-.465-9.53-.934-3.172-1.422-1.597-2.654-7.496-14.64-6.414-11.484-21.526-8.796-27.924l-27.874 19.222c-5.632 3.667 2.103 16.852 15.385 18.978z" style="fill:#ffb81c;fill-opacity:1;stroke:#000;stroke-width:1.70249;stroke-dasharray:none;stroke-opacity:1" transform="matrix(1.0279 0 0 1.02792 380.953 173.977)"/><path d="M262.73 46.342c-2.506-.042-5.043 1.107-6.636 4.377-4.372-5.945-12.724-3.056-14.293 2.603 9.939-.365 12.21 2.622 12.141 7.197-.049 3.205-2.63 5.394-5.783 5.658-1.903.16-4.125-.579-6.268-2.77-3.35-3.426-6.227-6.884-9.356-9.761-17.136-15.756-37.86 7.435-25.414 24.239 5.604 7.566 21.518 13.544 28 17.793 8.315 5.45 10.981 10.361 10.256 16.715-.727 6.376-5.065 10.648-15.168 10.601-7.483-.034-18.297-6.774-27.387-8.11-17.018-2.499-28.061 3.243-40.236 3.305-23.253.12-41.537-9.097-41.537-9.097l-33.957 39.314c-6.984 4.94-9.682 19.557 0 25.834-7.84 4.697-7.228 12.138-12.842 19.62-11.346-2.621-20.86-3.022-27.467 6.244-3.128 4.825.683 9.284 6.332 6.916 5.052 4.645 10.992 1.67 18.281-.872 2.901-1.011 7.795 1.916 11.415.416 4.886-2.025 11.614-12.905 11.949-13.59l2.765 3.493c1.862-2.897 1.951-5.795 1.516-8.692l3.479 3.737c1.839-2.888 1.697-5.775 1.248-8.123l3.298 3.736s.546-1.626 1.873-3.898c1.44-2.064 3.003-6.481 2.905-8.938 1.904 1.659 3.351 2.522 5.797 2.193-.105-3.215.601-4.52 1.515-5.93 2.521-.018 5.83-.21 9.656-.683 12.834-1.585 35.666-5.143 49.868-16.953 8.883-7.387 15.676-4.659 18.398 1.262 3.413 7.42 9.913 17.956 23.24 20.63-4.295 7.16 1.633 13.575-1.605 19.051-11.823-2.65-21.468-2.374-27.465 6.245-3.285 4.72.681 9.284 6.33 6.916 5.052 4.645 10.992 1.67 18.281-.872 2.877-1.002 7.65 1.87 11.414.416 4.297-1.66 7.265-6.521 9.989-14.37l4.191 1.704c.046-3.356-1.438-5.883-3.389-8.205l5.082 1.707c.032-3.338-1.865-5.952-3.298-7.636l4.904 1.787c-1.044-4.156-.095-8.009-.535-9.504-.925-3.137-1.547-1.864-2.586-7.475-18.61-8.823-3.922-22.149-17.746-33.998 16.246.845 26.737-5.283 27.845-17.868.735-10.434-5.12-17.069-13.284-21.88-9.698-5.713-22.284-11.122-26.316-16.417-9.187-12.067 5.597-26.777 16.139-16.451 1.394 1.365 2.674 2.498 3.764 3.686 6.674 7.273 9.36 10.351 15.887 10.417 6.442-.158 11.41-4.918 11.992-11.47.43-4.835.349-8.55 10.262-10.161-1.05-2.01-4.221-4.034-7.444-4.088z" style="fill:#ffb81c;fill-opacity:1;stroke:#000;stroke-width:1.70249;stroke-dasharray:none;stroke-opacity:1" transform="matrix(1.0279 0 0 1.02792 380.953 173.977)"/><g fill="#000" stroke-width="1.7" style="fill:none;fill-opacity:1;stroke:none;stroke-width:1.70249;stroke-dasharray:none"><path d="M67.383 197.768c-8.823-1.028-17.824 2.444-14.625 10.239l1.873-.635c-2.184-7.36 7.525-8.67 12.752-9.604m135.125-50.028c.952 6.894 3.302 12.118 7.311 16.078s9.527 6.596 16.855 8.212c-2.464-3.556-9.524-5.04-14.891-9.741-5.126-4.49-5.835-11.402-9.275-14.549m22.14 45.387c1.103-2.194 2.636-4.951 3.007-7.822.371-2.87.702-5.797-.707-7.973-1.733 1.099-3.092 15.36-2.3 15.795m-26.418-47.444c.468-3.314-2.108-4.755-4.663-5.304-2.995-.643-6.504.27-7.325 2.678 4.464-1.794 9.337-.957 11.988 2.626m-67.392 11.801c-.51 3.361 6.385 10.335 10.42 10.503l4.712-.951c-7.324.01-13.826-6.202-15.132-9.552m-49.62 40.527c3.531-2.63 6.33-6.487 7.495-8.117 1.741-2.437 2.626-3.617 2.605-6.718-2.104.16-10.546 14.098-10.1 14.835m130.195-.45c-8.823-1.028-17.824 2.748-14.625 10.543l1.872-.732c-2.183-7.36 7.526-8.878 12.753-9.812m-52.329.145c-8.823-1.027-17.824 2.604-14.625 10.399l1.873-.732c-2.184-7.36 7.525-8.733 12.752-9.667m-6.963-55.342c.87 4.004 18.168 15.35 23.699 12.744l2.86-2.191c-7.244 3.113-22.997-6.631-26.559-10.553m-4.622 4.24c-.237 4.116 15.715 13.932 20.466 13.011l4.198-2.15c-5.037 2.814-22.399-6.498-24.664-10.862m-5.277 4.08c.774 5.146 14.665 13.504 17.987 12.31l4.633-1.834c-7.566 1.69-19.814-5.491-22.62-10.475m-5.631 3.66c-.362 3.933 9.263 10.926 13.59 11.7l5.446-1.522c-6.91 1.113-17.613-6.606-19.036-10.177m-11.526 5.76c-.166 1.51 1.933 7.491 6.3 9.438l4.591-.657c-5.97-.89-9.605-6.432-10.891-8.78m-6.435 2.278c.025 1.841 1.17 6.502 3.555 8.13l4.186-.373c-4.666-1.544-7.113-6.476-7.741-7.757m51.74 2.08c-2.166-.812-3.02-1.101-4.373-3.816l1.968-1.033c.805 2.568 1.768 4.232 2.406 4.85m-3.432 2.193c-2.294-.46-3.805-1.703-4.775-4.398l2.29-.933c.058.65.105 3.025 2.485 5.33zm-9.025-2.866 2.296-.798c-.149 1.847 1.655 4.019 3.1 5.981-2.694-1.211-4.109-2.186-5.396-5.183m15.767 33.545c1.484-1.998 3.397-4.692 4.224-7.485.822-2.776 1.31-5.332.313-7.69-1.908.825-5.24 14.627-4.537 15.175m37.855-71.769c7.728 0 11.103 4.87 19.252 4.05l-6.903.957c3.356 3.015 4.93 5.812 4.898 8.353-3.138-9.164-11.032-10.241-17.247-13.36" style="fill:#000;fill-opacity:1;stroke:none;stroke-width:1.70249;stroke-dasharray:none" transform="matrix(1.0279 0 0 1.02792 380.953 173.977)"/></g></g><g style="fill:none;fill-opacity:1;stroke:none;stroke-width:1.70249;stroke-dasharray:none"><path d="m74.11 133.201-.54 7.163c-.938 3.93-2.096 13.53.62 16.467 2.137.303 4.59-1.346 6.183-3.22-.01 1.948.565 5.722 2.953 8.392 2.583-.68 5.1-3.343 6.094-5.13.863 2.278 1.937 4.97 4.303 6.846 2.703-1.578 4.257-4.093 5.385-6.592 1.222 2.353 2.707 4.826 5.439 6.074 2.53-2.159 3.283-3.776 4.198-6.667 1.783 2.604 3.759 4.05 6.46 4.485 2.123-2.222 2.418-4.784 2.78-7.752 1.926 2.512 4.461 3.717 7.401 3.97 1.365-2.755 1.077-5.669.904-8.202 2.017 1.676 4.843 3.046 7.6 3.052 1.211-3.545.349-6.838-.484-9.142 2.283 1.473 5.133 1.567 7.169 1.241 1.074-3.615-1.757-13.726-9.06-19.11z" style="fill:#ffb81c;fill-opacity:1;stroke:#000;stroke-width:1.70249;stroke-dasharray:none;stroke-opacity:1" transform="matrix(1.0279 0 0 1.02792 380.953 173.977)"/><path d="M69.22 111.094s-7.42 11.433-8.72 16.8c-.84 3.475-.66 5.15.222 8.122 2.114-.12 5.325-.837 6.821-2.367-.094 2.711-.288 5.781 1.585 8.547 3.207-.149 5.897-2.928 7.374-4.778-.002 3.24-.28 6.08 2.448 9.147 3.696-.628 5.429-3.896 7.213-6.095.417 2.627.933 5.778 3.919 8.67 3.678-1.932 5-4.978 6.016-7.685 1.198 2.688 2.287 5.247 5.67 7.263 3.027-2.454 4.065-6.647 4.299-8.303 1.328 2.16 3.547 5.082 6.7 5.788 2.224-1.926 2.868-5.969 2.875-9.12 1.645 2.298 3.806 4.85 6.991 5.078 2.462-2.462 1.995-6.155 1.839-8.898 2.134 1.893 4.514 3.9 7.746 3.538 1.549-2.77 1.261-5.71.607-8.513 2.204 1.872 4.483 3.023 8.152 2.928 1.009-2.997.268-6.352-.404-8.09 2.911.914 6.392 1.257 9.725-.783-4.507-10.738-16.903-13.113-29.393-15.212z" style="fill:#ffb81c;fill-opacity:1;stroke:#000;stroke-width:1.70249;stroke-dasharray:none;stroke-opacity:1" transform="matrix(1.0279 0 0 1.02792 380.953 173.977)"/><path d="M117.683 57.735c-.5-1.262-.245-4.02-.245-4.02-7.944 1.833-8.459 3.467-11.544 7.287.52-3.102.176-4.465-2.451-6.476-1.104 1.375-2.359 4.458-3.677 5.659-.45-2.805-1.055-5.21-3.596-7.008-2.218 1.944-3.489 4.12-3.597 7.008-1.318-1.201-2.573-4.284-3.677-5.66-2.627 2.012-2.97 3.375-2.451 6.477-3.884-4.818-5.677-6.141-11.544-7.287 0 0 .071 2.71-.245 4.02-.732 3.035-4.316 6.964-1.203 11.752-8.93 5.661-6.987 12.536-11.92 20.727 2.22-.21 2.703.21 6.143-.278-4.74 3.675-5.756 5.475-6.474 10.824 1.721-.625 3.181-.124 6.531-.978-1.138 2.43-3.59 4.207-4.956 5.358-3.376 2.846-4.763 5.7-5.599 8.99 2.994.963 5.792-.295 7.755-1.057-.627 1.158-2.836 5.344-1.343 7.967 3.025.634 5.759-1.85 7.671-3.074-.272 2.433-1.702 5.702.048 8.006 2.953.022 5.219-1.846 7.027-3.693-.342 2.538-.453 4.863 1.451 7.7 3.096-.917 4.843-2.72 6.396-4.603.274 2.47.414 5.007 2.952 7.412 3.64-1.602 4.718-4.177 5.786-6.152.617 2.207 2.016 5.338 4.441 6.736 2.74-1.822 4.026-5.623 4.393-7.647.95 1.93 2.92 4.601 5.852 5.58 2.271-2.343 2.464-5.696 2.66-8.067 1.667 1.718 3.945 3.889 6.956 4.219 2.04-2.398 1.6-5.724 1.063-8.416 2.09 1.669 4.686 2.919 7.727 2.525.998-2.6.618-5.113-.272-7.4 2.3.715 5.304 2.074 8.928.545-.031-4.024-4.992-8.26-7.517-9.822-1.525-.944-3.272-2.924-4.383-5.107 2.248.65 4.109.435 5.817.978-.808-5.49-1.85-7.179-6.552-10.824 3.58.553 4.03.067 6.252.278-4.933-8.191-4.032-16.488-11.4-20.727 2.306-5.57.797-6.7-1.203-11.752z" style="fill:#ffb81c;fill-opacity:1;stroke:#000;stroke-width:1.70249;stroke-dasharray:none;stroke-opacity:1" transform="matrix(1.0279 0 0 1.02792 380.953 173.977)"/><g fill="#ffbb26" stroke="#000" stroke-width="1.7" style="fill:none;fill-opacity:1;stroke:none;stroke-width:1.70249;stroke-dasharray:none"><path fill="#000" d="m133.406 142.945-.131 2.445c-.804-3-1.706-4.333-2.433-5.897 1.425 1.203 2.28 2.698 4.97 3.614zm-4.853 6.653-2.263-.563-.718 2.22c-.18-3.284-1.03-4.95-1.54-6.777 1.238 1.478 1.736 3.457 4.52 5.12m-8.242 4.85-2.326-1.18-1.178 2.32c.419-3.316-.545-5.548-.864-7.798 1.045 1.981 1.922 4.531 4.368 6.657m-9.368 3.447-2.197-1.36-1.544 1.822c1.097-2.914.476-6.17.446-8.361.755 2.053 1.183 5.634 3.295 7.899m-10.072.656-1.762-1.423-1.667 1.422c1.392-2.739 1.299-5.198 1.572-7.11.404 1.87.41 4.487 1.857 7.11m-13.315-.512 1.865-1.164 1.5 1.474c-.897-2.266-.594-4.924-.722-6.71-.55 1.676-.983 4.313-2.643 6.4m-7.182-4.426 1.016 2c-.354-2.456.162-4.56.407-6.45-.954 1.726-1.595 3.687-3.447 5.252zm60.2-30.484-.136 2.723c-.52-3.385-2.837-5.934-3.542-7.293 1.354 1.077 3.203 3.636 6.073 4.286zm-5.194 5.96-2.554-.803-.433 2.255c-.48-3.142-1.825-4.978-2.631-6.99 1.578 1.79 2.823 3.77 5.618 5.539m-8.954 4.737-1.953-.562-.73 2.039c-.11-3.064-.93-4.74-1.45-6.845 1.269 1.823 2.068 3.593 4.133 5.368m-8.832 4.4-1.9-1.143-.97 1.753c.19-2.712-.375-4.357-.75-6.89 1.213 2.24 1.84 4.116 3.62 6.28m-19.93 4.618-1.565-1.388-1.522 1.504c1.302-2.92 1.237-5.407 1.685-7.037.273 1.6.205 4.062 1.402 6.921m10.294-1.159-1.898-1.26-1.404 2.245c1.026-3.48.645-5.741.758-7.81.714 2.045.897 4.506 2.544 6.825m-23.966.25 2.172-1.464 1.234 2.07c-.718-3.255-.336-5.516-.35-7.221-.67 1.546-1.188 4.083-3.056 6.616m-9.632-3.38 2.143-1.137.842 2.083c.089-2.954.934-5.29 1.176-6.856-.88 1.284-2.01 3.573-4.161 5.91m-9.068-4.43 2.252-.476.801 2.684c-.026-3.117 1.486-6.423 1.932-8.065-.926 1.419-2.439 4.582-4.985 5.856" style="fill:#000;fill-opacity:1;stroke:none;stroke-width:1.70249;stroke-dasharray:none" transform="matrix(1.0279 0 0 1.02792 380.953 173.977)"/><path d="M77.371 58.15c.434 5.697-3.653 6.021-.357 11.862 1.39-4.194 2.91-4.544 6.957-2.762-.145-5.724-2.532-6.2-6.6-9.1m37.275 0c-4.067 2.9-6.454 3.376-6.6 9.1 4.048-1.782 5.566-1.432 6.956 2.762 3.296-5.84-.79-6.165-.356-11.862M75.854 74.154c-3.405 2.08-4.039 7.11 1.427 9.18-4.166 3.562-3.443 11.55.358 15.436-1.506 2.016-4.508 6.659-5.836 9.384 2.79-2.37 4.916-5.38 7.261-8.166.82.591 1.78 1.084 2.944 1.543-1.1 2.086-3.297 7.599-4.102 10.56 2.34-2.707 4.41-7.467 5.975-9.91.77.204 1.59.297 2.408.407-.61 1.75-.39 3.59.623 5.117-1.107 1.977-3.42 7.719-4.28 10.725 2.212-2.496 4.157-6.715 5.708-9.262.893.716 1.98 1.26 3.299 1.625-.498 2.544-1.065 7.869-1.07 10.723 1.455-2.922 2.229-7.498 3.03-10.317.987.197 2.407.197 3.391 0 .802 2.82 1.576 7.395 3.031 10.317-.006-2.854-.572-8.179-1.07-10.723 1.318-.364 2.406-.91 3.299-1.625 1.55 2.547 3.496 6.766 5.707 9.262-.86-3.006-3.173-8.748-4.28-10.725 1.014-1.528 1.235-3.368.626-5.117.818-.11 1.636-.203 2.406-.406 1.566 2.442 3.635 7.202 5.975 9.91-.805-2.962-3.002-8.475-4.102-10.56 1.07-.423 2.066-.91 2.943-1.544 1.976 2.3 4.674 6.062 7.262 8.166-1.289-2.644-4.268-7.285-5.836-9.384 3.8-3.886 4.524-11.874.358-15.436 5.466-2.07 4.832-7.1 1.427-9.18.627 1.787 1.09 3.209.535 5.282-1.12 2.65-3.887 2.81-6.421 3.085 1.798 1.14 3.737 2.25 4.726 4.225 2.622 9.274-6.295 15.549-13.91 14.299-3.001-.493-3.494-1.02-3.3-3.818.6-.063 1.347-.218 2.05-.569.638-.319.896-.657 1.16-.974.264-.318.48-.547.535-.57.837-.361 2.14-.243 2.14-.243l1.071.242.088-1.054c.072-.917.293-1.503-.445-3-.599-1.215-1.511-1.946-2.14-2.356-.315-.205-.5-.299-.626-.406s-.155-.155-.178-.244c-.82-3.04-1.075-5.673-.267-8.211.484-1.52 2.138-2.805 4.281-3.088 2.308-.306 5.121.341 6.42.57-3.678-4.192-11.177-2.634-12.662 2.03-.925 2.903-.58 5.972.268 9.105.22.814.75 1.23 1.603 1.787.548.357 1.09.676 1.518 1.543.367.744.223.72.177 1.375-.641-.048-1.034-.518-2.05-.08-.675.29-1.047.787-1.338 1.137-.237.284-.453.517-.469.566l-.002.002v.004h.002v.002h.002v.002c-.284.136-.856.27-1.316.318a20 20 0 0 1-1.786 0c-.46-.047-1.032-.182-1.316-.318v-.002h.002l.002-.002v-.004l-.002-.002c-.016-.049-.232-.282-.469-.566-.291-.35-.663-.846-1.338-1.137-1.016-.438-1.409.032-2.05.08-.046-.656-.19-.63.177-1.375.428-.867.97-1.186 1.518-1.543.854-.557 1.383-.973 1.603-1.787.847-3.133 1.193-6.202.268-9.105-1.485-4.664-8.984-6.222-12.662-2.03 1.299-.229 4.112-.876 6.42-.57 2.143.283 3.797 1.569 4.281 3.088.808 2.538.554 5.17-.268 8.21-.022.09-.05.138-.177.245s-.31.201-.625.406c-.63.41-1.542 1.141-2.14 2.356-.74 1.497-.518 2.083-.446 3l.09 1.054 1.068-.242s1.303-.118 2.14.242c.056.024.272.253.536.57.264.318.521.656 1.16.975.703.351 1.45.506 2.05.569.194 2.798-.297 3.325-3.298 3.818-6.966 1.144-16.683-4.5-13.912-14.299.989-1.975 2.928-3.085 4.726-4.225-2.534-.275-5.302-.435-6.422-3.085-.555-2.073-.091-3.495.536-5.282m9.966 4.639c-.93.021-1.872.334-2.742.723.368 2.072 2.768 4.818 6.865 2.6-1.062-2.585-2.573-3.359-4.123-3.323m18.95 0c-1.55-.036-3.061.738-4.124 3.322 4.098 2.219 6.498-.527 6.866-2.6-.87-.388-1.813-.7-2.742-.722m-9.479 22.578c1.672.94 4.085 1.644 7.049 1.461 1.483 3.188-1.901 6.01-7.05 6.012-5.15-.002-8.523-2.824-7.04-6.012 2.963.183 5.37-.521 7.041-1.46m-26.415 7.363c-.86.76-3.143 3.068-5.827 4.152l1.885.185.086 1.746c1.142-2.696 3.305-5.18 3.856-6.083m54.116.369c1.092 1.56 3.655 3.904 4.453 6.884l.295-1.822 1.813-.297c-2.662-1.11-4.859-3.671-6.56-4.765m-48.396 3.82c-.91.99-2.667 3.565-5.23 5.313l1.895-.27.55 1.765c.69-3.424 2.229-5.588 2.785-6.807m42.387.872c.684 1.797 2.284 3.872 2.748 7.008l.553-1.764 1.586.11c-2.33-1.533-3.494-3.894-4.887-5.354m-36.082 2.993c-.856 1.212-2.195 3.966-4.134 5.855l1.574-.366.685 1.547c.292-2.84 1.532-5.63 1.875-7.036m29.387.487c.103 1.613 1.226 4.595.96 7.774l1.017-1.813 1.94.71c-2.16-2.088-3.117-5.269-3.917-6.67m-22.49 2.11c-.612 1.197-1.54 4.728-3.215 6.54l1.6-.553 1.03 1.531c-.366-2.7.499-6.167.586-7.519m15.175.14c-.151 1.573.354 4.65-.395 7.446l1.174-1.248 1.555.984c-1.55-2.324-1.911-5.767-2.334-7.182m-7.807.881c-.351 1.58-.442 4.716-1.688 7.125l1.44-.896 1.3 1.23c-.981-2.723-.837-5.858-1.052-7.459" style="fill:#000;fill-opacity:1;stroke:none;stroke-width:1.70249;stroke-dasharray:none" transform="matrix(1.0279 0 0 1.02792 380.953 173.977)"/></g></g></g></svg>