<?xml version="1.0" encoding="utf-8"?>
<!-- Generator: Adobe Illustrator 27.8.1, SVG Export Plug-In . SVG Version: 6.00 Build 0)  -->
<svg version="1.1" id="Layer_1" xmlns="http://www.w3.org/2000/svg" xmlns:xlink="http://www.w3.org/1999/xlink" x="0px" y="0px"
	 viewBox="0 0 1920 1080" style="enable-background:new 0 0 1920 1080;" xml:space="preserve">
<style type="text/css">
	.st0{fill:#FFFFFF;}
</style>
<g>
	<g>
		<path class="st0" d="M872.05,483.38c-0.3,0.08-0.61,0.16-0.91,0.25l-2.55,0.64c-1.99,0.56-4.06,1.26-6,2
			c7.12,2.41,15.52,7.35,20.39,12.45c3.13-0.22,6.27-0.22,9.37-0.07c13.94,0.78,27.47,5.38,39.56,12.23
			c4.91,2.77,9.59,5.89,14.05,9.27c-1.71-9.91-5.76-19.02-11.55-26.75c-11.2-6.9-23.93-11.2-37.05-12.14
			C888.87,480.67,880.27,481.25,872.05,483.38z"/>
		<path class="st0" d="M914.3,507.04c-10.31-2.7-21.24-3.67-31.75-1.84c-2.71,0.47-5.38,1.1-7.94,2.04
			c2.26,7.18,5.77,13.99,10.95,19.27c5.48-1.12,11.22-0.92,16.69-0.15c15.93,2.39,30.28,10.68,42.42,21.05
			c1.44-5.27,2.22-10.82,2.22-16.55c0-3.1-0.23-6.15-0.67-9.13C936.36,515.28,925.68,510.09,914.3,507.04z"/>
		<path class="st0" d="M863.56,582.71c6.87-3.37,14.7-7.92,27.38-18.94c8.05-8.41,12.72-16.61,15.29-22.26
			c1.89-4.38,2.77-7.45,2.77-7.45c-40.06-14.69-106.03,67.69-46.62,84.36C847.07,598.11,856.69,586.08,863.56,582.71z"/>
		<path class="st0" d="M930.51,561.73c-8.07,12.85-19.69,23.34-33.13,30.27c21.72-4.59,39.28-20.47,46.25-41.21
			c-1.82-1.38-3.68-2.7-5.58-3.96C936.11,552.06,933.47,557.03,930.51,561.73z"/>
		<path class="st0" d="M920.84,566.9c4.76-7.04,8.56-14.78,10.83-22.97c0.08-0.3,0.16-0.6,0.23-0.9c-3.22-1.84-6.55-3.5-9.98-4.94
			c-1.75-0.72-3.54-1.38-5.38-1.99c-1.67,6.34-4.73,12.31-8.26,17.77c-7.65,11.68-18.39,21.1-30.37,28.15
			c-4.85,2.87-9.89,5.36-15.06,7.53c6.71,2.46,13.96,3.81,21.53,3.81c2.5,0,4.4-0.09,6.83-0.37
			C902.79,586.74,913.46,577.8,920.84,566.9z"/>
		<path class="st0" d="M803.14,543.97c1.53-1.39,2.67-2.01,4.69-2.64c-2.18-3.59-3.1-7.7-3.11-11.79c0-0.01-4.88-2.33-6.75-6.94
			c0,0,0,0,0,0C795.76,528.85,796.57,538.51,803.14,543.97z"/>
		<path class="st0" d="M804.92,531.33l0.02,0.05c0-0.02,0-0.04-0.01-0.07C804.93,531.32,804.92,531.32,804.92,531.33z"/>
		<path class="st0" d="M822.02,517.08c0.04-0.01,0.06-0.01,0.06-0.01s-0.03-0.01-0.06-0.03L822.02,517.08z"/>
		<path class="st0" d="M833.5,587.64v-19.37c-11.53,7.19-11.02,20.51-11.02,20.51c0,10.79,10.72,19.9,21.45,23.04
			C837.96,605.05,833.5,601.81,833.5,587.64L833.5,587.64z"/>
	</g>
	<path class="st0" d="M930.78,489.01c-11.44-12.67-27.98-20.63-46.39-20.63c-4.24,0-8.39,0.43-12.39,1.23
		c-24.29,4.99-36.01,21.66-36.01,21.66l-5.7,1.91c14.22-23.94,37.04-26.61,37.04-26.61c-0.4-0.43-0.8-0.85-1.2-1.24
		c-3.14-3.06-7.89-3.76-11.81-1.8c-9,4.49-20.93,10.45-26.11,13.03l-0.07,13.88c-2.24-0.64-4.5-3.23-5.38-5.28
		c-1.51,5.93-0.37,10.77,0.09,12.2c-3.32,2.28-7.84,6.2-9.16,8.32h5.58c-1.26,0.6-15.86,10.48-19.11,13.93
		c1.38,0.04,2.86,0.42,4.99,1.6c0,0,4.56-4.19,10.68-4.19c2.68,0,5.5,0.43,5.2,0.53c-2.68,0.89-5.25,2.4-6.99,3.76
		c0.43,0.67,0.17,0.26,1.27,2.17c0,0-4.38,2.04-7.8,5.04c0.46,3.47,2.04,15.31,15.32,18.31c4.24,0.96,10.56,1.81,10.98,7.44
		l0.04,3.04c-1.46-4.42-5.7-5.23-7.37-5.57c-7-1.22-12.97-2.64-16.93-7.91c-1.61,0.98-9.96,6.5-9.95,15.87
		c0,3.47,0.31,11.08,8.67,16.44v-9.5c0,0,5.37,3.99,5.37,14.58c0.05-0.13,0.11-0.26,0.16-0.4c1.23-9.82,9.54-17.44,19.67-17.6
		c0.42-0.02,0.85-0.03,1.27-0.03h7.43c0,0,18.16-14.71-3.17-38.2c0,0,22.52,13.93,43.43,2.95c-10.16-5.8-15.09-16.14-17.3-24.93
		c4.23-1.73,7.73-2.64,7.73-2.64c1.56-0.43,3.15-0.77,4.75-1.04c-4.55-4.9-15.4-9.08-23.36-9.93c-5.69-0.41-11.59,0.35-11.59,0.35
		c7.91-6.91,25.1-14.27,45.42-14.3C903.19,475.46,918.06,480.86,930.78,489.01z M822.02,517.08l-0.01-0.05
		c0.04,0.02,0.06,0.03,0.06,0.03S822.05,517.07,822.02,517.08z M853.66,509.88c0,0-16.69,1.14-27.23,5.46c0,0,0.57-2.6,6.6-5.46
		l-2.35-4.19h3.49v-3.62h6.03C840.2,502.08,853.66,502.08,853.66,509.88z"/>
</g>
<g>
	<g>
		<path class="st0" d="M1005.92,519.4H989.6v8.58h14.5v8.34h-14.5v16.44h-10.03v-41.7h26.35V519.4z"/>
		<path class="st0" d="M1045.44,535.9c0,3.1-0.42,5.75-1.27,7.95c-0.85,2.2-2,4-3.48,5.41c-1.47,1.41-3.21,2.45-5.23,3.11
			c-2.01,0.66-4.17,1-6.47,1c-2.3,0-4.45-0.33-6.47-1c-2.01-0.66-3.76-1.7-5.23-3.11c-1.47-1.41-2.63-3.21-3.48-5.41
			c-0.85-2.2-1.27-4.82-1.27-7.89v-24.9h10.03v24.9c0,3.06,0.49,5.34,1.48,6.83c0.99,1.49,2.63,2.24,4.93,2.24
			c2.3,0,3.94-0.75,4.93-2.24c0.99-1.49,1.48-3.77,1.48-6.83v-24.9h10.03V535.9z"/>
		<path class="st0" d="M1069.73,536.99h-5.2v15.77h-10.03v-41.7h15.71c2.42,0,4.59,0.27,6.53,0.82c1.93,0.54,3.59,1.37,4.96,2.48
			s2.43,2.48,3.17,4.11c0.75,1.63,1.12,3.54,1.12,5.71c0,2.74-0.57,5.03-1.72,6.86c-1.15,1.83-2.79,3.23-4.93,4.2l8.34,17.53h-11
			L1069.73,536.99z M1071.78,528.5c0.85-0.1,1.58-0.3,2.21-0.6c0.62-0.3,1.11-0.76,1.45-1.36c0.34-0.6,0.51-1.39,0.51-2.36
			c0-1.01-0.17-1.82-0.51-2.45c-0.34-0.62-0.83-1.11-1.45-1.45c-0.62-0.34-1.36-0.57-2.21-0.69c-0.85-0.12-1.77-0.18-2.78-0.18
			h-4.47v9.25h4.47C1070.01,528.65,1070.94,528.6,1071.78,528.5z"/>
		<path class="st0" d="M1106.23,525.38l6.47-14.32h11.54l-12.99,25.02v16.68h-10.03v-16.68l-12.99-25.02h11.54L1106.23,525.38z"/>
	</g>
	<path class="st0" d="M1124.24,561.28H979.57v8.52h111.46C1102.64,569.8,1114.06,566.87,1124.24,561.28L1124.24,561.28z"/>
</g>
</svg>
