<?xml version="1.0" encoding="utf-8"?>
<!-- Generator: Adobe Illustrator 27.8.1, SVG Export Plug-In . SVG Version: 6.00 Build 0)  -->
<svg version="1.1" id="Layer_1" xmlns="http://www.w3.org/2000/svg" xmlns:xlink="http://www.w3.org/1999/xlink" x="0px" y="0px"
	 viewBox="808 449 304 179" style="enable-background:new 0 0 1920 1080;" xml:space="preserve">
<style type="text/css">
	.st0{fill:#0A244E;}
	.st1{fill:#FFFFFF;}
</style>
<g>
	<g>
		<path class="st0" d="M1029.24,543.11v8.34h-26.35v-41.7h10.03v33.36H1029.24z"/>
		<path class="st0" d="M1061.63,518.09h-16.32v7.61h14.5v8.34h-14.5v9.07h16.32v8.34h-26.35v-41.7h26.35V518.09z"/>
		<path class="st0" d="M1099.31,541.96c-0.83,2.3-1.96,4.19-3.41,5.68s-3.18,2.6-5.2,3.32c-2.01,0.73-4.21,1.09-6.59,1.09
			c-2.38,0-4.57-0.36-6.59-1.09c-2.01-0.73-3.75-1.83-5.2-3.32s-2.59-3.38-3.41-5.68c-0.83-2.3-1.24-5-1.24-8.1v-6.53
			c0-3.14,0.41-5.86,1.24-8.16c0.83-2.3,1.96-4.18,3.41-5.65c1.45-1.47,3.18-2.57,5.2-3.29c2.01-0.73,4.21-1.09,6.59-1.09
			c2.38,0,4.57,0.36,6.59,1.09c2.01,0.73,3.75,1.82,5.2,3.29c1.45,1.47,2.59,3.35,3.41,5.65c0.83,2.3,1.24,5.02,1.24,8.16v6.53
			C1100.55,536.97,1100.14,539.67,1099.31,541.96z M1079.34,541.36c1.09,1.57,2.68,2.36,4.77,2.36c2.09,0,3.69-0.79,4.77-2.36
			c1.09-1.57,1.63-4.07,1.63-7.49v-6.53c0-3.42-0.54-5.92-1.63-7.49c-1.09-1.57-2.68-2.36-4.77-2.36c-2.1,0-3.69,0.79-4.77,2.36
			c-1.09,1.57-1.63,4.07-1.63,7.49v6.53C1077.71,537.29,1078.25,539.79,1079.34,541.36z"/>
	</g>
	<path class="st0" d="M1100.14,559.97h-97.35v8.52h64.14C1078.55,568.49,1089.97,565.56,1100.14,559.97L1100.14,559.97z"/>
</g>
<g>
	<path class="st0" d="M905.9,466.46c-2.72,0-5.41,0.17-8.04,0.5c-3.67-3.6-8.54-5.58-13.69-5.58c-3.03,0-6.07,0.72-8.79,2.07
		l-28.13,14.04c-2.9,1.45-4.74,4.42-4.74,7.66v11.55c-15.41,12.25-19.55,20.54-20.49,22.94l-0.06,0.16l-0.06,0.17
		c-2.45,6.91-2.34,16.48,2.49,24.21c0.08,1.17-0.1,2.36-0.48,3.48c-0.8,2.36-1.26,4.92-1.25,7.64c0.01,12.56,6.74,19.5,12.37,23.11
		l4.31,2.76c1.8,1.15,3.13,2.92,3.65,4.99c1.26,4.99,4.05,9.76,8.13,13.88c8.43,8.51,29.4,14.76,33.08,15.79h0
		c9.93,2.79,17.73-8.63,11.52-16.87v0c-1.49-1.98-2.65-3.87-3.47-5.61l0-0.02c4.4,0.95,8.97,1.46,13.66,1.46
		c35.44,0,64.17-28.73,64.17-64.17S941.34,466.46,905.9,466.46z"/>
	<g>
		<g>
			<path class="st1" d="M895.36,490.05c-0.26,0.07-0.52,0.14-0.78,0.21l-2.18,0.55c-1.7,0.48-3.47,1.08-5.13,1.71
				c6.08,2.06,13.26,6.28,17.43,10.64c2.67-0.19,5.36-0.19,8.01-0.06c11.91,0.67,23.48,4.6,33.81,10.45c4.19,2.36,8.19,5.03,12,7.92
				c-1.46-8.47-4.92-16.26-9.87-22.86c-9.57-5.89-20.45-9.57-31.66-10.37C909.74,487.74,902.39,488.24,895.36,490.05z"/>
			<path class="st1" d="M931.46,510.27c-8.81-2.31-18.15-3.13-27.14-1.58c-2.32,0.4-4.6,0.94-6.79,1.75
				c1.93,6.13,4.93,11.95,9.36,16.47c4.68-0.96,9.59-0.79,14.27-0.13c13.61,2.04,25.87,9.13,36.25,17.99
				c1.23-4.5,1.9-9.24,1.9-14.14c0-2.65-0.2-5.26-0.57-7.81C950.32,517.31,941.19,512.88,931.46,510.27z"/>
			<path class="st1" d="M888.1,574.94c5.87-2.88,12.56-6.77,23.4-16.19c6.88-7.19,10.87-14.19,13.06-19.02
				c1.62-3.74,2.37-6.37,2.37-6.37c-34.23-12.56-90.61,57.84-39.84,72.09C874.02,588.1,882.23,577.82,888.1,574.94z"/>
			<path class="st1" d="M945.32,557.01c-6.9,10.98-16.83,19.94-28.31,25.87c18.56-3.93,33.56-17.49,39.52-35.21
				c-1.56-1.18-3.15-2.31-4.77-3.39C950.1,548.75,947.85,552.99,945.32,557.01z"/>
			<path class="st1" d="M937.06,561.42c4.07-6.02,7.31-12.63,9.25-19.63c0.07-0.25,0.13-0.51,0.2-0.77
				c-2.75-1.57-5.59-2.99-8.53-4.23c-1.49-0.61-3.03-1.18-4.6-1.7c-1.43,5.42-4.04,10.52-7.06,15.18
				c-6.53,9.98-15.72,18.03-25.95,24.05c-4.15,2.45-8.46,4.58-12.87,6.44c5.74,2.1,11.93,3.25,18.4,3.25c2.14,0,3.76-0.07,5.83-0.32
				C921.63,578.38,930.75,570.74,937.06,561.42z"/>
			<path class="st1" d="M836.47,541.83c1.31-1.18,2.28-1.72,4.01-2.25c-1.86-3.07-2.65-6.58-2.65-10.07c0-0.01-4.17-1.99-5.77-5.93
				c0,0,0,0,0,0C830.17,528.91,830.86,537.17,836.47,541.83z"/>
			<path class="st1" d="M837.99,531.03l0.02,0.04c0-0.02,0-0.04-0.01-0.06C838,531.02,838,531.02,837.99,531.03z"/>
			<path class="st1" d="M852.6,518.85c0.03-0.01,0.05-0.01,0.05-0.01s-0.02-0.01-0.06-0.03L852.6,518.85z"/>
			<path class="st1" d="M862.41,579.15V562.6c-9.85,6.14-9.41,17.53-9.41,17.53c0,9.22,9.16,17,18.33,19.69
				C866.23,594.02,862.42,591.26,862.41,579.15L862.41,579.15z"/>
		</g>
		<path class="st1" d="M945.55,494.87c-9.77-10.82-23.91-17.63-39.64-17.63c-3.63,0-7.17,0.36-10.59,1.05
			c-20.76,4.27-30.77,18.51-30.77,18.51l-4.87,1.63c12.15-20.45,31.65-22.74,31.65-22.74c-0.34-0.37-0.68-0.72-1.03-1.06
			c-2.69-2.61-6.74-3.21-10.09-1.54c-7.69,3.84-17.89,8.93-22.31,11.13l-0.06,11.86c-1.91-0.55-3.85-2.76-4.59-4.51
			c-1.29,5.07-0.32,9.21,0.07,10.43c-2.84,1.95-6.7,5.3-7.83,7.11h4.77c-1.08,0.51-13.55,8.96-16.33,11.9
			c1.18,0.03,2.44,0.36,4.26,1.37c0,0,3.9-3.58,9.12-3.58c2.29,0,4.7,0.37,4.44,0.46c-2.29,0.76-4.48,2.05-5.97,3.21
			c0.37,0.57,0.14,0.22,1.08,1.85c0,0-3.75,1.75-6.67,4.31c0.4,2.97,1.74,13.08,13.09,15.65c3.62,0.82,9.02,1.55,9.38,6.36l0.03,2.6
			c-1.25-3.78-4.87-4.47-6.29-4.76c-5.98-1.04-11.08-2.25-14.47-6.76c-1.37,0.83-8.51,5.55-8.5,13.56c0,2.97,0.26,9.47,7.41,14.05
			v-8.12c0,0,4.59,3.41,4.59,12.46c0.05-0.11,0.09-0.22,0.14-0.34c1.06-8.4,8.15-14.91,16.81-15.04c0.36-0.02,0.72-0.03,1.08-0.03
			h6.35c0,0,15.52-12.57-2.71-32.64c0,0,19.24,11.9,37.11,2.52c-8.68-4.95-12.89-13.79-14.79-21.31c3.61-1.48,6.6-2.26,6.6-2.26
			c1.34-0.36,2.69-0.66,4.06-0.89c-3.89-4.18-13.16-7.76-19.96-8.48c-4.86-0.35-9.9,0.3-9.9,0.3c6.76-5.9,21.45-12.19,38.82-12.22
			C921.98,483.28,934.68,487.9,945.55,494.87z M852.6,518.85l-0.01-0.04c0.03,0.02,0.06,0.03,0.06,0.03S852.64,518.85,852.6,518.85z
			 M879.64,512.7c0,0-14.26,0.98-23.27,4.66c0,0,0.49-2.22,5.64-4.66l-2.01-3.58h2.98v-3.09h5.15
			C868.15,506.03,879.64,506.03,879.64,512.7z"/>
	</g>
</g>
</svg>
