<?xml version="1.0" encoding="UTF-8"?>
<svg id="Layer_1" data-name="Layer 1" xmlns="http://www.w3.org/2000/svg" viewBox="808 449 304 179">
  <defs>
    <style>
      .cls-1 {
        fill: #fff;
        stroke-width: 0px;
      }
    </style>
  </defs>
  <g>
    <g>
      <path class="cls-1" d="m895.55,483.38c-.3.08-.61.16-.91.25l-2.55.64c-1.99.56-4.06,1.26-6,2,7.12,2.41,15.52,7.35,20.39,12.45,3.13-.22,6.27-.22,9.37-.07,13.94.78,27.47,5.38,39.56,12.23,4.91,2.77,9.59,5.89,14.05,9.27-1.71-9.91-5.76-19.02-11.55-26.75-11.2-6.9-23.93-11.2-37.05-12.14-8.48-.6-17.08-.02-25.31,2.11Z"/>
      <path class="cls-1" d="m937.8,507.04c-10.31-2.7-21.24-3.67-31.75-1.84-2.71.47-5.38,1.1-7.94,2.04,2.26,7.18,5.77,13.99,10.95,19.27,5.48-1.12,11.22-.92,16.69-.15,15.93,2.39,30.28,10.68,42.42,21.05,1.44-5.27,2.22-10.82,2.22-16.55,0-3.1-.23-6.15-.67-9.13-9.85-6.46-20.53-11.64-31.91-14.69Z"/>
      <path class="cls-1" d="m887.07,582.71c6.87-3.37,14.7-7.92,27.38-18.94,8.05-8.41,12.72-16.61,15.28-22.26,1.89-4.38,2.77-7.45,2.77-7.45-40.06-14.69-106.03,67.69-46.62,84.36-15.31-20.31-5.69-32.34,1.18-35.71Z"/>
      <path class="cls-1" d="m954.02,561.73c-8.07,12.85-19.69,23.34-33.13,30.27,21.72-4.59,39.28-20.47,46.25-41.21-1.82-1.38-3.68-2.7-5.58-3.96-1.94,5.23-4.58,10.2-7.53,14.89Z"/>
      <path class="cls-1" d="m944.35,566.9c4.76-7.04,8.56-14.78,10.83-22.97.08-.3.16-.6.23-.9-3.22-1.84-6.55-3.5-9.98-4.94-1.75-.72-3.54-1.38-5.38-1.99-1.67,6.34-4.73,12.31-8.26,17.77-7.65,11.68-18.39,21.1-30.37,28.15-4.85,2.87-9.89,5.36-15.06,7.53,6.71,2.46,13.96,3.81,21.53,3.81,2.5,0,4.4-.09,6.83-.37,11.58-6.25,22.25-15.19,29.63-26.09Z"/>
      <path class="cls-1" d="m826.65,543.97c1.53-1.39,2.67-2.01,4.69-2.64-2.18-3.59-3.1-7.7-3.11-11.79,0-.01-4.88-2.33-6.75-6.94,0,0,0,0,0,0-2.21,6.24-1.4,15.9,5.17,21.36Z"/>
      <path class="cls-1" d="m828.43,531.33l.02.05s0-.04,0-.07c0,0,0,.01-.01.02Z"/>
      <path class="cls-1" d="m845.52,517.08s.06-.01.06-.01c0,0-.03-.01-.06-.03v.05Z"/>
      <path class="cls-1" d="m857,587.64v-19.37c-11.53,7.19-11.02,20.51-11.02,20.51,0,10.79,10.72,19.9,21.45,23.04-5.97-6.77-10.43-10.01-10.43-24.18h0Z"/>
    </g>
    <path class="cls-1" d="m954.29,489.01c-11.44-12.67-27.98-20.63-46.39-20.63-4.24,0-8.39.43-12.39,1.23-24.29,4.99-36.01,21.66-36.01,21.66l-5.7,1.91c14.22-23.94,37.04-26.61,37.04-26.61-.4-.43-.8-.85-1.2-1.24-3.14-3.06-7.89-3.76-11.81-1.8-9,4.49-20.93,10.45-26.11,13.03l-.07,13.88c-2.24-.64-4.5-3.23-5.38-5.28-1.51,5.93-.37,10.77.09,12.2-3.32,2.28-7.84,6.2-9.16,8.32h5.58c-1.26.6-15.86,10.48-19.11,13.93,1.38.04,2.86.42,4.99,1.6,0,0,4.56-4.19,10.68-4.19,2.68,0,5.5.43,5.2.53-2.68.89-5.25,2.4-6.99,3.76.43.67.17.26,1.27,2.17,0,0-4.38,2.04-7.8,5.04.46,3.47,2.04,15.31,15.32,18.31,4.24.96,10.56,1.81,10.98,7.44l.04,3.04c-1.46-4.42-5.7-5.23-7.37-5.57-7-1.22-12.97-2.64-16.93-7.91-1.61.98-9.96,6.5-9.95,15.87,0,3.47.31,11.08,8.67,16.44v-9.5s5.37,3.99,5.37,14.58c.05-.13.11-.26.16-.4,1.23-9.82,9.54-17.44,19.67-17.6.42-.02.85-.03,1.27-.03h7.43s18.16-14.71-3.17-38.2c0,0,22.52,13.93,43.43,2.95-10.16-5.8-15.09-16.14-17.3-24.93,4.23-1.73,7.73-2.64,7.73-2.64,1.56-.43,3.15-.77,4.75-1.04-4.55-4.9-15.4-9.08-23.36-9.93-5.69-.41-11.59.35-11.59.35,7.91-6.91,25.1-14.27,45.42-14.3,15.15-.02,30.02,5.38,42.74,13.53Zm-108.76,28.07v-.05s.06.03.06.03c0,0-.02,0-.06.01Zm31.64-7.2s-16.69,1.14-27.23,5.46c0,0,.57-2.6,6.6-5.46l-2.35-4.19h3.49v-3.62h6.03s13.45,0,13.45,7.81Z"/>
  </g>
  <g>
    <g>
      <path class="cls-1" d="m1029.42,544.72v8.34h-26.35v-41.7h10.03v33.36h16.32Z"/>
      <path class="cls-1" d="m1061.81,519.7h-16.32v7.61h14.5v8.34h-14.5v9.07h16.32v8.34h-26.35v-41.7h26.35v8.34Z"/>
      <path class="cls-1" d="m1099.49,543.57c-.83,2.3-1.96,4.19-3.41,5.68s-3.18,2.6-5.2,3.32-4.21,1.09-6.59,1.09-4.57-.36-6.59-1.09-3.75-1.83-5.2-3.32c-1.45-1.49-2.59-3.38-3.41-5.68-.83-2.3-1.24-5-1.24-8.1v-6.53c0-3.14.41-5.86,1.24-8.16.83-2.3,1.96-4.18,3.41-5.65,1.45-1.47,3.18-2.57,5.2-3.29s4.21-1.09,6.59-1.09,4.57.36,6.59,1.09,3.75,1.82,5.2,3.29,2.59,3.35,3.41,5.65c.83,2.3,1.24,5.02,1.24,8.16v6.53c0,3.1-.41,5.8-1.24,8.1Zm-19.97-.6c1.09,1.57,2.68,2.36,4.77,2.36s3.69-.79,4.77-2.36c1.09-1.57,1.63-4.07,1.63-7.49v-6.53c0-3.42-.54-5.92-1.63-7.49-1.09-1.57-2.68-2.36-4.77-2.36s-3.69.79-4.77,2.36c-1.09,1.57-1.63,4.07-1.63,7.49v6.53c0,3.42.54,5.92,1.63,7.49Z"/>
    </g>
    <path class="cls-1" d="m1100.32,561.58h-97.35v8.52h64.14c11.61,0,23.03-2.93,33.21-8.52h0Z"/>
  </g>
</svg>