<?xml version="1.0" encoding="utf-8"?>
<!-- Generator: Adobe Illustrator 27.8.1, SVG Export Plug-In . SVG Version: 6.00 Build 0)  -->
<svg version="1.1" id="Layer_1" xmlns="http://www.w3.org/2000/svg" xmlns:xlink="http://www.w3.org/1999/xlink" x="0px" y="0px"
	 viewBox="693 449 535 179" style="enable-background:new 0 0 1920 1080;" xml:space="preserve">
<style type="text/css">
	.st0{fill:#FFFFFF;}
</style>
<g>
	<g>
		<path class="st0" d="M779.98,483.38c-0.3,0.08-0.6,0.16-0.91,0.25l-2.55,0.64c-1.99,0.56-4.06,1.26-6,2
			c7.12,2.41,15.52,7.35,20.39,12.45c3.13-0.22,6.27-0.22,9.37-0.07c13.94,0.78,27.47,5.38,39.56,12.23
			c4.91,2.77,9.59,5.89,14.05,9.27c-1.71-9.91-5.76-19.02-11.55-26.75c-11.2-6.9-23.93-11.2-37.05-12.14
			C796.81,480.67,788.21,481.25,779.98,483.38z"/>
		<path class="st0" d="M822.23,507.04c-10.31-2.7-21.24-3.67-31.75-1.84c-2.71,0.47-5.38,1.1-7.94,2.04
			c2.26,7.18,5.77,13.99,10.95,19.27c5.48-1.12,11.22-0.92,16.69-0.15c15.93,2.39,30.28,10.68,42.42,21.05
			c1.44-5.27,2.22-10.82,2.22-16.55c0-3.1-0.23-6.15-0.67-9.13C844.29,515.28,833.61,510.09,822.23,507.04z"/>
		<path class="st0" d="M771.49,582.71c6.87-3.37,14.7-7.92,27.38-18.94c8.05-8.41,12.72-16.61,15.28-22.26
			c1.89-4.38,2.77-7.45,2.77-7.45c-40.06-14.69-106.03,67.69-46.62,84.36C755.01,598.11,764.62,586.08,771.49,582.71z"/>
		<path class="st0" d="M838.45,561.73c-8.07,12.85-19.69,23.34-33.13,30.27c21.72-4.59,39.28-20.47,46.25-41.21
			c-1.82-1.38-3.68-2.7-5.58-3.96C844.04,552.06,841.41,557.03,838.45,561.73z"/>
		<path class="st0" d="M828.78,566.9c4.76-7.04,8.56-14.78,10.83-22.97c0.08-0.3,0.16-0.6,0.23-0.9c-3.22-1.84-6.55-3.5-9.98-4.94
			c-1.75-0.72-3.54-1.38-5.38-1.99c-1.67,6.34-4.73,12.31-8.26,17.77c-7.65,11.68-18.39,21.1-30.37,28.15
			c-4.85,2.87-9.89,5.36-15.06,7.53c6.71,2.46,13.96,3.81,21.53,3.81c2.5,0,4.4-0.09,6.83-0.37
			C810.73,586.74,821.4,577.8,828.78,566.9z"/>
		<path class="st0" d="M711.08,543.97c1.53-1.39,2.67-2.01,4.69-2.64c-2.18-3.59-3.1-7.7-3.11-11.79c0-0.01-4.88-2.33-6.75-6.94
			c0,0,0,0,0,0C703.7,528.85,704.51,538.51,711.08,543.97z"/>
		<path class="st0" d="M712.85,531.33l0.02,0.05c0-0.02,0-0.04-0.01-0.07C712.86,531.32,712.86,531.32,712.85,531.33z"/>
		<path class="st0" d="M729.95,517.08c0.04-0.01,0.06-0.01,0.06-0.01s-0.03-0.01-0.06-0.03L729.95,517.08z"/>
		<path class="st0" d="M741.43,587.64v-19.37c-11.53,7.19-11.02,20.51-11.02,20.51c0,10.79,10.72,19.9,21.45,23.04
			C745.89,605.05,741.43,601.81,741.43,587.64L741.43,587.64z"/>
	</g>
	<path class="st0" d="M838.71,489.01c-11.44-12.67-27.98-20.63-46.39-20.63c-4.24,0-8.39,0.43-12.39,1.23
		c-24.29,4.99-36.01,21.66-36.01,21.66l-5.7,1.91c14.22-23.94,37.04-26.61,37.04-26.61c-0.4-0.43-0.8-0.85-1.2-1.24
		c-3.14-3.06-7.89-3.76-11.81-1.8c-9,4.49-20.93,10.45-26.11,13.03l-0.07,13.88c-2.24-0.64-4.5-3.23-5.38-5.28
		c-1.51,5.93-0.37,10.77,0.09,12.2c-3.32,2.28-7.84,6.2-9.16,8.32h5.58c-1.26,0.6-15.86,10.48-19.11,13.93
		c1.38,0.04,2.86,0.42,4.99,1.6c0,0,4.56-4.19,10.68-4.19c2.68,0,5.5,0.43,5.2,0.53c-2.68,0.89-5.25,2.4-6.99,3.76
		c0.43,0.67,0.17,0.26,1.27,2.17c0,0-4.38,2.04-7.8,5.04c0.46,3.47,2.04,15.31,15.32,18.31c4.24,0.96,10.56,1.81,10.98,7.44
		l0.04,3.04c-1.46-4.42-5.7-5.23-7.37-5.57c-7-1.22-12.97-2.64-16.93-7.91c-1.61,0.98-9.96,6.5-9.95,15.87
		c0,3.47,0.31,11.08,8.67,16.44v-9.5c0,0,5.37,3.99,5.37,14.58c0.05-0.13,0.11-0.26,0.16-0.4c1.23-9.82,9.54-17.44,19.67-17.6
		c0.42-0.02,0.85-0.03,1.27-0.03h7.43c0,0,18.16-14.71-3.17-38.2c0,0,22.52,13.93,43.43,2.95c-10.16-5.8-15.09-16.14-17.3-24.93
		c4.23-1.73,7.73-2.64,7.73-2.64c1.56-0.43,3.15-0.77,4.75-1.04c-4.55-4.9-15.4-9.08-23.36-9.93c-5.69-0.41-11.59,0.35-11.59,0.35
		c7.91-6.91,25.1-14.27,45.42-14.3C811.13,475.46,826,480.86,838.71,489.01z M729.95,517.08l-0.01-0.05
		c0.04,0.02,0.06,0.03,0.06,0.03S729.99,517.07,729.95,517.08z M761.59,509.88c0,0-16.69,1.14-27.23,5.46c0,0,0.57-2.6,6.6-5.46
		l-2.35-4.19h3.49v-3.62h6.03C748.14,502.08,761.59,502.08,761.59,509.88z"/>
</g>
<g>
	<g>
		<path class="st0" d="M897.53,553.06H887.5v-41.7h15.71c2.42,0,4.59,0.27,6.53,0.82c1.93,0.54,3.59,1.37,4.96,2.48
			c1.37,1.11,2.43,2.51,3.17,4.2c0.75,1.69,1.12,3.71,1.12,6.04c0,4.63-1.42,8.14-4.26,10.52c-2.84,2.38-6.68,3.57-11.51,3.57h-5.68
			V553.06z M907.17,529.34c1.19-0.87,1.78-2.35,1.78-4.44c0-1.69-0.59-2.98-1.78-3.87c-1.19-0.89-3.11-1.33-5.77-1.33h-3.87v10.94
			h3.87C904.06,530.64,905.98,530.21,907.17,529.34z"/>
		<path class="st0" d="M940.26,537.29h-5.2v15.77h-10.03v-41.7h15.71c2.42,0,4.59,0.27,6.53,0.82c1.93,0.54,3.59,1.37,4.96,2.48
			c1.37,1.11,2.43,2.48,3.17,4.11c0.75,1.63,1.12,3.54,1.12,5.71c0,2.74-0.57,5.03-1.72,6.86c-1.15,1.83-2.79,3.23-4.93,4.2
			l8.34,17.53h-11L940.26,537.29z M942.31,528.8c0.85-0.1,1.58-0.3,2.21-0.6c0.62-0.3,1.11-0.76,1.45-1.36
			c0.34-0.6,0.51-1.39,0.51-2.36c0-1.01-0.17-1.82-0.51-2.45c-0.34-0.62-0.83-1.11-1.45-1.45c-0.62-0.34-1.36-0.57-2.21-0.69
			c-0.85-0.12-1.77-0.18-2.78-0.18h-4.47v9.25h4.47C940.54,528.95,941.47,528.9,942.31,528.8z"/>
		<path class="st0" d="M990.9,519.7h-16.32v7.61h14.5v8.34h-14.5v9.07h16.32v8.34h-26.35v-41.7h26.35V519.7z"/>
		<path class="st0" d="M997.85,511.36h15.53c2.38,0,4.57,0.31,6.59,0.94c2.01,0.62,3.75,1.64,5.2,3.05c1.45,1.41,2.59,3.24,3.41,5.5
			s1.24,5.04,1.24,8.34v6.04c0,3.26-0.41,6.02-1.24,8.28c-0.83,2.26-1.96,4.1-3.41,5.53c-1.45,1.43-3.18,2.46-5.2,3.08
			s-4.21,0.94-6.59,0.94h-15.53V511.36z M1016.55,544.03c0.83-0.46,1.48-1.11,1.96-1.93c0.48-0.83,0.82-1.82,1-2.99
			c0.18-1.17,0.27-2.46,0.27-3.87v-6.04c0-1.41-0.09-2.7-0.27-3.87c-0.18-1.17-0.51-2.17-1-2.99c-0.48-0.83-1.14-1.47-1.96-1.93
			c-0.83-0.46-1.88-0.7-3.17-0.7h-5.5v25.02h5.5C1014.67,544.72,1015.72,544.49,1016.55,544.03z"/>
		<path class="st0" d="M1046.43,511.36h9.67l14.5,41.7h-10.7l-2.24-7.13h-12.87l-2.18,7.13h-10.7L1046.43,511.36z M1055.07,537.59
			l-3.81-12.33l-3.87,12.33H1055.07z"/>
		<path class="st0" d="M1101.79,519.7h-10.88v33.36h-10.03V519.7H1070v-8.34h31.79V519.7z"/>
		<path class="st0" d="M1137.96,543.57c-0.83,2.3-1.96,4.19-3.41,5.68s-3.18,2.6-5.2,3.32s-4.21,1.09-6.59,1.09
			c-2.38,0-4.57-0.36-6.59-1.09s-3.75-1.83-5.2-3.32s-2.59-3.38-3.41-5.68c-0.83-2.3-1.24-5-1.24-8.1v-6.53
			c0-3.14,0.41-5.86,1.24-8.16s1.96-4.18,3.41-5.65c1.45-1.47,3.18-2.57,5.2-3.29c2.01-0.73,4.21-1.09,6.59-1.09
			c2.38,0,4.57,0.36,6.59,1.09c2.01,0.73,3.75,1.82,5.2,3.29c1.45,1.47,2.59,3.35,3.41,5.65s1.24,5.02,1.24,8.16v6.53
			C1139.19,538.58,1138.78,541.28,1137.96,543.57z M1117.98,542.97c1.09,1.57,2.68,2.36,4.77,2.36s3.69-0.79,4.77-2.36
			c1.09-1.57,1.63-4.07,1.63-7.49v-6.53c0-3.42-0.54-5.92-1.63-7.49c-1.09-1.57-2.68-2.36-4.77-2.36s-3.69,0.79-4.77,2.36
			c-1.09,1.57-1.63,4.07-1.63,7.49v6.53C1116.35,538.9,1116.89,541.4,1117.98,542.97z"/>
		<path class="st0" d="M1162.58,537.29h-5.2v15.77h-10.03v-41.7h15.71c2.42,0,4.59,0.27,6.53,0.82c1.93,0.54,3.59,1.37,4.96,2.48
			c1.37,1.11,2.43,2.48,3.17,4.11c0.75,1.63,1.12,3.54,1.12,5.71c0,2.74-0.57,5.03-1.72,6.86c-1.15,1.83-2.79,3.23-4.93,4.2
			l8.34,17.53h-11L1162.58,537.29z M1164.63,528.8c0.85-0.1,1.58-0.3,2.21-0.6c0.62-0.3,1.11-0.76,1.45-1.36
			c0.34-0.6,0.51-1.39,0.51-2.36c0-1.01-0.17-1.82-0.51-2.45c-0.34-0.62-0.83-1.11-1.45-1.45c-0.62-0.34-1.36-0.57-2.21-0.69
			c-0.85-0.12-1.77-0.18-2.78-0.18h-4.47v9.25h4.47C1162.86,528.95,1163.79,528.9,1164.63,528.8z"/>
		<path class="st0" d="M1205.67,519.94c-1.13-0.56-2.64-0.85-4.53-0.85c-1.69,0-2.91,0.34-3.66,1.03c-0.75,0.69-1.12,1.55-1.12,2.6
			c0,1.25,0.57,2.27,1.72,3.05s3.05,1.56,5.71,2.33c2.26,0.65,4.18,1.36,5.77,2.15c1.59,0.79,2.88,1.69,3.87,2.72
			c0.99,1.03,1.71,2.22,2.18,3.57s0.69,2.91,0.69,4.68c0,3.79-1.24,6.81-3.72,9.07c-2.48,2.26-6.09,3.38-10.85,3.38
			c-3.83,0-7.07-0.51-9.73-1.54c-2.66-1.03-4.98-2.79-6.95-5.29l7.49-5.26c1.05,1.29,2.23,2.24,3.54,2.84
			c1.31,0.6,2.91,0.91,4.8,0.91c1.93,0,3.31-0.35,4.14-1.06c0.83-0.71,1.24-1.56,1.24-2.57c0-0.6-0.12-1.15-0.36-1.63
			c-0.24-0.48-0.66-0.94-1.27-1.36c-0.6-0.42-1.41-0.85-2.42-1.27c-1.01-0.42-2.28-0.88-3.81-1.36c-4.23-1.37-7.3-3.09-9.22-5.17
			c-1.91-2.07-2.87-4.78-2.87-8.13c0-1.73,0.29-3.33,0.88-4.8c0.58-1.47,1.47-2.74,2.66-3.81s2.71-1.9,4.56-2.51
			c1.85-0.6,4.05-0.91,6.59-0.91c3.34,0,6.31,0.56,8.88,1.69c2.58,1.13,4.61,2.84,6.1,5.14l-7.43,5.32
			C1207.76,521.5,1206.79,520.51,1205.67,519.94z"/>
	</g>
	<path class="st0" d="M1216.3,561.58H887.5v8.52h295.59C1194.7,570.1,1206.13,567.17,1216.3,561.58L1216.3,561.58z"/>
</g>
</svg>
