<?xml version="1.0" encoding="utf-8"?>
<!-- Generator: Adobe Illustrator 27.8.1, SVG Export Plug-In . SVG Version: 6.00 Build 0)  -->
<svg version="1.1" id="Layer_1" xmlns="http://www.w3.org/2000/svg" xmlns:xlink="http://www.w3.org/1999/xlink" x="0px" y="0px"
	 viewBox="782 449 357 179" style="enable-background:new 0 0 1920 1080;" xml:space="preserve">
<style type="text/css">
	.st0{fill:#FFFFFF;}
</style>
<g>
	<g>
		<path class="st0" d="M869.36,483.38c-0.3,0.08-0.61,0.16-0.91,0.25l-2.55,0.64c-1.99,0.56-4.06,1.26-6,2
			c7.12,2.41,15.52,7.35,20.39,12.45c3.13-0.22,6.27-0.22,9.37-0.07c13.94,0.78,27.47,5.38,39.56,12.23
			c4.91,2.77,9.59,5.89,14.05,9.27c-1.71-9.91-5.76-19.02-11.55-26.75c-11.2-6.9-23.93-11.2-37.05-12.14
			C886.19,480.67,877.58,481.25,869.36,483.38z"/>
		<path class="st0" d="M911.61,507.04c-10.31-2.7-21.24-3.67-31.75-1.84c-2.71,0.47-5.38,1.1-7.94,2.04
			c2.26,7.18,5.77,13.99,10.95,19.27c5.48-1.12,11.22-0.92,16.69-0.15c15.93,2.39,30.28,10.68,42.42,21.05
			c1.44-5.27,2.22-10.82,2.22-16.55c0-3.1-0.23-6.15-0.67-9.13C933.67,515.28,922.99,510.09,911.61,507.04z"/>
		<path class="st0" d="M860.87,582.71c6.87-3.37,14.7-7.92,27.38-18.94c8.05-8.41,12.72-16.61,15.29-22.26
			c1.89-4.38,2.77-7.45,2.77-7.45c-40.06-14.69-106.03,67.69-46.62,84.36C844.38,598.11,854,586.08,860.87,582.71z"/>
		<path class="st0" d="M927.82,561.73c-8.07,12.85-19.69,23.34-33.13,30.27c21.72-4.59,39.28-20.47,46.25-41.21
			c-1.82-1.38-3.68-2.7-5.58-3.96C933.42,552.06,930.78,557.03,927.82,561.73z"/>
		<path class="st0" d="M918.15,566.9c4.76-7.04,8.56-14.78,10.83-22.97c0.08-0.3,0.16-0.6,0.23-0.9c-3.22-1.84-6.55-3.5-9.98-4.94
			c-1.75-0.72-3.54-1.38-5.38-1.99c-1.67,6.34-4.73,12.31-8.26,17.77c-7.65,11.68-18.39,21.1-30.37,28.15
			c-4.85,2.87-9.89,5.36-15.06,7.53c6.71,2.46,13.96,3.81,21.53,3.81c2.5,0,4.4-0.09,6.83-0.37
			C900.11,586.74,910.77,577.8,918.15,566.9z"/>
		<path class="st0" d="M800.45,543.97c1.53-1.39,2.67-2.01,4.69-2.64c-2.18-3.59-3.1-7.7-3.11-11.79c0-0.01-4.88-2.33-6.75-6.94
			c0,0,0,0,0,0C793.07,528.85,793.88,538.51,800.45,543.97z"/>
		<path class="st0" d="M802.23,531.33l0.02,0.05c0-0.02,0-0.04-0.01-0.07C802.24,531.32,802.23,531.32,802.23,531.33z"/>
		<path class="st0" d="M819.33,517.08c0.04-0.01,0.06-0.01,0.06-0.01s-0.03-0.01-0.06-0.03L819.33,517.08z"/>
		<path class="st0" d="M830.81,587.64v-19.37c-11.53,7.19-11.02,20.51-11.02,20.51c0,10.79,10.72,19.9,21.45,23.04
			C835.27,605.05,830.81,601.81,830.81,587.64L830.81,587.64z"/>
	</g>
	<path class="st0" d="M928.09,489.01c-11.44-12.67-27.98-20.63-46.39-20.63c-4.24,0-8.39,0.43-12.39,1.23
		c-24.29,4.99-36.01,21.66-36.01,21.66l-5.7,1.91c14.22-23.94,37.04-26.61,37.04-26.61c-0.4-0.43-0.8-0.85-1.2-1.24
		c-3.14-3.06-7.89-3.76-11.81-1.8c-9,4.49-20.93,10.45-26.11,13.03l-0.07,13.88c-2.24-0.64-4.5-3.23-5.38-5.28
		c-1.51,5.93-0.37,10.77,0.09,12.2c-3.32,2.28-7.84,6.2-9.16,8.32h5.58c-1.26,0.6-15.86,10.48-19.11,13.93
		c1.38,0.04,2.86,0.42,4.99,1.6c0,0,4.56-4.19,10.68-4.19c2.68,0,5.5,0.43,5.2,0.53c-2.68,0.89-5.25,2.4-6.99,3.76
		c0.43,0.67,0.17,0.26,1.27,2.17c0,0-4.38,2.04-7.8,5.04c0.46,3.47,2.04,15.31,15.32,18.31c4.24,0.96,10.56,1.81,10.98,7.44
		l0.04,3.04c-1.46-4.42-5.7-5.23-7.37-5.57c-7-1.22-12.97-2.64-16.93-7.91c-1.61,0.98-9.96,6.5-9.95,15.87
		c0,3.47,0.31,11.08,8.67,16.44v-9.5c0,0,5.37,3.99,5.37,14.58c0.05-0.13,0.11-0.26,0.16-0.4c1.23-9.82,9.54-17.44,19.67-17.6
		c0.42-0.02,0.85-0.03,1.27-0.03h7.43c0,0,18.16-14.71-3.17-38.2c0,0,22.52,13.93,43.43,2.95c-10.16-5.8-15.09-16.14-17.3-24.93
		c4.23-1.73,7.73-2.64,7.73-2.64c1.56-0.43,3.15-0.77,4.75-1.04c-4.55-4.9-15.4-9.08-23.36-9.93c-5.69-0.41-11.59,0.35-11.59,0.35
		c7.91-6.91,25.1-14.27,45.42-14.3C900.5,475.46,915.37,480.86,928.09,489.01z M819.33,517.08l-0.01-0.05
		c0.04,0.02,0.06,0.03,0.06,0.03S819.37,517.07,819.33,517.08z M850.97,509.88c0,0-16.69,1.14-27.23,5.46c0,0,0.57-2.6,6.6-5.46
		l-2.35-4.19h3.49v-3.62h6.03C837.51,502.08,850.97,502.08,850.97,509.88z"/>
</g>
<g>
	<g>
		<path class="st0" d="M992.11,537.29h-5.2v15.77h-10.03v-41.7h15.71c2.42,0,4.59,0.27,6.53,0.82c1.93,0.54,3.59,1.37,4.96,2.48
			c1.37,1.11,2.43,2.48,3.17,4.11c0.75,1.63,1.12,3.54,1.12,5.71c0,2.74-0.57,5.03-1.72,6.86c-1.15,1.83-2.79,3.23-4.93,4.2
			l8.34,17.53h-11L992.11,537.29z M994.16,528.8c0.85-0.1,1.58-0.3,2.21-0.6c0.62-0.3,1.11-0.76,1.45-1.36
			c0.34-0.6,0.51-1.39,0.51-2.36c0-1.01-0.17-1.82-0.51-2.45c-0.34-0.62-0.83-1.11-1.45-1.45c-0.62-0.34-1.36-0.57-2.21-0.69
			c-0.85-0.12-1.77-0.18-2.78-0.18h-4.47v9.25h4.47C992.39,528.95,993.31,528.9,994.16,528.8z"/>
		<path class="st0" d="M1046.89,543.57c-0.83,2.3-1.96,4.19-3.41,5.68c-1.45,1.49-3.18,2.6-5.2,3.32c-2.01,0.73-4.21,1.09-6.59,1.09
			s-4.57-0.36-6.59-1.09c-2.01-0.73-3.75-1.83-5.2-3.32c-1.45-1.49-2.59-3.38-3.41-5.68c-0.83-2.3-1.24-5-1.24-8.1v-6.53
			c0-3.14,0.41-5.86,1.24-8.16c0.83-2.3,1.96-4.18,3.41-5.65c1.45-1.47,3.18-2.57,5.2-3.29c2.01-0.73,4.21-1.09,6.59-1.09
			s4.57,0.36,6.59,1.09c2.01,0.73,3.75,1.82,5.2,3.29c1.45,1.47,2.59,3.35,3.41,5.65c0.83,2.3,1.24,5.02,1.24,8.16v6.53
			C1048.13,538.58,1047.71,541.28,1046.89,543.57z M1026.91,542.97c1.09,1.57,2.68,2.36,4.77,2.36c2.09,0,3.69-0.79,4.77-2.36
			c1.09-1.57,1.63-4.07,1.63-7.49v-6.53c0-3.42-0.54-5.92-1.63-7.49c-1.09-1.57-2.68-2.36-4.77-2.36c-2.1,0-3.69,0.79-4.77,2.36
			c-1.09,1.57-1.63,4.07-1.63,7.49v6.53C1025.28,538.9,1025.83,541.4,1026.91,542.97z"/>
		<path class="st0" d="M1064.74,511.36h9.67l14.5,41.7h-10.7l-2.24-7.13h-12.87l-2.18,7.13h-10.7L1064.74,511.36z M1073.38,537.59
			l-3.81-12.33l-3.87,12.33H1073.38z"/>
		<path class="st0" d="M1108.98,537.29h-5.2v15.77h-10.03v-41.7h15.71c2.42,0,4.59,0.27,6.53,0.82c1.93,0.54,3.59,1.37,4.96,2.48
			c1.37,1.11,2.43,2.48,3.17,4.11c0.75,1.63,1.12,3.54,1.12,5.71c0,2.74-0.57,5.03-1.72,6.86c-1.15,1.83-2.79,3.23-4.93,4.2
			l8.34,17.53h-11L1108.98,537.29z M1111.03,528.8c0.85-0.1,1.58-0.3,2.21-0.6c0.62-0.3,1.11-0.76,1.45-1.36
			c0.34-0.6,0.51-1.39,0.51-2.36c0-1.01-0.17-1.82-0.51-2.45c-0.34-0.62-0.83-1.11-1.45-1.45c-0.62-0.34-1.36-0.57-2.21-0.69
			c-0.85-0.12-1.77-0.18-2.78-0.18h-4.47v9.25h4.47C1109.26,528.95,1110.19,528.9,1111.03,528.8z"/>
	</g>
	<path class="st0" d="M1126.93,561.58H976.88v8.52h116.84C1105.33,570.1,1116.75,567.17,1126.93,561.58L1126.93,561.58z"/>
</g>
</svg>
