<?xml version="1.0" encoding="utf-8"?>
<!-- Generator: Adobe Illustrator 27.8.1, SVG Export Plug-In . SVG Version: 6.00 Build 0)  -->
<svg version="1.1" id="Layer_1" xmlns="http://www.w3.org/2000/svg" xmlns:xlink="http://www.w3.org/1999/xlink" x="0px" y="0px"
	 viewBox="0 0 1920 1080" style="enable-background:new 0 0 1920 1080;" xml:space="preserve">
<style type="text/css">
	.st0{fill:#0A244E;}
	.st1{fill:#FFFFFF;}
</style>
<g>
	<g>
		<path class="st0" d="M930.49,534.95l7.86-25.2h10.94l-14.26,41.7h-9l-14.26-41.7h10.94L930.49,534.95z"/>
		<path class="st0" d="M955.32,551.45v-41.7h10.03v41.7H955.32z"/>
		<path class="st0" d="M1007.9,551.45h-8.1l-15.35-23.09v23.09h-9.43v-41.7H983l15.47,23.39v-23.39h9.43V551.45z"/>
		<path class="st0" d="M1027.24,509.75h9.67l14.5,41.7h-10.7l-2.24-7.13h-12.87l-2.18,7.13h-10.7L1027.24,509.75z M1035.88,535.98
			l-3.81-12.33l-3.87,12.33H1035.88z"/>
		<path class="st0" d="M1071.47,535.68h-5.2v15.77h-10.03v-41.7h15.71c2.42,0,4.59,0.27,6.53,0.82c1.93,0.54,3.59,1.37,4.96,2.48
			c1.37,1.11,2.43,2.48,3.17,4.11c0.75,1.63,1.12,3.54,1.12,5.71c0,2.74-0.57,5.03-1.72,6.86c-1.15,1.83-2.79,3.23-4.93,4.2
			l8.34,17.53h-11L1071.47,535.68z M1073.53,527.19c0.85-0.1,1.58-0.3,2.21-0.6c0.62-0.3,1.11-0.76,1.45-1.36
			c0.34-0.6,0.51-1.39,0.51-2.36c0-1.01-0.17-1.82-0.51-2.45c-0.34-0.62-0.83-1.11-1.45-1.45c-0.62-0.34-1.36-0.57-2.21-0.69
			c-0.85-0.12-1.77-0.18-2.78-0.18h-4.47v9.25h4.47C1071.75,527.34,1072.68,527.29,1073.53,527.19z"/>
		<path class="st0" d="M1096.37,551.45v-41.7h10.03v41.7H1096.37z"/>
		<path class="st0" d="M1148.95,534.59c0,3.1-0.42,5.75-1.27,7.95c-0.85,2.2-2,4-3.47,5.41c-1.47,1.41-3.21,2.45-5.23,3.11
			c-2.01,0.66-4.17,1-6.47,1c-2.3,0-4.45-0.33-6.47-1c-2.01-0.66-3.76-1.7-5.23-3.11c-1.47-1.41-2.63-3.21-3.47-5.41
			c-0.85-2.2-1.27-4.82-1.27-7.89v-24.9h10.03v24.9c0,3.06,0.49,5.34,1.48,6.83c0.99,1.49,2.63,2.24,4.93,2.24
			c2.3,0,3.94-0.75,4.93-2.24c0.99-1.49,1.48-3.77,1.48-6.83v-24.9h10.03V534.59z"/>
		<path class="st0" d="M1176.8,518.33c-1.13-0.56-2.64-0.85-4.53-0.85c-1.69,0-2.91,0.34-3.66,1.03c-0.75,0.69-1.12,1.55-1.12,2.6
			c0,1.25,0.57,2.27,1.72,3.05c1.15,0.79,3.05,1.56,5.71,2.33c2.26,0.64,4.18,1.36,5.77,2.15c1.59,0.79,2.88,1.69,3.87,2.72
			c0.99,1.03,1.71,2.22,2.18,3.57c0.46,1.35,0.69,2.91,0.69,4.68c0,3.79-1.24,6.81-3.72,9.07s-6.09,3.38-10.85,3.38
			c-3.83,0-7.07-0.51-9.73-1.54c-2.66-1.03-4.98-2.79-6.95-5.29l7.49-5.26c1.05,1.29,2.23,2.24,3.54,2.84s2.91,0.91,4.8,0.91
			c1.93,0,3.31-0.35,4.14-1.06c0.83-0.71,1.24-1.56,1.24-2.57c0-0.6-0.12-1.15-0.36-1.63c-0.24-0.48-0.66-0.94-1.27-1.36
			c-0.6-0.42-1.41-0.85-2.42-1.27c-1.01-0.42-2.28-0.88-3.81-1.36c-4.23-1.37-7.3-3.09-9.22-5.17c-1.91-2.08-2.87-4.78-2.87-8.13
			c0-1.73,0.29-3.33,0.88-4.8c0.58-1.47,1.47-2.74,2.66-3.81c1.19-1.07,2.71-1.9,4.56-2.51c1.85-0.6,4.05-0.91,6.59-0.91
			c3.34,0,6.31,0.56,8.88,1.69c2.58,1.13,4.61,2.84,6.1,5.14l-7.43,5.32C1178.9,519.88,1177.93,518.9,1176.8,518.33z"/>
	</g>
	<path class="st0" d="M1188.06,559.97H915.29v8.52h239.57C1166.47,568.49,1177.89,565.56,1188.06,559.97L1188.06,559.97z"/>
</g>
<g>
	<path class="st0" d="M818.39,466.46c-2.72,0-5.41,0.17-8.04,0.5c-3.67-3.6-8.54-5.58-13.69-5.58c-3.03,0-6.07,0.72-8.79,2.07
		l-28.13,14.04c-2.9,1.45-4.74,4.42-4.74,7.66v11.55c-15.41,12.25-19.55,20.54-20.49,22.94l-0.06,0.16l-0.06,0.17
		c-2.45,6.91-2.34,16.48,2.49,24.21c0.08,1.17-0.1,2.36-0.48,3.48c-0.8,2.36-1.26,4.92-1.25,7.64c0.01,12.56,6.73,19.5,12.37,23.11
		l4.31,2.76c1.8,1.15,3.13,2.92,3.65,4.99c1.26,4.99,4.05,9.76,8.13,13.88c8.43,8.51,29.4,14.76,33.08,15.79h0
		c9.93,2.79,17.73-8.63,11.52-16.87v0c-1.49-1.98-2.65-3.87-3.47-5.61l0-0.02c4.4,0.95,8.97,1.46,13.66,1.46
		c35.44,0,64.17-28.73,64.17-64.17S853.83,466.46,818.39,466.46z"/>
	<g>
		<g>
			<path class="st1" d="M807.85,490.05c-0.26,0.07-0.52,0.14-0.78,0.21l-2.18,0.55c-1.7,0.48-3.47,1.08-5.13,1.71
				c6.08,2.06,13.26,6.28,17.43,10.64c2.67-0.19,5.36-0.19,8.01-0.06c11.91,0.67,23.48,4.6,33.81,10.45c4.2,2.36,8.19,5.03,12,7.92
				c-1.46-8.47-4.92-16.26-9.87-22.86c-9.57-5.89-20.45-9.57-31.66-10.37C822.23,487.74,814.87,488.24,807.85,490.05z"/>
			<path class="st1" d="M843.95,510.27c-8.81-2.31-18.15-3.13-27.14-1.58c-2.32,0.4-4.6,0.94-6.79,1.75
				c1.93,6.13,4.93,11.95,9.36,16.47c4.68-0.96,9.59-0.79,14.27-0.13c13.61,2.04,25.87,9.13,36.25,17.99
				c1.23-4.5,1.9-9.24,1.9-14.14c0-2.65-0.2-5.26-0.57-7.81C862.8,517.31,853.67,512.88,843.95,510.27z"/>
			<path class="st1" d="M800.59,574.94c5.87-2.88,12.56-6.77,23.4-16.19c6.88-7.19,10.87-14.19,13.06-19.02
				c1.62-3.74,2.37-6.37,2.37-6.37c-34.23-12.56-90.61,57.84-39.84,72.09C786.5,588.1,794.72,577.82,800.59,574.94z"/>
			<path class="st1" d="M857.81,557.01c-6.9,10.98-16.83,19.94-28.31,25.87c18.56-3.93,33.56-17.49,39.52-35.21
				c-1.56-1.18-3.15-2.31-4.77-3.39C862.59,548.75,860.34,552.99,857.81,557.01z"/>
			<path class="st1" d="M849.54,561.42c4.07-6.02,7.31-12.63,9.25-19.63c0.07-0.25,0.14-0.51,0.2-0.77
				c-2.75-1.57-5.59-2.99-8.53-4.23c-1.49-0.61-3.03-1.18-4.6-1.7c-1.43,5.42-4.04,10.52-7.06,15.18
				c-6.53,9.98-15.72,18.03-25.95,24.05c-4.15,2.45-8.46,4.58-12.87,6.44c5.74,2.1,11.93,3.25,18.4,3.25c2.14,0,3.76-0.07,5.83-0.32
				C834.12,578.38,843.24,570.74,849.54,561.42z"/>
			<path class="st1" d="M748.96,541.83c1.31-1.18,2.28-1.72,4.01-2.25c-1.86-3.07-2.65-6.58-2.65-10.07c0-0.01-4.17-1.99-5.77-5.93
				c0,0,0,0,0,0C742.65,528.91,743.35,537.17,748.96,541.83z"/>
			<path class="st1" d="M750.48,531.03l0.02,0.04c0-0.02,0-0.04-0.01-0.06C750.49,531.02,750.48,531.02,750.48,531.03z"/>
			<path class="st1" d="M765.09,518.85c0.03-0.01,0.05-0.01,0.05-0.01s-0.02-0.01-0.06-0.03L765.09,518.85z"/>
			<path class="st1" d="M774.9,579.15V562.6c-9.85,6.14-9.41,17.53-9.41,17.53c0,9.22,9.16,17,18.33,19.69
				C778.71,594.02,774.9,591.26,774.9,579.15L774.9,579.15z"/>
		</g>
		<path class="st1" d="M858.04,494.87c-9.77-10.82-23.91-17.63-39.64-17.63c-3.63,0-7.17,0.36-10.59,1.05
			c-20.76,4.27-30.77,18.51-30.77,18.51l-4.87,1.63c12.15-20.45,31.65-22.74,31.65-22.74c-0.34-0.37-0.68-0.72-1.03-1.06
			c-2.69-2.61-6.74-3.21-10.09-1.54c-7.69,3.84-17.89,8.93-22.31,11.13l-0.06,11.86c-1.91-0.55-3.85-2.76-4.59-4.51
			c-1.29,5.07-0.32,9.21,0.07,10.43c-2.84,1.95-6.7,5.3-7.83,7.11h4.77c-1.08,0.51-13.55,8.96-16.33,11.9
			c1.18,0.03,2.44,0.36,4.26,1.37c0,0,3.9-3.58,9.12-3.58c2.29,0,4.7,0.37,4.44,0.46c-2.29,0.76-4.48,2.05-5.97,3.21
			c0.37,0.57,0.14,0.22,1.08,1.85c0,0-3.75,1.75-6.67,4.31c0.4,2.97,1.74,13.08,13.09,15.65c3.62,0.82,9.02,1.55,9.38,6.36l0.03,2.6
			c-1.25-3.78-4.87-4.47-6.29-4.76c-5.98-1.04-11.08-2.25-14.47-6.76c-1.37,0.83-8.51,5.55-8.5,13.56c0,2.97,0.26,9.47,7.41,14.05
			v-8.12c0,0,4.59,3.41,4.59,12.46c0.04-0.11,0.09-0.22,0.14-0.34c1.06-8.4,8.15-14.91,16.81-15.04c0.36-0.02,0.72-0.03,1.08-0.03
			h6.35c0,0,15.52-12.57-2.71-32.64c0,0,19.24,11.9,37.11,2.52c-8.68-4.95-12.89-13.79-14.79-21.31c3.61-1.48,6.6-2.26,6.6-2.26
			c1.34-0.36,2.69-0.66,4.06-0.89c-3.89-4.18-13.16-7.76-19.96-8.48c-4.86-0.35-9.9,0.3-9.9,0.3c6.76-5.9,21.45-12.19,38.82-12.22
			C834.46,483.28,847.17,487.9,858.04,494.87z M765.09,518.85l-0.01-0.04c0.03,0.02,0.06,0.03,0.06,0.03
			S765.12,518.85,765.09,518.85z M792.13,512.7c0,0-14.26,0.98-23.27,4.66c0,0,0.49-2.22,5.64-4.66l-2.01-3.58h2.98v-3.09h5.15
			C780.63,506.03,792.13,506.03,792.13,512.7z"/>
	</g>
</g>
</svg>
