<?xml version="1.0" encoding="UTF-8"?>
<svg id="Layer_1" data-name="Layer 1" xmlns="http://www.w3.org/2000/svg" viewBox="0 0 455.38 155.99">
  <defs>
    <style>
      .cls-1 {
        fill: #fff;
        stroke-width: 0px;
      }
    </style>
  </defs>
  <g>
    <g>
      <path class="cls-1" d="m75.18,20.94c-.3.08-.61.16-.91.25l-2.55.64c-1.99.56-4.06,1.26-6,2,7.12,2.41,15.52,7.35,20.39,12.45,3.13-.22,6.27-.22,9.37-.07,13.94.78,27.47,5.38,39.56,12.23,4.91,2.77,9.59,5.89,14.05,9.27-1.71-9.91-5.76-19.02-11.55-26.75-11.2-6.9-23.93-11.2-37.05-12.14-8.48-.6-17.08-.02-25.31,2.11Z"/>
      <path class="cls-1" d="m117.43,44.61c-10.31-2.7-21.24-3.67-31.75-1.84-2.71.47-5.38,1.1-7.94,2.04,2.26,7.18,5.77,13.99,10.95,19.27,5.48-1.12,11.22-.92,16.69-.15,15.93,2.39,30.28,10.68,42.42,21.05,1.44-5.27,2.22-10.82,2.22-16.55,0-3.1-.23-6.15-.67-9.13-9.85-6.46-20.53-11.64-31.91-14.69Z"/>
      <path class="cls-1" d="m66.69,120.28c6.87-3.37,14.7-7.92,27.38-18.94,8.05-8.41,12.72-16.61,15.28-22.26,1.89-4.38,2.77-7.45,2.77-7.45-40.06-14.69-106.03,67.69-46.62,84.36-15.31-20.31-5.69-32.34,1.18-35.71Z"/>
      <path class="cls-1" d="m133.64,99.29c-8.07,12.85-19.69,23.34-33.13,30.27,21.72-4.59,39.28-20.47,46.25-41.21-1.82-1.38-3.68-2.7-5.58-3.96-1.94,5.23-4.58,10.2-7.53,14.89Z"/>
      <path class="cls-1" d="m123.97,104.46c4.76-7.04,8.56-14.78,10.83-22.97.08-.3.16-.6.23-.9-3.22-1.84-6.55-3.5-9.98-4.94-1.75-.72-3.54-1.38-5.38-1.99-1.67,6.34-4.73,12.31-8.26,17.77-7.65,11.68-18.39,21.1-30.37,28.15-4.85,2.87-9.89,5.36-15.06,7.53,6.71,2.46,13.96,3.81,21.53,3.81,2.5,0,4.4-.09,6.83-.37,11.58-6.25,22.25-15.19,29.63-26.09Z"/>
      <path class="cls-1" d="m6.27,81.54c1.53-1.39,2.67-2.01,4.69-2.64-2.18-3.59-3.1-7.7-3.11-11.79,0-.01-4.88-2.33-6.75-6.94,0,0,0,0,0,0-2.21,6.24-1.4,15.9,5.17,21.36Z"/>
      <path class="cls-1" d="m8.05,68.89l.02.05s0-.04,0-.07c0,0,0,.01-.01.02Z"/>
      <path class="cls-1" d="m25.15,54.64s.06-.01.06-.01c0,0-.03-.01-.06-.03v.05Z"/>
      <path class="cls-1" d="m36.63,125.2v-19.37c-11.53,7.19-11.02,20.51-11.02,20.51,0,10.79,10.72,19.9,21.45,23.04-5.97-6.77-10.43-10.01-10.43-24.18h0Z"/>
    </g>
    <path class="cls-1" d="m133.91,26.57c-11.44-12.67-27.98-20.63-46.39-20.63-4.24,0-8.39.43-12.39,1.23-24.29,4.99-36.01,21.66-36.01,21.66l-5.7,1.91C47.63,6.81,70.45,4.14,70.45,4.14c-.4-.43-.8-.85-1.2-1.24-3.14-3.06-7.89-3.76-11.81-1.8-9,4.49-20.93,10.45-26.11,13.03l-.07,13.88c-2.24-.64-4.5-3.23-5.38-5.28-1.51,5.93-.37,10.77.09,12.2-3.32,2.28-7.84,6.2-9.16,8.32h5.58c-1.26.6-15.86,10.48-19.11,13.93,1.38.04,2.86.42,4.99,1.6,0,0,4.56-4.19,10.68-4.19,2.68,0,5.5.43,5.2.53-2.68.89-5.25,2.4-6.99,3.76.43.67.17.26,1.27,2.17,0,0-4.38,2.04-7.8,5.04.46,3.47,2.04,15.31,15.32,18.31,4.24.96,10.56,1.81,10.98,7.44l.04,3.04c-1.46-4.42-5.7-5.23-7.37-5.57-7-1.22-12.97-2.64-16.93-7.91-1.61.98-9.96,6.5-9.95,15.87,0,3.47.31,11.08,8.67,16.44v-9.5s5.37,3.99,5.37,14.58c.05-.13.11-.26.16-.4,1.23-9.82,9.54-17.44,19.67-17.6.42-.02.85-.03,1.27-.03h7.43s18.16-14.71-3.17-38.2c0,0,22.52,13.93,43.43,2.95-10.16-5.8-15.09-16.14-17.3-24.93,4.23-1.73,7.73-2.64,7.73-2.64,1.56-.43,3.15-.77,4.75-1.04-4.55-4.9-15.4-9.08-23.36-9.93-5.69-.41-11.59.35-11.59.35,7.91-6.91,25.1-14.27,45.42-14.3,15.15-.02,30.02,5.38,42.74,13.53ZM25.15,54.64v-.05s.06.03.06.03c0,0-.02,0-.06.01Zm31.64-7.2s-16.69,1.14-27.23,5.46c0,0,.57-2.6,6.6-5.46l-2.35-4.19h3.49v-3.62h6.03s13.45,0,13.45,7.81Z"/>
  </g>
  <g>
    <g>
      <path class="cls-1" d="m197.8,74.13l7.86-25.2h10.94l-14.26,41.7h-9l-14.26-41.7h10.94l7.8,25.2Z"/>
      <path class="cls-1" d="m222.64,90.63v-41.7h10.03v41.7h-10.03Z"/>
      <path class="cls-1" d="m275.22,90.63h-8.1l-15.35-23.09v23.09h-9.43v-41.7h7.98l15.47,23.39v-23.39h9.43v41.7Z"/>
      <path class="cls-1" d="m294.55,48.93h9.67l14.5,41.7h-10.7l-2.24-7.13h-12.87l-2.18,7.13h-10.7l14.5-41.7Zm8.64,26.23l-3.81-12.33-3.87,12.33h7.68Z"/>
      <path class="cls-1" d="m338.79,74.85h-5.2v15.77h-10.03v-41.7h15.71c2.42,0,4.59.27,6.53.82s3.59,1.37,4.96,2.48c1.37,1.11,2.43,2.48,3.17,4.11.75,1.63,1.12,3.54,1.12,5.71,0,2.74-.57,5.03-1.72,6.86-1.15,1.83-2.79,3.23-4.93,4.2l8.34,17.53h-11l-6.95-15.77Zm2.05-8.49c.85-.1,1.58-.3,2.21-.6.62-.3,1.11-.76,1.45-1.36.34-.6.51-1.39.51-2.36s-.17-1.82-.51-2.45c-.34-.62-.83-1.11-1.45-1.45-.62-.34-1.36-.57-2.21-.69-.85-.12-1.77-.18-2.78-.18h-4.47v9.25h4.47c1.01,0,1.93-.05,2.78-.15Z"/>
      <path class="cls-1" d="m363.68,90.63v-41.7h10.03v41.7h-10.03Z"/>
      <path class="cls-1" d="m416.26,73.76c0,3.1-.42,5.75-1.27,7.95-.85,2.2-2,4-3.48,5.41-1.47,1.41-3.21,2.45-5.23,3.11-2.01.66-4.17,1-6.47,1s-4.45-.33-6.47-1c-2.01-.66-3.76-1.7-5.23-3.11-1.47-1.41-2.63-3.21-3.48-5.41-.85-2.2-1.27-4.82-1.27-7.89v-24.9h10.03v24.9c0,3.06.49,5.34,1.48,6.83.99,1.49,2.63,2.24,4.93,2.24s3.94-.75,4.93-2.24c.99-1.49,1.48-3.77,1.48-6.83v-24.9h10.03v24.84Z"/>
      <path class="cls-1" d="m444.12,57.51c-1.13-.56-2.64-.85-4.53-.85-1.69,0-2.91.34-3.66,1.03-.75.69-1.12,1.55-1.12,2.6,0,1.25.57,2.27,1.72,3.05s3.05,1.56,5.71,2.33c2.26.64,4.18,1.36,5.77,2.15,1.59.79,2.88,1.69,3.87,2.72.99,1.03,1.71,2.22,2.18,3.57.46,1.35.69,2.91.69,4.68,0,3.79-1.24,6.81-3.72,9.07s-6.09,3.38-10.85,3.38c-3.83,0-7.07-.51-9.73-1.54-2.66-1.03-4.98-2.79-6.95-5.29l7.49-5.26c1.05,1.29,2.23,2.24,3.54,2.84,1.31.6,2.91.91,4.8.91s3.31-.35,4.14-1.06c.83-.71,1.24-1.56,1.24-2.57,0-.6-.12-1.15-.36-1.63-.24-.48-.66-.94-1.27-1.36-.6-.42-1.41-.85-2.42-1.27-1.01-.42-2.28-.88-3.81-1.36-4.23-1.37-7.3-3.09-9.22-5.17-1.91-2.07-2.87-4.78-2.87-8.13,0-1.73.29-3.33.88-4.8.58-1.47,1.47-2.74,2.66-3.81s2.71-1.9,4.56-2.51c1.85-.6,4.05-.91,6.59-.91,3.34,0,6.31.56,8.88,1.69,2.58,1.13,4.61,2.84,6.1,5.14l-7.43,5.32c-.81-1.41-1.77-2.4-2.9-2.96Z"/>
    </g>
    <path class="cls-1" d="m455.38,99.15H182.6v8.52h239.57c11.61,0,23.03-2.93,33.21-8.52h0Z"/>
  </g>
</svg>