<?xml version="1.0" encoding="utf-8"?>
<!-- Generator: Adobe Illustrator 27.8.1, SVG Export Plug-In . SVG Version: 6.00 Build 0)  -->
<svg version="1.1" xmlns="http://www.w3.org/2000/svg" xmlns:xlink="http://www.w3.org/1999/xlink" x="0px" y="0px"
	 viewBox="0 0 600 600" style="enable-background:new 0 0 600 600;" xml:space="preserve">
<g id="BG">
</g>
<g id="Layer_4">
</g>
<g id="Layer_5">
</g>
<g id="Layer_3">
	<g>
		<path d="M541.02,87.65c-10.24-10.88-24.77-17.15-39.74-17.15H453.6c0.19-8.58,0.32-17.41,0.32-26.5H146.4
			c0,9.09,0.13,17.92,0.32,26.5h-48c-14.98,0-29.5,6.27-39.74,17.15c-10.37,10.94-15.74,25.92-14.85,41.09
			c8.58,142.98,82.37,232.7,199.36,246.02l-22.66,78.85c-26.94,0-48.77,21.82-48.77,48.77V556h256.26v-53.63
			c0-26.94-21.82-48.77-48.77-48.77l-22.66-78.85c116.74-13.44,190.46-103.1,198.98-246.02C556.77,113.63,551.39,98.66,541.02,87.65
			L541.02,87.65z M95.26,125.66c-0.06-1.41,0.51-2.37,1.02-2.88c0.96-1.02,2.11-1.02,2.43-1.02h50.43
			c7.62,100.67,29.82,157.76,51.39,190.02C118.43,277.34,98.85,185.38,95.26,125.66z M399.78,311.58
			c21.57-32.32,43.71-89.34,51.33-189.89h50.24c0.38,0,1.47,0,2.43,1.02c0.51,0.51,1.09,1.47,1.02,2.88
			C501.15,185.31,481.63,277.02,399.78,311.58L399.78,311.58z"/>
	</g>
</g>
<g id="Guide">
</g>
</svg>
