<?xml version="1.0" encoding="utf-8"?>
<!-- Generator: Adobe Illustrator 27.8.1, SVG Export Plug-In . SVG Version: 6.00 Build 0)  -->
<svg version="1.1" xmlns="http://www.w3.org/2000/svg" xmlns:xlink="http://www.w3.org/1999/xlink" x="0px" y="0px"
	 viewBox="0 0 600 600" style="enable-background:new 0 0 600 600;" xml:space="preserve">
<g id="BG">
</g>
<g id="Layer_4">
</g>
<g id="Layer_5">
</g>
<g id="Layer_3">
	<g>
		<path d="M196.45,560.95c49.51-10.3,123.72-40.16,149-133.17c0.63-2.33,2.75-4.31,4.93-4.91c23.13-6.38,48.25-20.34,57.98-40.06
			c9.77-19.81,5.02-38.89-9.47-53.24c-3.53,3.84-7.31,7.46-11.57,10.36c-29.83,20.29-74.14,18.76-68.36,16.94
			c23.69-6.99,60.35-22.02,73.61-43.39c0.54-1.81,1.49-3.48,2.73-4.9c7.45-14.79,8-33.09,5.44-48.92
			c-2.7-15.82-11.53-28.68-26.78-33.6c-6.93-2.34-15.17-3.26-22.29-2.49c-0.07,0-0.14,0-0.21,0c-1.51,4.58-3.87,8.91-6.1,13.47
			c-21.55,43.96-67.68,55.37-66,53.51c4.77-5.43,78.17-53.35,53.2-106.82c-3.95-8.45-9.25-14.82-15.39-19.39
			c1.35-22.98-11.72-31.58-11.72-31.58c-2.1,5.81-6.49,14.46-10.92,22.64c-8.26-1.07-16.85-0.26-25.01,2.03
			c-25.89,6.19-38.13,33.37-45.61,58.01c-4.08,13.23-6.64,27.45-7.91,41.27c0,0-18.98-42.05,13.02-87.36
			c-5.76-4.86-11.92-7.68-17.72-9.37c5.15-13.24,14.93-27.14,14.93-27.14c-25.78-1.33-40.21,14.65-47.3,26.43
			c-10.42,2.62-20.08,8.04-26.86,16.15c-7.56,8.77-10.93,20.53-11.13,32.1c-0.13,9.54-5.6,39.42-7.27,44.74
			c0,0-9.85,35.6-27.24,56.32c0,0,15.5-30.67,14.36-57.51c-32.68,0.16-53.76,25.93-58.41,49.9c-4.52,22.28-3.34,45.99-1.97,68.82
			c0.49,6.48,0.87,13.04,0.49,19.53c-1.64,28.2-12.07,56.08-27.52,80c-9.61,14.88-7,34.54,6.24,46.31
			C64.64,537.84,113.22,565.9,196.45,560.95z"/>
		<g>
			<path d="M294.99,98.77c-4.68,0-8.48-3.8-8.48-8.48V28.37c0-4.68,3.8-8.48,8.48-8.48s8.48,3.8,8.48,8.48v61.91
				C303.47,94.97,299.67,98.77,294.99,98.77z"/>
			<path d="M168.27,90.06c-2.17,0-4.34-0.83-6-2.48L118.5,43.8c-3.31-3.31-3.31-8.68,0-12c3.31-3.31,8.68-3.31,12,0l43.78,43.78
				c3.31,3.31,3.31,8.68,0,12C172.62,89.23,170.44,90.06,168.27,90.06z"/>
			<path d="M421.7,90.06c-2.17,0-4.34-0.83-6-2.48c-3.31-3.31-3.31-8.68,0-12l43.78-43.78c3.31-3.31,8.68-3.31,12,0
				c3.31,3.31,3.31,8.68,0,12L427.7,87.57C426.04,89.23,423.87,90.06,421.7,90.06z"/>
		</g>
	</g>
	<g>
		<path d="M322.69,513.56c0.67-0.78,1.34-1.54,1.99-2.29C320.82,508.39,320.06,508.47,322.69,513.56z"/>
		<path d="M555.36,442.5c-0.37-0.88-0.74-1.77-1.09-2.67c-12.02-30.48-13.17-63.77-11.61-95.75c2.57-27.11,2.04-65.49-19.51-84.7
			c-2.71-20.95-16.5-32.59-16.5-32.59c-8.67,7.16-11.72,16.83-12.79,22.88c-6.53,0.21-14,1.76-21.44,6.09c0,0,5.97-68.35-51.1-88.56
			c-7.48-2.65-15.27-3.93-23.04-4.05c-4.85-9.99-16.75-26.14-43.27-27.53c0,0,12.13,18.41,12.57,33.21
			c-3.32,1.3-6.57,2.79-9.69,4.49c-1.64,0.85-3.48,2.07-4.78,3.03c-0.96,0.66-1.93,1.17-2.89,1.57c2.48,6.41,4.01,13.17,4.48,20.07
			c13.8,0.42,27.83,4.47,39.22,12.27c4.63-4.76,14.77-16.17,18.68-28.36c0,0,25.08,19.04,0.03,49.47
			c9.13,17.49,9.25,37.55,6.41,56.3c-0.94,6.77-2.89,13.4-5.65,19.69c0.19,0.16,0.38,0.3,0.57,0.48c3.76,3.81,7.06,8.02,9.88,12.52
			c6.77-3.57,16.09-9.4,22.22-16.95c0,0,14.6,23.83-12.45,42.69c0.14,0.86,0.27,1.72,0.38,2.59c4.9,43.85-23.59,71.54-72.63,94.5
			c-7.9,33.26-17.68,46.15-36.68,68.08c15.19,11.36,78.46,68.84,171.77,48.21C548.54,547.97,576.21,491.61,555.36,442.5z"/>
	</g>
</g>
<g id="Guide">
</g>
</svg>
