<?xml version="1.0" encoding="utf-8"?>
<!-- Generator: Adobe Illustrator 27.8.1, SVG Export Plug-In . SVG Version: 6.00 Build 0)  -->
<svg version="1.1" xmlns="http://www.w3.org/2000/svg" xmlns:xlink="http://www.w3.org/1999/xlink" x="0px" y="0px"
	 viewBox="0 0 600 600" style="enable-background:new 0 0 600 600;" xml:space="preserve">
<style type="text/css">
	.st0{fill:none;}
</style>
<g id="BG">
</g>
<g id="Layer_4">
</g>
<g id="Layer_5">
</g>
<g id="Layer_3">
	<g>
		<circle class="st0" cx="468.04" cy="444.1" r="24"/>
		<path class="st0" d="M468.04,468.1c-22.09,0-40,17.91-40,40h80C508.04,486.01,490.13,468.1,468.04,468.1z"/>
		<path class="st0" d="M132.04,132.1C132.04,132.1,132.04,132.1,132.04,132.1c-22.09,0-40,17.91-40,40l0,0
			C92.04,150.01,109.95,132.1,132.04,132.1z"/>
		<path class="st0" d="M143.93,133.9c-3.76-1.17-7.75-1.8-11.89-1.8c0,0,0,0,0,0C136.18,132.1,140.18,132.73,143.93,133.9z"/>
		<polygon points="132.04,132.1 132.04,132.1 132.04,132.1 132.04,132.1 		"/>
		<path class="st0" d="M108.04,108.1c0-13.25,10.75-24,24-24c2.49,0,4.88,0.38,7.14,1.08c-2.25-0.7-4.65-1.08-7.14-1.08
			C118.79,84.1,108.04,94.85,108.04,108.1c0,10.77,7.09,19.88,16.86,22.92C115.13,127.98,108.04,118.87,108.04,108.1z"/>
		<g>
			<path class="st0" d="M143.93,133.9c-3.76-1.17-7.75-1.8-11.89-1.8c13.25,0,24-10.75,24-24c0-10.77-7.09-19.88-16.86-22.92
				c-2.25-0.7-4.65-1.08-7.14-1.08c-13.25,0-24,10.75-24,24c0,10.77,7.09,19.88,16.86,22.92c2.25,0.7,4.65,1.08,7.14,1.08
				c-22.09,0-40,17.91-40,40h80C172.04,154.15,160.22,138.96,143.93,133.9z"/>
			<path class="st0" d="M468.04,468.1c-22.09,0-40,17.91-40,40h80C508.04,486.01,490.13,468.1,468.04,468.1z"/>
			<circle class="st0" cx="468.04" cy="444.1" r="24"/>
			<circle class="st0" cx="300.04" cy="268.1" r="32"/>
			<path class="st0" d="M300.04,308.1c-26.51,0-48,21.49-48,48h96C348.04,329.59,326.55,308.1,300.04,308.1z"/>
			<path d="M513.07,411.83c-12.79-10.2-28.67-15.75-45.03-15.72c-16.33-0.01-32.18,5.55-44.91,15.78l-31.39-31.39
				c18.13-20.65,29.4-47.47,30.25-76.9l71.78-2.69c4.83,12.4,18.79,18.54,31.19,13.72c12.4-4.83,18.54-18.79,13.72-31.19
				s-18.79-18.54-31.19-13.72c-6.8,2.65-12.04,8.23-14.24,15.19l-71.83,2.66c-3.85-37.98-25.1-70.81-55.66-90.39l10.49-19.07
				c21.18,6.6,43.69-5.22,50.29-26.39c6.6-21.17-5.22-43.69-26.39-50.29c-21.17-6.6-43.69,5.22-50.29,26.39
				c-4.8,15.39,0.08,32.16,12.38,42.59l-10.48,19.06c-15.71-7.37-33.25-11.49-51.75-11.49c-30.84,0-59,11.44-80.48,30.31
				l-31.25-31.26c24.86-31.11,19.79-76.47-11.31-101.33c-31.1-24.86-76.47-19.79-101.33,11.31
				c-24.86,31.11-19.79,76.47,11.31,101.33c26.32,21.03,63.7,21.03,90.02,0l31.25,31.26c-18.83,21.48-30.25,49.61-30.25,80.42
				c0,8.23,0.82,16.27,2.37,24.05l-60.59,16.31c-8.81-15.18-28.26-20.34-43.45-11.53c-15.18,8.81-20.34,28.26-11.53,43.45
				c8.81,15.18,28.27,20.34,43.45,11.53c9.86-5.73,15.9-16.3,15.82-27.7v-0.32l60.46-16.27c9.54,27.9,28.91,51.24,53.97,65.91l0,0
				l-12.39,24.78c-25.47-7.89-52.5,6.37-60.39,31.83c-7.89,25.47,6.37,52.5,31.83,60.39s52.5-6.37,60.39-31.83
				c6.09-19.66-0.96-41.01-17.55-53.19l12.41-24.82c14.52,6.1,30.48,9.47,47.22,9.47c30.82,0,58.97-11.43,80.45-30.28l31.43,31.43
				c-24.8,31.08-19.72,76.38,11.36,101.19s76.38,19.72,101.19-11.36S544.15,436.63,513.07,411.83z M92.04,172.1
				c0-22.09,17.91-40,40-40c-2.48,0-4.88-0.38-7.14-1.08c-9.77-3.04-16.86-12.15-16.86-22.92c0-13.25,10.75-24,24-24
				c2.49,0,4.88,0.38,7.14,1.08c9.77,3.04,16.86,12.15,16.86,22.92c0,13.25-10.74,24-24,24c4.14,0,8.14,0.63,11.89,1.8
				c16.28,5.06,28.1,20.25,28.1,38.2H92.04z M300.04,236.1c17.67,0,32,14.33,32,32c0,17.67-14.33,32-32,32c-17.67,0-32-14.33-32-32
				C268.04,250.43,282.37,236.1,300.04,236.1z M252.04,356.1c0-26.51,21.49-48,48-48c26.51,0,48,21.49,48,48H252.04z M428.04,508.1
				c0-22.09,17.91-40,40-40c-13.25,0-24-10.75-24-24c0-13.25,10.75-24,24-24s24,10.75,24,24c0,13.25-10.75,24-24,24
				c22.09,0,40,17.91,40,40H428.04z"/>
		</g>
		<path d="M124.9,131.02c2.25,0.7,4.65,1.08,7.14,1.08c0,0,0,0,0,0C129.55,132.1,127.16,131.72,124.9,131.02z"/>
		<path d="M156.04,108.1c0,13.25-10.75,24-24,24c0,0,0,0,0,0C145.3,132.1,156.04,121.36,156.04,108.1
			c0-10.77-7.09-19.88-16.86-22.92C148.95,88.22,156.04,97.33,156.04,108.1z"/>
		<path d="M143.93,133.9c16.28,5.06,28.1,20.25,28.1,38.2h-80l0,0h80C172.04,154.15,160.22,138.96,143.93,133.9z"/>
	</g>
</g>
<g id="Guide">
</g>
</svg>
