<?xml version="1.0" encoding="utf-8"?>
<!-- Generator: Adobe Illustrator 27.8.1, SVG Export Plug-In . SVG Version: 6.00 Build 0)  -->
<svg version="1.1" xmlns="http://www.w3.org/2000/svg" xmlns:xlink="http://www.w3.org/1999/xlink" x="0px" y="0px"
	 viewBox="0 0 600 600" style="enable-background:new 0 0 600 600;" xml:space="preserve">
<g id="BG">
</g>
<g id="Layer_4">
</g>
<g id="Layer_5">
</g>
<g id="Layer_3">
	<g>
		<path d="M344,303.07l200.55-179.86c-6.14-3.58-13.11-5.47-20.21-5.5H75.66c-7.1,0.02-14.07,1.92-20.21,5.5l200.54,179.86
			C280.72,326.32,319.27,326.32,344,303.07L344,303.07z M561.67,140.55L405.73,280.41l157.08,176.91
			c4.02-7.81,6.11-16.47,6.09-25.25V167.92C568.95,158.32,566.45,148.88,561.67,140.55L561.67,140.55z M38.33,140.55
			c-4.78,8.33-7.27,17.77-7.24,27.37v264.15c-0.02,8.78,2.07,17.44,6.09,25.25l157.08-176.91L38.33,140.55z"/>
		<path d="M358.15,323.08c-32.69,30.71-83.62,30.71-116.3,0l-29.7-26.64L53.25,475.42c6.64,4.44,14.43,6.83,22.42,6.86h448.67
			c7.98-0.03,15.78-2.42,22.42-6.86L387.86,296.44L358.15,323.08z"/>
	</g>
</g>
<g id="Guide">
</g>
</svg>
