<?xml version="1.0" encoding="UTF-8"?>
<svg xmlns="http://www.w3.org/2000/svg" viewBox="0 0 600 600">
  <path d="m529.19,104.68h-40.57V17.3h-53.04v87.38h-109.13V17.3h-53.04v87.38h-109.26V17.3h-53.04v87.38h-40.44C31.69,104.68,0,136.38,0,175.36v336.66C0,551.01,31.69,582.7,70.67,582.7h458.65c38.98,0,70.67-31.69,70.67-70.67V175.49c-.13-39.12-31.69-70.81-70.81-70.81Zm0,424.97H70.67c-9.68,0-17.64-7.96-17.64-17.64V226.54h493.79v285.48c0,9.68-7.96,17.64-17.64,17.64Z"/>
  <path d="m405.61,344.42l-60.6-8.75c-3.58-.53-6.63-2.78-8.22-5.97l-27.05-54.9c-3.98-8.09-15.65-8.09-19.76.13l-27.05,54.9c-1.59,3.18-4.64,5.44-8.22,5.97l-60.6,8.75c-9.02,1.33-12.6,12.33-6.1,18.7l43.62,42.56c2.65,2.52,3.85,6.1,3.18,9.68l-10.34,60.33c-1.59,8.88,7.82,15.78,15.91,11.54l54.23-28.51c3.18-1.72,7.03-1.72,10.21,0l54.23,28.51c8.09,4.24,17.5-2.52,15.91-11.54l-10.34-60.33c-.53-3.58.53-7.16,3.18-9.68l43.89-42.7c6.5-6.36,2.92-17.37-6.1-18.7Z"/>
</svg>
