<?xml version="1.0" encoding="utf-8"?>
<!-- Generator: Adobe Illustrator 27.8.1, SVG Export Plug-In . SVG Version: 6.00 Build 0)  -->
<svg version="1.1" xmlns="http://www.w3.org/2000/svg" xmlns:xlink="http://www.w3.org/1999/xlink" x="0px" y="0px"
	 viewBox="0 0 600 600" style="enable-background:new 0 0 600 600;" xml:space="preserve">
<style type="text/css">
	.st0{fill:#152348;}
</style>
<g id="BG">
</g>
<g id="Layer_4">
</g>
<g id="Layer_5">
</g>
<g id="Layer_3">
	<g>
		<g>
			<path d="M243.67,482.79c-6.64-1.68-14.03-3.66-22.48-6.03c-49.59-14.25-91.27-29.2-126.98-45.56l38.83-90.9
				c35.24,55.3,78.22,104.21,121.22,137.96L243.67,482.79z"/>
			<path class="st0" d="M134.92,361.36c27.59,40.68,59.14,77.38,91.45,106.47c-0.79-0.22-1.6-0.45-2.41-0.67
				c-45.06-12.96-83.46-26.46-116.69-41.06l14.38-33.66L134.92,361.36 M131.43,318.63c-16.58,38.82-33.9,79.36-50.21,117.53
				c45.27,21.62,94.78,38.01,137.28,50.23c8.46,2.37,17.31,4.76,26.01,6.92l29.65-12.67C220.55,442.74,168.98,381.66,131.43,318.63
				L131.43,318.63z"/>
		</g>
		<g>
			<path d="M72.01,554.39c-6.58,0-13.01-3.56-16.8-9.29c-2.19-3.32-5.31-10.18-1.59-18.88l22.96-53.73
				c25.54,15.61,54.1,30.78,85.24,45.28l-81.73,34.91C77.42,553.81,74.71,554.39,72.01,554.39
				C72.01,554.39,72.01,554.39,72.01,554.39z"/>
			<path class="st0" d="M81.26,486.96c17.52,10.33,36.33,20.44,56.31,30.28l-61.42,26.24c-1.41,0.6-2.81,0.91-4.15,0.91
				c-3.26,0-6.49-1.84-8.45-4.8c-1.32-2-2.53-5.27-0.74-9.44l3.51-8.21L81.26,486.96 M71.96,457.83
				c-9.84,23.03-19.16,44.85-27.54,64.46c-8.95,20.96,7.35,42.1,27.58,42.1c3.91,0,7.96-0.79,12.01-2.52l102.63-43.85
				C148.79,501.37,108.41,481,71.96,457.83L71.96,457.83z"/>
		</g>
		<g>
			<path d="M451.04,146.37c14.78-18.87,30.18-33.9,46.52-45.45c11.95-8.32,23.7-13.68,35.87-16.36l0.11-0.02
				c0.47-0.11,0.95-0.17,1.43-0.17c2.93,0,5.52,2.08,6.14,4.95c0.54,2.39-0.45,4.19-1.08,5.06c-1.09,1.48-2.71,2.41-4.45,2.56
				c-10.81,0.96-22.53,4.68-33.96,10.74C484.79,116.58,468.91,128.69,451.04,146.37z"/>
			<path class="st0" d="M534.96,74.37c-1.22,0-2.45,0.14-3.69,0.42c-14.53,3.2-27.66,9.73-39.49,17.96
				c-31.88,22.54-56.89,55.54-76.57,88.78c-2.89,5.4,1.46,10.35,6.13,10.35c1.91,0,3.88-0.83,5.42-2.79
				c7.34-9.75,15.5-19.21,23.89-28.09c16.58-17.3,34.49-33.32,55.64-44.5c10.01-5.31,20.43-8.75,30.09-9.61
				c9.69-0.8,16.62-10.21,14.47-19.71C549.21,79.57,542.45,74.37,534.96,74.37L534.96,74.37z"/>
		</g>
		<g>
			<rect x="447.14" y="37.44" width="10.52" height="10.52"/>
			<polygon class="st0" points="467.66,27.44 437.14,27.44 437.14,57.97 467.66,57.97 467.66,27.44 			"/>
		</g>
		<g>
			<rect x="230.31" y="68.51" width="10.52" height="10.52"/>
			<polygon class="st0" points="250.83,58.51 220.31,58.51 220.31,89.04 250.83,89.04 250.83,58.51 			"/>
		</g>
		<g>
			<rect x="523.53" y="164.96" transform="matrix(0.7071 -0.7071 0.7071 0.7071 34.5182 423.7713)" width="10.52" height="10.52"/>
			<polygon class="st0" points="528.8,148.63 507.21,170.22 528.8,191.8 550.38,170.22 528.8,148.63 			"/>
		</g>
		<g>
			
				<rect x="527.05" y="365.26" transform="matrix(0.7071 -0.7071 0.7071 0.7071 -106.0871 484.9256)" width="10.52" height="10.52"/>
			<polygon class="st0" points="532.31,348.94 510.73,370.52 532.31,392.11 553.9,370.52 532.31,348.94 			"/>
		</g>
		<g>
			<path d="M415.97,228.42C415.97,228.42,415.97,228.42,415.97,228.42c0.01,0.01,0.01,0.01,0.02,0.02
				C415.98,228.44,415.97,228.43,415.97,228.42z"/>
			<path class="st0" d="M415.97,228.42C415.97,228.42,415.97,228.42,415.97,228.42c0.01,0.01,0.01,0.01,0.02,0.02
				C415.98,228.44,415.97,228.43,415.97,228.42L415.97,228.42z"/>
		</g>
		<path d="M561.39,251.52c-5.58-19.54-23.03-33.43-42.28-38.33c-18.99-4.51-38.64,1.4-55.11,10.46
			c-20.73,11.43-38.08,27.76-52.1,46.44c-0.03,0.04-0.05,0.07-0.08,0.11c-0.95,1.27-1.88,2.54-2.8,3.83
			c-0.06,0.09-0.13,0.17-0.19,0.26c-0.98,1.37-1.93,2.75-2.87,4.15c-0.81,1.22-1.61,2.45-2.39,3.69c-3.4,5.37-6.54,10.9-9.27,16.66
			c-1.17,2.46-2.18,4.79-3.18,7.41c0,0-13.58-36.67,24.84-77.77c-5.85-6.58-12.02-13.13-18.49-19.6
			c-6.47-6.47-13.02-12.63-19.61-18.48c-41.09,38.41-77.76,24.83-77.76,24.83c2.62-1,4.94-2.01,7.41-3.18
			c7.09-3.35,13.84-7.33,20.35-11.66c1.39-0.94,2.77-1.9,4.14-2.87c0.19-0.13,0.37-0.27,0.55-0.4c1.18-0.85,2.36-1.7,3.53-2.58
			c0.13-0.09,0.25-0.19,0.37-0.29c1.22-0.92,2.44-1.85,3.64-2.8c0.03-0.03,0.06-0.05,0.1-0.08c17.01-13.45,31.83-29.79,42.44-49.02
			c9.06-16.47,14.97-36.12,10.46-55.11c-4.9-19.25-18.79-36.7-38.33-42.28c-17.2-4.87-35.12-1.3-50.23,7.21
			c-5.17,3.03-2.34,10.76,3.61,9.87c15.41-0.83,34.28,0.04,44.59,13.05c3.3,4.19,5.36,9.8,6.56,15.12
			c2.84,15.03-8.49,31.76-17.09,43.56c-4.62,6.23-9.56,12.35-14.62,18.41c-49.04-31.1-93.38-40.99-113.16-21.21
			c-2.62,2.62-4.71,5.68-6.31,9.11c-0.07-0.14-0.15-0.29-0.21-0.43c-8.41,19.69-41.57,97.31-52.05,121.84
			c25.1,67.32,62.41,131.33,111.37,183.82c8.89,9.27,18.3,18.12,28.24,26.28l84.48-36.09C286,358.82,220.94,218.12,220.9,218.03
			c15.01,30.29,39.59,64.07,71.45,95.93c65.51,65.51,139.18,100.28,173.85,84.26l0,0l0,0c3.47-1.6,6.55-3.71,9.19-6.35
			c19.78-19.78,9.89-64.12-21.21-113.16c6.06-5.06,12.17-10,18.41-14.62c11.81-8.6,28.54-19.93,43.56-17.09
			c5.32,1.2,10.93,3.26,15.12,6.56c13.01,10.31,13.88,29.18,13.05,44.59c-0.89,5.94,6.84,8.78,9.87,3.61
			C562.69,286.63,566.26,268.72,561.39,251.52z"/>
	</g>
</g>
<g id="Guide">
</g>
</svg>
