<?xml version="1.0" encoding="utf-8"?>
<!-- Generator: Adobe Illustrator 27.8.1, SVG Export Plug-In . SVG Version: 6.00 Build 0)  -->
<svg version="1.1" xmlns="http://www.w3.org/2000/svg" xmlns:xlink="http://www.w3.org/1999/xlink" x="0px" y="0px"
	 viewBox="0 0 600 600" style="enable-background:new 0 0 600 600;" xml:space="preserve">
<g id="BG">
</g>
<g id="Layer_4">
</g>
<g id="Layer_5">
</g>
<g id="Layer_3">
	<path d="M460.18,344.42l7.48,3.66c-2.1-1.9-4.43-3.28-6.8-4.27C460.63,344.03,460.41,344.24,460.18,344.42z"/>
	<path d="M483.34,346.1c0.09-1.38,0.12-2.89,0.06-4.53c-0.05,1.54-0.18,2.93-0.34,4.16C483.16,345.85,483.25,345.98,483.34,346.1z"
		/>
	<g>
		<path d="M441.23,59.7c-36.6-39.44-96.14-39.44-132.73,0l-8.5,9.16l-8.49-9.16c-36.59-39.45-96.13-39.45-132.72,0
			c-35.85,38.64-36.08,99.89-0.54,142.48c32.41,38.83,128.01,122.71,132.07,126.26c2.64,2.32,5.95,3.59,9.36,3.59l0.32-0.01
			c3.41,0.17,6.84-1.09,9.68-3.58c4.06-3.55,99.67-87.44,132.09-126.27C477.3,159.59,477.07,98.34,441.23,59.7L441.23,59.7z"/>
	</g>
	<path d="M540.32,228.87L540.32,228.87L540.32,228.87c0.01,0,3.64-12.34-10.86-24.18l-5.24,17.85l0,0l0,0
		c-9.94-1.52-17.5,2.22-22.97,7.26c-0.01-0.01-4.14-3.59-10.47-5.35c-2.15-4-7.41-10.35-19.62-12.74l2.93,13.94
		c-0.45,0.2-0.89,0.41-1.34,0.65c-15.14,7.84-27.48,31.73-19.88,62.47c5.65,22.88-8.48,40.85-9.65,43.96c0,0,10.04-5.95,22.95,0.23
		c4.91-9.39,8.08-21.95,8.08-21.95c7.9,12.06,9.41,23.04,9.15,30.55c0.06,1.64,0.02,3.15-0.06,4.53
		c9.87,13.06,10.98,32.03,3.38,54.08c-7.61,22.07-21.53,31.35-31.8,35.25c-3.44,1.31-6.29-2.93-3.77-5.6
		c10.52-11.12,26.29-32.57,25.12-60.18c-0.45-10.67-3.98-17.38-8.61-21.56l-7.48-3.66c0.23-0.19,0.45-0.4,0.68-0.61
		c-9.08-3.8-18.79-1.93-18.79-1.93c-12.24,3.65-22.41,15.48-31.29,30.95c-14.5,25.27-26.24,36.67-59.12,61.93
		c-47.67,36.63-28.93,141.07-28.93,141.07l136.13,3.91l21.21-86.05c6.33-9.98,12.85-17.1,17.66-23.12
		c13.09-16.4,81.36-69.96,82.55-134.04c0.29-15.78-2.41-27.36-6.65-35.85c2.45-3.29,6.62-11.37,2.2-24.54l-12.57,11.1
		c-1.29-1.09-2.61-2.06-3.94-2.93C559.32,284.32,570.51,243.43,540.32,228.87 M479.38,297.8c-9.89-2.76-13.99-19.04-9.16-36.35
		s16.77-29.12,26.66-26.36s13.99,19.04,9.16,36.35C501.2,288.76,489.27,300.56,479.38,297.8z M533.47,327.32
		c-6.84,16.62-20.09,26.93-29.58,23.03c-9.5-3.91-11.65-20.55-4.81-37.18c6.84-16.62,20.09-26.93,29.58-23.03
		C538.16,294.05,540.31,310.7,533.47,327.32z"/>
	<path d="M139.82,344.42l-7.48,3.66c2.1-1.9,4.43-3.28,6.8-4.27C139.37,344.03,139.59,344.24,139.82,344.42z"/>
	<path d="M116.66,346.1c-0.09-1.38-0.12-2.89-0.06-4.53c0.05,1.54,0.18,2.93,0.34,4.16C116.84,345.85,116.75,345.98,116.66,346.1z"
		/>
	<path d="M59.68,228.87c-30.19,14.56-19,55.45-19,55.45c-1.33,0.86-2.65,1.83-3.94,2.93l-12.57-11.1
		c-4.42,13.17-0.25,21.24,2.2,24.54c-4.24,8.49-6.94,20.06-6.65,35.85c1.18,64.08,69.45,117.64,82.55,134.04
		c4.81,6.03,11.33,13.15,17.66,23.12l21.21,86.05l136.13-3.91c0,0,18.74-104.44-28.93-141.07c-32.88-25.26-44.62-36.66-59.12-61.93
		c-8.88-15.47-19.05-27.31-31.29-30.95c0,0-9.71-1.86-18.79,1.93c0.22,0.21,0.45,0.42,0.68,0.61l-7.48,3.66
		c-4.63,4.18-8.15,10.89-8.61,21.56c-1.18,27.61,14.6,49.05,25.12,60.18c2.53,2.67-0.33,6.91-3.77,5.6
		c-10.28-3.9-24.19-13.18-31.8-35.25c-7.61-22.05-6.5-41.02,3.38-54.08c-0.09-1.38-0.12-2.89-0.06-4.53
		c-0.26-7.51,1.26-18.49,9.15-30.55c0,0,3.17,12.56,8.08,21.95c12.91-6.18,22.95-0.23,22.95-0.23c-1.17-3.11-15.3-21.08-9.65-43.96
		c7.59-30.73-4.74-54.63-19.88-62.47c-0.45-0.23-0.9-0.45-1.34-0.65l2.93-13.94c-12.21,2.38-17.47,8.74-19.62,12.74
		c-6.32,1.76-10.46,5.35-10.47,5.35c-5.48-5.04-13.04-8.78-22.97-7.26l0,0l0,0l-5.24-17.85C56.04,216.54,59.67,228.87,59.68,228.87
		L59.68,228.87L59.68,228.87 M93.96,271.45c-4.83-17.32-0.73-33.59,9.16-36.35s21.83,9.04,26.66,26.36
		c4.83,17.32,0.73,33.59-9.16,36.35S98.8,288.76,93.96,271.45z M71.34,290.15c9.5-3.91,22.74,6.4,29.58,23.03
		c6.84,16.62,4.69,33.27-4.81,37.18c-9.5,3.91-22.74-6.4-29.58-23.03C59.69,310.7,61.84,294.05,71.34,290.15z"/>
</g>
<g id="Guide">
</g>
</svg>
