<?xml version="1.0" encoding="utf-8"?>
<!-- Generator: Adobe Illustrator 27.8.1, SVG Export Plug-In . SVG Version: 6.00 Build 0)  -->
<svg version="1.1" xmlns="http://www.w3.org/2000/svg" xmlns:xlink="http://www.w3.org/1999/xlink" x="0px" y="0px"
	 viewBox="0 0 600 600" style="enable-background:new 0 0 600 600;" xml:space="preserve">
<style type="text/css">
	.st0{fill:none;}
</style>
<g id="BG">
</g>
<g id="Layer_4">
</g>
<g id="Layer_5">
</g>
<g id="Layer_3">
	<path d="M237.43,154.59c-44.52,0-80.74,36.21-80.74,80.73s36.22,80.73,80.74,80.73c44.52,0,80.73-36.21,80.73-80.73
		S281.94,154.59,237.43,154.59z"/>
	<g>
		<path class="st0" d="M370.81,130.82c16.57,0,30-13.43,30-30c0-16.57-13.43-30-30-30c-16.57,0-30,13.43-30,30
			C340.81,117.39,354.24,130.82,370.81,130.82z"/>
		<path class="st0" d="M394.38,426.39l4.74,3.97c1.28,1.11,2.44,2.35,3.46,3.71l133.73-70.14l-97.02,1.57
			C432.29,390.89,416.03,412.49,394.38,426.39z"/>
		<path class="st0" d="M363.46,235.32c0-69.5-56.54-126.03-126.03-126.03c-69.5,0-126.04,56.54-126.04,126.03
			c0,69.49,56.54,126.03,126.04,126.03C306.92,361.36,363.46,304.82,363.46,235.32z"/>
		<path class="st0" d="M411.43,453.84l9.03,97.75l123.62-172.84l-133.73,70.14C410.88,450.5,411.24,452.16,411.43,453.84z"/>
		<path d="M295.2,364.5c-2.25-4.04-0.8-9.13,3.24-11.38c2.55-1.41,5.41-2.17,8.32-2.22l135.71-2.19c0.39-3.69,0.6-7.43,0.6-11.21
			V133.16c0-58.22-47.36-105.57-105.58-105.57H133.16c-58.22,0-105.57,47.35-105.57,105.57v204.33
			c0,58.22,47.36,105.58,105.57,105.58h204.32c14.49,0,28.31-2.94,40.89-8.24l-81.23-67.98C296.36,366.19,295.7,365.39,295.2,364.5z
			 M370.81,70.82c16.57,0,30,13.43,30,30c0,16.57-13.43,30-30,30c-16.57,0-30-13.43-30-30C340.81,84.25,354.24,70.82,370.81,70.82z
			 M111.39,235.32c0-69.5,56.54-126.03,126.04-126.03c69.49,0,126.03,56.54,126.03,126.03c0,69.49-56.54,126.03-126.03,126.03
			C167.93,361.36,111.39,304.82,111.39,235.32z"/>
		<path d="M571.34,355c-2.73-5.2-8.04-8.25-14.21-8.15l-114.67,1.85c-0.61,5.75-1.68,11.36-3.18,16.79l97.02-1.57l-133.73,70.14
			c-1.02-1.35-2.18-2.6-3.46-3.71l-4.74-3.97c-5.06,3.25-10.41,6.07-16,8.43l10,8.37c2.08,1.74,6.14,9.48,6.39,12.18l10.94,118.46
			c0.42,4.6,4.5,7.99,9.1,7.56c1.02-0.09,2.01-0.37,2.93-0.83c2.61-1.29,4.86-3.21,6.55-5.58l145.67-203.67
			C573.56,366.3,574.07,360.2,571.34,355z M420.46,551.59l-9.03-97.75c-0.19-1.68-0.55-3.34-1.08-4.95l133.73-70.14L420.46,551.59z"
			/>
		<path d="M324.92,368.27l-1.08-0.91l115.45-1.87c1.5-5.44,2.57-11.05,3.18-16.79l-135.71,2.19c-2.91,0.05-5.77,0.81-8.32,2.22
			c-4.04,2.25-5.49,7.34-3.24,11.38c0.5,0.89,1.16,1.69,1.94,2.35l81.23,67.98c5.6-2.36,10.95-5.19,16-8.43L324.92,368.27z"/>
	</g>
</g>
<g id="Guide">
</g>
</svg>
