<?xml version="1.0" encoding="utf-8"?>
<!-- Generator: Adobe Illustrator 27.8.1, SVG Export Plug-In . SVG Version: 6.00 Build 0)  -->
<svg version="1.1" xmlns="http://www.w3.org/2000/svg" xmlns:xlink="http://www.w3.org/1999/xlink" x="0px" y="0px"
	 viewBox="0 0 600 600" style="enable-background:new 0 0 600 600;" xml:space="preserve">
<g id="BG">
</g>
<g id="Layer_4">
</g>
<g id="Layer_5">
</g>
<g id="Layer_3">
	<path d="M496.47,130.54h-25.66c-19.62,0-37.72-11.46-46.08-29.18L396.66,42c-3.15-6.61-9.9-10.91-17.23-10.91H227.87
		c-7.33,0-14.08,4.3-17.23,10.91l-28.08,59.36c-8.37,17.72-26.46,29.18-46.08,29.18h-32.93c-51.31,0-93.06,41.75-93.06,93.06v252.24
		c0,51.31,41.75,93.07,93.06,93.07h392.92c51.31,0,93.03-41.76,93.03-93.07V223.6C589.51,172.29,547.78,130.54,496.47,130.54z
		 M300.01,463.9c-66.66,0-120.88-54.23-120.88-120.88c0-66.66,54.22-120.88,120.88-120.88c66.66,0,120.88,54.22,120.88,120.88
		C420.9,409.67,366.67,463.9,300.01,463.9z"/>
</g>
<g id="Guide">
</g>
</svg>
