<?xml version="1.0" encoding="utf-8"?>
<!-- Generator: Adobe Illustrator 27.8.1, SVG Export Plug-In . SVG Version: 6.00 Build 0)  -->
<svg version="1.1" xmlns="http://www.w3.org/2000/svg" xmlns:xlink="http://www.w3.org/1999/xlink" x="0px" y="0px"
	 viewBox="0 0 600 600" style="enable-background:new 0 0 600 600;" xml:space="preserve">
<g id="BG">
</g>
<g id="Layer_4">
</g>
<g id="Layer_5">
</g>
<g id="Layer_3">
	<g>
		<path d="M542.03,249.7l-26.88-102.35c-8.05-30.88-29.28-56.42-58.14-70.19l-74.08-35.2c-2.46-1.14-5.26-1.31-7.84-0.48
			c-4.86,0.8-67.1,30.45-149.23,0.37c-2.18-1.12-5.82-1.33-8.91,0.11l-74.08,35.2c-28.8,13.76-49.98,39.3-58.03,70.19L57.97,249.7
			c-1.21,4.66,0.84,9.55,5.02,11.94l84,48.37V492.2c0,18.77,12,35.31,29.81,41.12c80.05,26.16,166.35,26.16,246.4,0
			c17.8-5.79,29.84-22.4,29.81-41.12V310.01l84-48.38C541.19,259.23,543.24,254.35,542.03,249.7L542.03,249.7z M299.95,118.49
			c-31.42,0-57.87-21.86-65.01-51.2c52.21,14.24,86.88,10.77,130.03,0C357.82,96.62,331.31,118.49,299.95,118.49z"/>
	</g>
</g>
<g id="Guide">
</g>
</svg>
