<?xml version="1.0" encoding="utf-8"?>
<!-- Generator: Adobe Illustrator 27.8.1, SVG Export Plug-In . SVG Version: 6.00 Build 0)  -->
<svg version="1.1" xmlns="http://www.w3.org/2000/svg" xmlns:xlink="http://www.w3.org/1999/xlink" x="0px" y="0px"
	 viewBox="0 0 600 600" style="enable-background:new 0 0 600 600;" xml:space="preserve">
<g id="BG">
</g>
<g id="Layer_4">
</g>
<g id="Layer_5">
</g>
<g id="Layer_3">
	<path d="M503.07,203.4C503.25,91.62,412.02,0.13,300.24,0C187.98-0.13,96.93,90.84,96.93,203.07c0,30.67,6.81,59.75,18.99,85.81
		h-0.02l0.13,0.24c3.15,6.72,6.64,13.24,10.48,19.53l148.18,276.19c10.84,20.2,39.8,20.21,50.64,0.01
		C370,501.58,459.47,334.81,473.5,308.65c3.84-6.29,7.33-12.81,10.48-19.52c0,0,0.13-0.24,0.13-0.24h-0.02
		C496.22,262.91,503.03,233.95,503.07,203.4z M300,285.67c-45.62,0-82.6-36.98-82.6-82.6s36.98-82.6,82.6-82.6
		c45.62,0,82.6,36.98,82.6,82.6S345.62,285.67,300,285.67z"/>
</g>
<g id="Guide">
</g>
</svg>
