<?xml version="1.0" encoding="utf-8"?>
<!-- Generator: Adobe Illustrator 27.8.1, SVG Export Plug-In . SVG Version: 6.00 Build 0)  -->
<svg version="1.1" xmlns="http://www.w3.org/2000/svg" xmlns:xlink="http://www.w3.org/1999/xlink" x="0px" y="0px"
	 viewBox="0 0 600 600" style="enable-background:new 0 0 600 600;" xml:space="preserve">
<g id="BG">
</g>
<g id="Layer_4">
</g>
<g id="Layer_5">
</g>
<g id="Layer_3">
	<path d="M586.89,227.4c-14.17-53.77-37.23-87.25-58.31-107.81c-20.06-19.57-52.74-17.76-70.61,3.82
		c-11.34,13.7-24.87,25.6-39.83,35.19c-13.28,8.51-27.72,15.23-42.83,19.79c0,0-13.94,3.27-31.37,5.16
		c-17.44,1.89-52.09,11.58-74.77,45.53s-9.97,55.65-3.03,58.19s15.01,6.31,32.34-5.9c17.33-12.21,39.88-28.41,67.99-28.4
		c16.04,0,43.37,2.65,71.44,26.31c32.34,26.65,48.16,53.99,55.77,96.3c35.11,6.97,71.83-23.36,85.3-53.7
		C591.99,292.57,595.07,258.41,586.89,227.4z"/>
	<path d="M213.37,312.81c0,0,19.01,10.16,3.47,44.75s-50.25,59.33-77.64,51.1c-27.39-8.22-4.83-54.49,10.46-71.07
		S184.78,296.49,213.37,312.81z"/>
	<path d="M228.64,361.12c0,0,18.35-7.22,31.8,8.98c13.44,16.2-3.36,58.95-28.47,75.58c-33.25,22.02-68.23,20.26-59.12-27.78
		C172.84,417.9,216.84,400.49,228.64,361.12z"/>
	<path d="M213.57,470.05c0,0,43.15-10.77,61.15-58.86c0,0,33.66,1.39,20.93,41.74C281,499.39,238,497.89,238,497.89
		S207.76,499.98,213.57,470.05z"/>
	<path d="M480.97,366.91c-3.23-16.56-20.23-55.87-64.53-87.69c-20.6-14.8-43.45-18.34-60.48-14.84
		c-33.09,6.8-41.5,36.13-79.45,36.13c-6.59,0-12.59-1.9-17.48-5.47c-3.14,4.13-6.61,10-6.28,15.44c0,0-15.33-14.65-3.32-27.81
		c-1.05-2.5-11.78-38.14,18.72-69.66c8-8.27,16.46-16.49,26.48-22.66c-28.4,0.87-57.47-11-60.58-11.94
		c-15.11-4.56-29.55-11.28-42.83-19.79c-14.96-9.59-28.49-21.49-39.83-35.19c-18-21.74-50.83-23.24-70.97-3.47
		C68.2,131.93,35.88,176.86,22.47,227.4c-8.23,31.01-17.54,79.41-4.52,108.72c1.19,2.8,2.68,5.43,4.4,7.89
		c0.17,0.26,0.35,0.51,0.53,0.76c0.01,0.02,0.03,0.04,0.04,0.05c15.76,22.41,49.56,35.09,79.27,32.63c5.28,0.09,8.69-0.41,9.15-1.26
		c0,0,0,0,0,0c5.64-33.83,44.04-69.01,57.38-75.35c17.69-8.42,30.84-9.42,40.52-6.28c4.35-2.16,13.25-7.32,15.5-14.26
		c0,0,6.67,14.42-1.9,23.38c9.65,11.12,11.88,28.11,11.13,37.37c7.05,1.43,14.94,3.89,21.67,7.7c4.48-2.28,12.9-7.32,15.09-14.05
		c0,0,7.27,15.73-3.15,24.54c6.69,9.71,9.67,21.92,8.17,33.62c0.17-1.31,14.41-0.49,21.03,7.31c4.59-2.39,12.44-7.31,14.54-13.77
		c0,0,7.95,17.21-4.7,25.71c5.11,9.23,6.52,20.63,3.02,30.65c-2.65,7.59-7.83,14.77-7.15,22.78c0.5,5.94,4.28,11.06,9.2,14.59
		l-7.92,8.6c0,0,17.08,10.72,26.62-2.89c10.65-0.16,20.93-5.57,28-14.2c25.91-31.63,9.96-82.35-15.33-109.03
		c4.95-1.86,12.37-3.51,23.76,13.62c10.84,16.3,12.53,46.92,18.54,54.5c2.9,3.66,6.9,6.64,11.26,8.32l-6.99,15.48
		c0,0,24.16,1.78,24.69-17.09c15.44-9.83,13.81-35.55,10.79-50.54c-3.47-17.22-11.44-33.56-23.12-46.7
		c5.82-2.01,10.44-2.05,19.66,14.15c4.15,7.3,6.56,15.43,9.93,23.12c3.36,7.69,8.25,15.26,15.81,18.92c2.2,1.07,4.39,1.73,6.53,2.08
		l-0.62,17.19c0,0,16.73-8.13,17.51-21.77C478.46,387.92,482.99,377.24,480.97,366.91z"/>
</g>
<g id="Guide">
</g>
</svg>
