<?xml version="1.0" encoding="utf-8"?>
<!-- Generator: Adobe Illustrator 27.8.1, SVG Export Plug-In . SVG Version: 6.00 Build 0)  -->
<svg version="1.1" xmlns="http://www.w3.org/2000/svg" xmlns:xlink="http://www.w3.org/1999/xlink" x="0px" y="0px"
	 viewBox="0 0 600 600" style="enable-background:new 0 0 600 600;" xml:space="preserve">
<g id="BG">
</g>
<g id="Layer_4">
</g>
<g id="Layer_5">
</g>
<g id="Layer_3">
	<g>
		<path d="M107.24,225.24c8.14,7.48,17.14,14.31,26.94,20.48c6.68-21.28,19.48-53.25,42.92-87.03
			c23.64-34.06,53.29-62.96,88.1-85.88c31.3-20.61,66.82-36.36,106.02-47.08c-22.79-5.91-46.69-9.06-71.33-9.06
			c-101.37,0-190.29,53.24-240.36,133.28C69.14,179.69,85.14,204.95,107.24,225.24z"/>
		<path d="M79.98,361.82c29.51,23.19,64.01,40.22,102.52,50.63c44.72,12.08,95.09,15.22,149.9,9.38c-0.68-5.45-1.6-10.97-2.74-16.57
			c-8.69-42.47-28.64-77.05-37.28-90.61c-1.19,0.02-2.49,0.03-3.89,0.03c-20.15,0-62.32-2.02-107.64-16.34
			c-36.76-11.62-67.94-28.97-92.67-51.56c-19.71-18-35.25-39.28-46.5-63.57c-14.75,32.56-23.51,68.41-24.9,106.15
			C25.88,305.46,45.58,334.8,79.98,361.82z"/>
		<path d="M333.85,450.6c-18.26,1.89-36.1,2.85-53.44,2.85c-37.94,0-73.59-4.52-106.55-13.54c-42.4-11.61-80.42-30.63-113-56.53
			c-16.67-13.26-30.18-26.93-40.95-39.65c19.18,123.84,118.54,221.18,243.37,237.28C308.78,545.25,332.4,501.52,333.85,450.6z"/>
		<path d="M201.49,174.03c-23.95,34.18-35.92,66.75-41.41,85.63c9.05,4.13,18.61,7.81,28.66,11.01
			c43.1,13.76,84.1,15.29,101.5,15.21c7.51-16.82,26.29-54.07,58.4-88.33c49.85-53.17,110.7-76.43,177.4-68.24
			c-27.29-36.1-63.03-65.46-104.27-85.14c-53.36,8.76-100.47,26.32-140.02,52.2C250.07,117.1,223.07,143.22,201.49,174.03z"/>
		<path d="M486.59,376.71c-2.2-39.5-11.95-76.65-28.99-110.41c-19.49-38.63-43.92-63.75-57.86-76.09
			c-10.4,7.7-20.45,16.7-30.12,27.02c-29.76,31.74-47.1,66.82-53.46,81.18c9.63,14.9,31.56,52.56,41.48,100.12
			c10.68,51.21,8.71,122.48-53.62,184.78c57.88-0.83,111.56-19.01,156.07-49.58C480.4,478.48,489.32,425.66,486.59,376.71z"/>
		<path d="M425.07,174.4c16.23,15.42,39.33,41.49,58.21,78.93c18.83,37.32,29.6,78.29,32.02,121.77
			c2.2,39.53-2.55,81.18-14.13,124.31c50.72-51.2,82.05-121.63,82.05-199.39c0-49.87-12.9-96.72-35.52-137.43
			C503.16,151.41,462.13,155.39,425.07,174.4z"/>
	</g>
</g>
<g id="Guide">
</g>
</svg>
