<?xml version="1.0" encoding="utf-8"?>
<!-- Generator: Adobe Illustrator 27.8.1, SVG Export Plug-In . SVG Version: 6.00 Build 0)  -->
<svg version="1.1" xmlns="http://www.w3.org/2000/svg" xmlns:xlink="http://www.w3.org/1999/xlink" x="0px" y="0px"
	 viewBox="0 0 600 600" style="enable-background:new 0 0 600 600;" xml:space="preserve">
<g id="BG">
</g>
<g id="Layer_4">
</g>
<g id="Layer_5">
</g>
<g id="Layer_3">
	<path d="M381.17,319.05c-5.34,0.39-11.98,0.87-19.35,0.87c0,0,0,0,0,0c-32.84,0-55.6-10.5-67.64-31.21l-2.22-3.82
		c-2.77-4.76-0.36-10.85,4.92-12.43l4.24-1.27c38.34-11.49,42.82-22.97,43.23-24.37c-3.33-23.93,0.92-47.9,12.29-69.3
		c18.62-35.41,52.83-57.43,92.52-59.98V96.69c0-29.1-23.59-52.69-52.69-52.69H189.84c-29.1,0-52.69,23.59-52.69,52.69v152.89
		c7.15-1.22,14.42-1.86,21.74-1.86c23.9,0,47.57,6.91,68.44,19.99c23.71,14.72,41.83,36.19,52.37,62.08
		c1.1,1.6,6.99,5.47,22.03,5.47c10.39,0,23.21-1.81,38.1-5.39l4.3-1.03c5.35-1.29,10.5,2.77,10.5,8.28v4.42
		c0,46.23-46.51,68.95-68.86,79.87c-1.38,0.68-2.65,1.3-3.8,1.87c-17,50.32-68.87,87.93-121.9,87.93c-0.73,0-1.47-0.01-2.2-0.02
		c-0.72,0.01-1.43,0.02-2.15,0.02c-6.07,0-12.13-0.48-18.14-1.42c3.2,26.04,25.38,46.2,52.28,46.2h206.61
		c29.1,0,52.69-23.59,52.69-52.69V345.18c-24.37-1.9-47.54-11.24-65.07-26.34C383.18,318.91,382.21,318.98,381.17,319.05z"/>
	<g>
		<path d="M386.23,306.69c1.3-0.1,2.58,0.32,3.56,1.18c31.78,29.23,83.57,33.91,119.45,11.98c43.6-24.15,62.8-83.05,42.58-129.08
			c-34.22-77.88-144.81-83.27-184.59-7.62c-10.17,19.14-14,41.01-10.94,62.46c0.19,1.45,3.06,20.65-51.73,37.07
			C323.08,314.53,369.04,307.54,386.23,306.69z M414.66,194.08c11.26-12.14,29.57-12.14,40.83,0l2.61,2.82l2.61-2.82
			c11.26-12.13,29.57-12.13,40.83,0c11.03,11.89,11.1,30.73,0.17,43.83c-9.97,11.95-39.39,37.75-40.64,38.84
			c-0.87,0.77-1.93,1.15-2.98,1.1l-0.1,0c-1.05,0-2.07-0.39-2.88-1.1c-1.25-1.09-30.66-26.9-40.63-38.84
			C403.56,224.81,403.64,205.96,414.66,194.08z"/>
		<path d="M268.65,334.51c-9.5-23.45-26.2-43.28-47.7-56.62c-84.56-53-193,17.35-181.82,116.03c6.6,58.32,60.56,106.5,118.73,105.28
			c49.08,1.07,98.6-34.04,113.52-82.19c0.49-1.44,1.54-2.61,2.9-3.28c17.84-9.24,68.33-29.16,68.33-72.17
			C277.68,357.14,269.31,336.08,268.65,334.51z M129.38,430.32c-1.82,1.07-3.89,1.63-6,1.63h-16c-6.63,0-12-5.37-12-12v-60
			c0-6.63,5.37-12,12-12h16c2.11,0,4.18,0.55,6,1.6V430.32z M219.38,395.91c0,19.88-16.12,36-36,36h-22.34
			c-3.73,0-7.4-0.87-10.73-2.54l-8.93-4.43v-71.86c11.75-10.9,19.31-33.1,24.35-43.57c8.86-18.43,26.72,6.29,22.36,19.6
			c-1.51,4.61-4.7,18.8-4.7,18.8c19.88,0,36,16.12,36,36V395.91z"/>
	</g>
</g>
<g id="Guide">
</g>
</svg>
