<?xml version="1.0" encoding="utf-8"?>
<!-- Generator: Adobe Illustrator 27.8.1, SVG Export Plug-In . SVG Version: 6.00 Build 0)  -->
<svg version="1.1" xmlns="http://www.w3.org/2000/svg" xmlns:xlink="http://www.w3.org/1999/xlink" x="0px" y="0px"
	 viewBox="0 0 600 600" style="enable-background:new 0 0 600 600;" xml:space="preserve">
<g id="BG">
</g>
<g id="Layer_4">
</g>
<g id="Layer_5">
</g>
<g id="Layer_3">
	<g>
		<path d="M393.24,196.13C374.98,111.3,336.03,57.63,300,57.63s-74.98,53.67-93.24,138.5H393.24z M196.13,300
			c0,23.16,1.54,46.29,4.62,69.25h198.5c3.08-22.95,4.63-46.09,4.62-69.25c0-23.16-1.54-46.29-4.62-69.25h-198.5
			C197.67,253.71,196.12,276.84,196.13,300z M206.76,403.87c18.26,84.83,57.22,138.5,93.24,138.5s74.98-53.67,93.24-138.5H206.76z
			 M428.7,196.13h109.07C504.53,120.5,437.42,65.1,356.87,46.79C389.71,75.69,415.47,129.11,428.7,196.13z M550.21,230.75H434.22
			c2.86,22.97,4.28,46.1,4.28,69.25c0,23.15-1.43,46.28-4.29,69.25h115.99c12.63-45.3,12.63-93.19,0-138.5H550.21z M356.87,553.21
			c80.57-18.3,147.69-73.7,180.93-149.33H428.73C415.47,470.89,389.71,524.31,356.87,553.21z M171.3,403.87H62.24
			c33.24,75.64,100.36,131.04,180.93,149.33C210.29,524.31,184.53,470.89,171.3,403.87z M243.13,46.79
			c-80.57,18.3-147.69,73.7-180.93,149.33h109.07C184.53,129.11,210.29,75.69,243.13,46.79z M161.5,300
			c0-23.15,1.43-46.28,4.29-69.25H49.81c-12.63,45.3-12.63,93.19,0,138.5H165.8C162.93,346.28,161.5,323.15,161.5,300z"/>
	</g>
</g>
<g id="Guide">
</g>
</svg>
