<?xml version="1.0" encoding="UTF-8"?>
<!-- Designer-supplied (Icons_SVG/Whatsapp_2.svg); the wrapper id and .cls-1 style
     block are stripped so several inlined icons can't collide on ids/classnames. -->
<svg xmlns="http://www.w3.org/2000/svg" viewBox="0 0 601.02 601">
  <path d="m300.49,0C134.81,0,0,134.81,0,300.49c0,54.73,15.2,108.59,43.95,155.81l7.78,12.79-30.02,112.03,112.68-30.19,12.71,7.57c46.64,27.78,99.69,42.49,153.41,42.49,165.71,0,300.51-134.81,300.51-300.51S466.22,0,300.51,0h-.02Zm176.52,413.98c-11.18,27.14-38.94,44.58-67.13,49.93-26.92,5.1-49.11-3.46-74.01-11.7-22.21-7.33-43.67-18.04-63.61-30.23-39.87-24.43-74.29-57.09-101.97-94.68-8.45-11.5-16.3-23.44-23.5-35.76-9.57-16.34-18.06-33.5-22.51-51.91-1.85-7.66-2.82-15.55-2.9-23.48-.32-27.89,10.32-56.02,32.36-73.97,12.77-10.41,31.65-14.94,46-6.84,15.59,8.82,23.68,31.03,30.92,46.6,5.66,12.19,12.06,28.19,9.74,41.87-2.34,13.7-13.16,25.22-21.8,35.37-5.83,6.86-6.69,12.69-1.85,20.08,28.56,47.59,68.21,82.14,119.95,102.74,7.03,2.84,12.52,1.96,17.1-3.7,8.92-11.01,17.74-32.6,31.52-38.23,17.98-7.35,37.8,2.84,53.07,11.96,14.19,8.49,37.95,18.92,41.78,36.47,1.85,8.49.19,17.44-3.12,25.48h-.02Z"/>
</svg>
