<?xml version="1.0" encoding="UTF-8"?>
<svg id="Layer_1" data-name="Layer 1" xmlns="http://www.w3.org/2000/svg" viewBox="0 0 360.53 538.25">
  <defs>
    <style>
      .cls-1 {
        fill: #0a244e;
      }

      .cls-1, .cls-2 {
        stroke-width: 0px;
      }

      .cls-2 {
        fill: #fff;
      }
    </style>
  </defs>
  <path class="cls-1" d="m329.81,7.46c-.64-.07-65-7.46-149.55-7.46S31.34,7.38,30.7,7.46C13.2,9.51,0,24.34,0,41.96v325.72c0,17.79,7.77,34.61,21.32,46.15,12.39,10.55,35.23,29.05,63.1,47.4h-16.11c-9.83,0-17.8,7.97-17.8,17.8v41.43c0,9.83,7.97,17.8,17.8,17.8h223.54c9.83,0,17.8-7.97,17.8-17.8v-41.43c0-9.83-7.97-17.8-17.8-17.8h-15.75c27.87-18.34,50.72-36.85,63.11-47.4,13.55-11.54,21.32-28.36,21.32-46.14V41.96c0-17.62-13.2-32.45-30.72-34.5Z"/>
  <g>
    <polygon class="cls-2" points="84.91 102.78 83.97 83.39 78.14 83.67 79.32 107.91 94.63 107.17 94.4 102.32 84.91 102.78"/>
    <rect class="cls-2" x="97.94" y="82.64" width="5.84" height="24.27" transform="translate(-3.82 4.24) rotate(-2.36)"/>
    <path class="cls-2" d="m127.13,87.19c-.52-1.32-1.22-2.39-2.09-3.22-.87-.83-1.9-1.43-3.09-1.82s-2.47-.55-3.85-.51c-1.38.05-2.65.3-3.81.76-1.16.46-2.15,1.13-2.96,2.01s-1.44,2-1.88,3.35c-.44,1.35-.63,2.94-.57,4.77l.12,3.8c.06,1.8.35,3.37.87,4.69s1.22,2.4,2.09,3.24c.87.84,1.9,1.45,3.09,1.84,1.19.38,2.47.55,3.85.51,1.38-.05,2.65-.3,3.81-.76,1.16-.46,2.15-1.14,2.96-2.03.82-.89,1.44-2.02,1.88-3.37.44-1.35.63-2.93.57-4.73l-.12-3.8c-.06-1.83-.35-3.4-.88-4.72Zm-5.65,13.1c-.6.93-1.51,1.42-2.73,1.46-1.22.04-2.16-.39-2.82-1.28-.66-.89-1.03-2.34-1.09-4.33l-.12-3.8c-.06-1.99.2-3.46.81-4.39.6-.93,1.51-1.42,2.73-1.46,1.22-.04,2.16.39,2.82,1.28.66.89,1.03,2.34,1.09,4.33l.12,3.8c.06,1.99-.2,3.46-.81,4.39Z"/>
    <polygon class="cls-2" points="146.28 81.27 146.56 94.88 137.28 81.45 132.64 81.55 133.13 105.82 138.61 105.71 138.34 92.27 147.55 105.52 152.26 105.43 151.77 81.16 146.28 81.27"/>
    <polygon class="cls-2" points="170.6 81.01 170.66 90.29 163.2 90.34 163.14 81.06 157.31 81.09 157.46 105.36 163.3 105.32 163.24 95.19 170.69 95.15 170.76 105.28 176.6 105.24 176.44 80.97 170.6 81.01"/>
    <polygon class="cls-2" points="197.16 100.49 187.66 100.43 187.69 95.16 196.13 95.21 196.16 90.36 187.72 90.3 187.75 85.87 197.25 85.93 197.27 81.08 181.94 80.98 181.79 105.25 197.13 105.35 197.16 100.49"/>
    <path class="cls-2" d="m206.21,101.33l7.49.13,1.23,4.17,6.23.11-8.01-24.42-5.63-.1-8.88,24.12,6.23.11,1.34-4.13Zm3.98-11.96l2.09,7.21-4.47-.08,2.38-7.13Z"/>
    <path class="cls-2" d="m223.89,105.84l5.84.18.28-9.18,3.02.09,3.77,9.3,6.4.19-4.54-10.34c1.26-.53,2.24-1.31,2.94-2.36.7-1.05,1.07-2.37,1.12-3.96.04-1.27-.15-2.38-.55-3.34-.4-.96-1-1.78-1.77-2.45-.78-.67-1.72-1.18-2.84-1.53-1.12-.35-2.38-.55-3.78-.59l-9.14-.28-.73,24.26Zm6.42-19.23l2.6.08c.59.02,1.12.07,1.61.15s.91.23,1.27.44c.36.21.63.5.82.87.19.37.27.85.26,1.43-.02.56-.13,1.02-.34,1.36-.21.35-.5.6-.87.77s-.8.27-1.29.31-1.03.06-1.62.04l-2.6-.08.16-5.38Z"/>
    <polygon class="cls-2" points="251.05 106.74 256.88 106.98 257.67 87.58 264 87.84 264.2 82.99 245.71 82.23 245.51 87.08 251.84 87.34 251.05 106.74"/>
    <path class="cls-2" d="m277.47,102.82c-.5.39-1.31.55-2.44.49-1.1-.06-2.02-.28-2.77-.67-.74-.39-1.4-.97-1.97-1.75l-4.51,2.84c1.07,1.51,2.37,2.6,3.89,3.28,1.52.68,3.39,1.07,5.61,1.18,2.76.14,4.9-.41,6.41-1.65,1.51-1.24,2.31-2.96,2.43-5.16.05-1.03-.04-1.94-.27-2.74s-.62-1.51-1.16-2.14-1.27-1.19-2.17-1.69c-.9-.5-2-.98-3.29-1.42-1.52-.52-2.61-1.03-3.25-1.52-.64-.49-.95-1.1-.91-1.82.03-.61.27-1.1.73-1.48.45-.38,1.17-.54,2.16-.49,1.1.06,1.97.26,2.61.62.64.36,1.17.96,1.6,1.81l4.48-2.87c-.8-1.38-1.93-2.43-3.4-3.17-1.47-.73-3.17-1.15-5.11-1.24-1.48-.07-2.76.04-3.86.33-1.09.3-2,.74-2.73,1.32-.72.59-1.27,1.3-1.66,2.14s-.6,1.76-.65,2.77c-.1,1.94.38,3.55,1.43,4.81,1.05,1.26,2.79,2.35,5.21,3.27.88.33,1.6.63,2.17.9.57.28,1.03.54,1.37.81.34.26.57.54.7.83.13.29.18.61.16.96-.03.59-.29,1.07-.8,1.46Z"/>
    <polygon class="cls-2" points="146.26 70.71 146.23 67.07 139.11 67.13 138.97 52.57 134.6 52.61 134.76 70.81 146.26 70.71"/>
    <path class="cls-2" d="m160.03,68.96c.63-.65,1.12-1.48,1.48-2.49.36-1,.53-2.18.52-3.54l-.02-2.85c0-1.37-.19-2.56-.56-3.56-.37-1-.87-1.82-1.5-2.46s-1.4-1.11-2.28-1.43-1.84-.46-2.88-.46c-1.04,0-2,.17-2.87.49-.88.32-1.63.81-2.26,1.45s-1.12,1.47-1.48,2.48c-.36,1-.53,2.19-.52,3.56l.02,2.85c0,1.35.19,2.53.56,3.53.37,1,.87,1.82,1.5,2.47.64.65,1.4,1.13,2.28,1.44s1.84.46,2.88.46c1.04,0,2-.17,2.87-.49.88-.32,1.63-.81,2.26-1.46Zm-3.08-2.73c-.47.69-1.16,1.04-2.08,1.04s-1.61-.33-2.09-1.02-.72-1.77-.73-3.27l-.02-2.85c0-1.5.22-2.59.69-3.28.47-.69,1.16-1.04,2.08-1.04.91,0,1.61.33,2.09,1.02.48.68.72,1.77.73,3.27l.02,2.85c0,1.5-.22,2.59-.69,3.28Z"/>
    <polygon class="cls-2" points="175.82 52.38 175.83 62.59 169.07 52.39 165.59 52.39 165.6 70.6 169.72 70.59 169.71 60.52 176.42 70.59 179.96 70.58 179.94 52.38 175.82 52.38"/>
    <path class="cls-2" d="m193.54,70.21c.88-.27,1.64-.72,2.27-1.34.64-.62,1.13-1.42,1.5-2.41.36-.98.55-2.19.55-3.61v-2.64c.01-1.44-.16-2.66-.52-3.64-.36-.99-.85-1.79-1.48-2.41-.63-.62-1.39-1.06-2.26-1.34-.88-.28-1.84-.42-2.87-.42l-6.78-.02-.06,18.2,6.78.02c1.04,0,2-.13,2.88-.4Zm-5.23-14.17h2.4c.56.01,1.02.11,1.38.32s.64.49.85.85c.21.36.35.8.43,1.31.08.51.12,1.07.11,1.69v2.64c-.01.62-.05,1.18-.13,1.69-.08.51-.23.94-.44,1.3-.21.36-.5.64-.86.84s-.82.3-1.39.3h-2.4s.04-10.93.04-10.93Z"/>
    <path class="cls-2" d="m203.04,69.01c.63.66,1.38,1.15,2.26,1.47.88.32,1.83.49,2.87.5,1.04,0,2-.14,2.88-.45.88-.31,1.64-.79,2.28-1.43.64-.65,1.14-1.47,1.51-2.47.37-1,.56-2.18.57-3.53l.02-2.85c.01-1.37-.16-2.56-.51-3.57-.35-1.01-.84-1.83-1.47-2.48-.63-.65-1.38-1.13-2.26-1.46s-1.83-.49-2.87-.5c-1.04,0-2,.14-2.88.45-.88.31-1.64.78-2.28,1.42-.64.64-1.14,1.45-1.51,2.45-.37,1-.56,2.19-.57,3.56l-.02,2.85c-.01,1.35.16,2.53.51,3.54.35,1.01.84,1.84,1.47,2.49Zm2.42-8.84c.01-1.5.26-2.58.74-3.27.48-.68,1.18-1.02,2.09-1.01.91,0,1.61.36,2.08,1.05.47.69.7,1.78.69,3.28l-.02,2.85c-.01,1.5-.26,2.58-.74,3.27-.48.68-1.18,1.02-2.09,1.01-.91,0-1.61-.36-2.08-1.05-.47-.69-.7-1.78-.69-3.28l.02-2.85Z"/>
    <polygon class="cls-2" points="223.12 60.78 229.7 70.94 233.23 70.98 233.46 52.78 229.34 52.73 229.21 62.94 222.59 52.64 219.1 52.6 218.88 70.8 223 70.86 223.12 60.78"/>
    <path class="cls-2" d="m181.57,450.72c23.6-8.2,47.35-20.91,68.68-34.33-6.31,1.73-12.68,3.29-19.12,4.65,0,0-2,.26-5.33.69-13.48,7.52-27.52,14.32-41.57,19.6V125.72c69.55.2,123.74,5.71,137.61,7.26v67c2.85,3.94,5.5,8.03,7.91,12.24V41.96c0-2.01-1.5-3.7-3.5-3.93-.62-.07-62.96-7.25-145.99-7.25s-145.37,7.18-145.99,7.25c-1.99.23-3.5,1.92-3.5,3.93v205.74c2.29-1.85,5.03-3.94,7.91-6.08v-108.64c13.88-1.55,68.06-7.06,137.61-7.26v315.62c-7.85-2.95-15.7-6.38-23.46-10.15.57,3.26,1.52,6.63,2.88,10.11,7.7,3.53,15.47,6.72,23.23,9.42.42.15.86.22,1.3.22s.88-.07,1.3-.22ZM38.69,125.01V45.51c14.2-1.49,70.17-6.82,141.57-6.82s127.37,5.33,141.57,6.82v79.5c-15.67-1.72-71.18-7.22-141.57-7.22s-125.91,5.5-141.57,7.22Z"/>
    <path class="cls-2" d="m197.2,216.07c4.18-1.17,11.83-2.49,28.29-2.47,29.54.02,58.12,11.38,83.7,25.87,10.39,5.85,20.29,12.45,29.72,19.61-3.62-20.97-12.18-40.25-24.44-56.59-23.69-14.59-50.63-23.69-78.39-25.68-12.96-.92-26.05-.52-38.87,1.46v37.8Z"/>
    <path class="cls-2" d="m339.44,262.43c-20.84-13.67-43.44-24.63-67.52-31.09-21.82-5.72-44.93-7.76-67.19-3.9-2.53.44-5.05.95-7.54,1.55v50.46c9.77-3.31,22.52-8.09,49.22-7.24,34.06,1.09,64.06,22.6,89.74,44.55,3.05-11.15,4.69-22.89,4.69-35.01,0-6.57-.49-13.02-1.41-19.33Z"/>
    <path class="cls-2" d="m163.41,392.04v-73.84c-53.35,46.1-82.09,126.14-1.33,148.8-31.53-41.84-13.08-67.07,1.33-74.95Z"/>
    <path class="cls-2" d="m36.74,309.47c3.23-2.93,5.64-4.25,9.93-5.58-4.61-7.6-6.57-16.3-6.57-24.94,0-.02-10.33-4.93-14.29-14.68,0,0,0,0,0,0-4.69,13.2-2.97,33.65,10.93,45.2Z"/>
    <path class="cls-2" d="m100.94,401.86v-40.98c-24.38,15.21-23.31,43.39-23.31,43.39,0,22.82,22.69,42.1,45.38,48.74-12.64-14.32-22.07-21.17-22.07-51.15h0Z"/>
    <path class="cls-2" d="m103.69,350.19h15.71s38.41-31.12-6.71-80.82c0,0,22.39,13.84,50.72,15.07v-86.32c-6.36-2.01-12.77-3.44-18.49-4.04-12.04-.86-24.52.74-24.52.74,9.17-8,24.22-16.28,43.01-22.15v-15.11c-38.41,13.94-57.03,40.41-57.03,40.41l-12.06,4.04c21.95-36.96,53.59-49.95,69.09-54.28v-9.07c-5.77-2.41-12.44-2.29-18.27.62-19.04,9.5-44.28,22.1-55.24,27.57l-.15,29.37c-4.74-1.36-9.53-6.83-11.37-11.17-3.19,12.55-.78,22.79.18,25.82-7.03,4.83-16.59,13.12-19.38,17.61h11.81c-2.66,1.26-33.55,22.18-40.43,29.47,2.92.08,6.04.89,10.56,3.39,0,0,9.65-8.86,22.59-8.86,5.66,0,11.63.92,11,1.13-5.67,1.89-11.1,5.09-14.79,7.96.91,1.42.36.55,2.68,4.59,0,0-9.28,4.33-16.5,10.67.98,7.35,4.31,32.39,32.41,38.74,8.97,2.03,22.34,3.83,23.23,15.73l.08,6.44c-3.09-9.35-12.06-11.07-15.58-11.78-14.82-2.58-27.44-5.58-35.82-16.74-3.4,2.07-21.07,13.75-21.05,33.57,0,7.35.65,23.44,18.34,34.77v-20.1s11.36,8.44,11.36,30.85c.11-.27.23-.55.35-.84,2.61-20.79,20.19-36.9,41.61-37.23.89-.04,1.79-.06,2.68-.06Zm-17.53-101.29s1.21-5.5,13.96-11.55l-4.97-8.86h7.38v-7.65h12.76s28.46,0,28.46,16.51c0,0-35.31,2.42-57.6,11.55Z"/>
    <path class="cls-2" d="m197.2,295.58v76.11c7.37-5.36,15.67-11.96,25.31-20.33,17.03-17.8,26.91-35.14,32.34-47.09,4-9.27,5.87-15.76,5.87-15.76-19.56-7.18-42.05-3.4-63.52,7.07Z"/>
    <path class="cls-2" d="m306.23,347.04c-17.07,27.18-41.67,49.37-70.1,64.05,45.95-9.72,83.1-43.3,97.85-87.18-3.86-2.91-7.8-5.71-11.81-8.38-4.1,11.06-9.68,21.58-15.94,31.51Z"/>
    <path class="cls-2" d="m197.2,388.61v24.86c3.77.32,7.59.49,11.44.49,5.29,0,9.31-.18,14.44-.79,24.5-13.22,47.07-32.14,62.68-55.2,10.07-14.9,18.1-31.28,22.91-48.6.17-.62.33-1.26.49-1.89-6.82-3.89-13.85-7.4-21.12-10.46-3.69-1.51-7.5-2.93-11.38-4.2-3.53,13.42-10,26.04-17.47,37.6-15.7,23.98-37.58,43.44-62.01,58.19Z"/>
    <path class="cls-2" d="m208.64,149.54c-3.86,0-7.67.18-11.44.5v15.58c6.21-.67,12.61-1.05,19.17-1.06,32.06-.05,63.52,11.37,90.43,28.62-24.2-26.8-59.21-43.64-98.15-43.64Z"/>
    <polygon class="cls-2" points="87.8 502.27 83.27 487.6 76.9 487.6 85.2 511.87 90.44 511.87 98.74 487.6 92.38 487.6 87.8 502.27"/>
    <path class="cls-2" d="m117.1,489.8c-.84-.86-1.85-1.49-3.02-1.92s-2.45-.63-3.83-.63-2.66.21-3.83.63-2.18,1.06-3.02,1.92c-.84.86-1.51,1.95-1.99,3.29-.48,1.34-.72,2.92-.72,4.75v3.8c0,1.81.24,3.38.72,4.71.48,1.34,1.14,2.44,1.99,3.31.84.87,1.85,1.51,3.02,1.93s2.45.63,3.83.63,2.66-.21,3.83-.63,2.18-1.07,3.02-1.93c.84-.87,1.51-1.97,1.99-3.31.48-1.34.72-2.91.72-4.71v-3.8c0-1.83-.24-3.41-.72-4.75-.48-1.34-1.14-2.43-1.99-3.29Zm-3.13,11.83c0,1.99-.32,3.45-.95,4.36-.63.91-1.56,1.37-2.78,1.37s-2.15-.46-2.78-1.37c-.63-.91-.95-2.37-.95-4.36v-3.8c0-1.99.32-3.45.95-4.36.63-.91,1.56-1.37,2.78-1.37s2.15.46,2.78,1.37c.63.91.95,2.37.95,4.36v3.8Z"/>
    <polygon class="cls-2" points="130.4 487.6 124.56 487.6 124.56 511.87 139.9 511.87 139.9 507.02 130.4 507.02 130.4 487.6"/>
    <polygon class="cls-2" points="149.26 487.6 143.42 487.6 143.42 511.87 158.75 511.87 158.75 507.02 149.26 507.02 149.26 487.6"/>
    <polygon class="cls-2" points="162.27 511.87 177.61 511.87 177.61 507.02 168.11 507.02 168.11 501.74 176.55 501.74 176.55 496.89 168.11 496.89 168.11 492.46 177.61 492.46 177.61 487.6 162.27 487.6 162.27 511.87"/>
    <polygon class="cls-2" points="189.97 495.94 186.1 487.66 179.38 487.75 187.14 502.2 187.27 511.91 193.11 511.83 192.98 502.13 200.34 487.46 193.63 487.55 189.97 495.94"/>
    <path class="cls-2" d="m218.45,499.1c.84-.56,1.52-1.23,2.02-2s.76-1.79.76-3.06c0-2.23-.79-3.86-2.37-4.89-1.58-1.03-3.82-1.55-6.7-1.55h-8.48v24.27h9.25c1.62,0,3-.18,4.15-.55,1.15-.36,2.09-.86,2.81-1.49.73-.63,1.26-1.37,1.6-2.22.34-.84.51-1.75.51-2.71,0-1.5-.31-2.71-.93-3.62-.62-.91-1.49-1.64-2.62-2.18Zm-8.93-6.68h1.93c.8,0,1.45.05,1.97.16.52.11.92.25,1.21.44s.49.43.6.72c.11.29.16.62.16.97,0,.7-.27,1.24-.81,1.6-.54.36-1.41.55-2.6.55h-2.46v-4.43Zm2.78,14.6h-2.78v-5.31h2.36c1.48,0,2.56.19,3.25.58.69.39,1.04,1.07,1.04,2.06,0,1.78-1.29,2.67-3.87,2.67Z"/>
    <path class="cls-2" d="m232.2,487.6l-8.44,24.27h6.23l1.27-4.15h7.49l1.3,4.15h6.23l-8.44-24.27h-5.63Zm.56,15.26l2.25-7.17,2.22,7.17h-4.47Z"/>
    <polygon class="cls-2" points="254.93 487.6 249.09 487.6 249.09 511.87 264.42 511.87 264.42 507.02 254.93 507.02 254.93 487.6"/>
    <polygon class="cls-2" points="273.78 487.6 267.94 487.6 267.94 511.87 283.28 511.87 283.28 507.02 273.78 507.02 273.78 487.6"/>
  </g>
</svg>