<?xml version="1.0" encoding="UTF-8"?>
<svg id="Layer_1" data-name="Layer 1" xmlns="http://www.w3.org/2000/svg" viewBox="0 0 416.7 431.01">
  <defs>
    <style>
      .cls-1 {
        fill: #0a244e;
      }

      .cls-1, .cls-2 {
        stroke-width: 0px;
      }

      .cls-2 {
        fill: #fff;
      }
    </style>
  </defs>
  <path class="cls-1" d="m238.13,14.14c-7.58,0-15.04.48-22.37,1.39-10.22-10.01-23.76-15.53-38.11-15.53-8.44,0-16.89,1.99-24.45,5.76l-78.29,39.07c-8.08,4.03-13.19,12.29-13.19,21.32v32.15C18.85,132.39,7.33,155.47,4.72,162.14l-.18.46-.16.46c-6.82,19.22-6.5,45.86,6.92,67.35.22,3.26-.29,6.56-1.34,9.68-2.22,6.58-3.5,13.69-3.49,21.27.04,34.94,18.74,54.26,34.42,64.31l11.99,7.69c5,3.2,8.71,8.14,10.16,13.9,3.5,13.89,11.27,27.16,22.61,38.62,23.46,23.69,81.8,41.07,92.04,43.94h0c27.64,7.76,49.34-24.01,32.06-46.94h0c-4.15-5.51-7.38-10.78-9.64-15.62v-.06c12.25,2.66,24.97,4.07,38.02,4.07,98.62,0,178.56-79.95,178.56-178.56S336.75,14.14,238.13,14.14Z"/>
  <g>
    <g>
      <path class="cls-2" d="m208.79,79.8c-.72.19-1.44.39-2.16.6l-6.07,1.52c-4.73,1.33-9.65,3-14.28,4.76,16.92,5.73,36.91,17.49,48.49,29.61,7.44-.53,14.92-.53,22.29-.16,33.15,1.86,65.33,12.79,94.07,29.08,11.67,6.58,22.8,14,33.4,22.05-4.07-23.57-13.69-45.23-27.47-63.6-26.62-16.4-56.91-26.62-88.11-28.86-20.16-1.42-40.62-.05-60.17,5.01Z"/>
      <path class="cls-2" d="m309.25,136.07c-24.52-6.43-50.5-8.72-75.51-4.39-6.44,1.13-12.79,2.61-18.89,4.86,5.38,17.07,13.71,33.27,26.04,45.83,13.03-2.67,26.68-2.19,39.7-.37,37.87,5.68,72,25.4,100.86,50.07,3.43-12.53,5.28-25.72,5.28-39.34,0-7.38-.55-14.63-1.58-21.72-23.42-15.36-48.82-27.69-75.89-34.94Z"/>
      <path class="cls-2" d="m188.6,316.01c16.33-8.02,34.94-18.83,65.12-45.04,19.14-20,30.24-39.5,36.35-52.92,4.5-10.42,6.6-17.71,6.6-17.71-95.26-34.94-252.14,160.96-110.86,200.6-36.4-48.3-13.54-76.9,2.8-84.92Z"/>
      <path class="cls-2" d="m347.82,266.11c-19.19,30.55-46.83,55.49-78.79,71.99,51.65-10.92,93.4-48.67,109.98-97.98-4.34-3.27-8.76-6.42-13.27-9.42-4.61,12.43-10.88,24.25-17.92,35.42Z"/>
      <path class="cls-2" d="m324.82,278.4c11.31-16.75,20.35-35.15,25.75-54.62.19-.7.38-1.42.55-2.13-7.66-4.37-15.57-8.32-23.73-11.76-4.15-1.7-8.43-3.29-12.79-4.72-3.97,15.09-11.24,29.26-19.63,42.25-18.18,27.78-43.74,50.18-72.22,66.93-11.54,6.82-23.53,12.75-35.81,17.91,15.96,5.86,33.2,9.06,51.19,9.06,5.95,0,10.47-.21,16.23-.89,27.54-14.86,52.91-36.12,70.45-62.04Z"/>
      <path class="cls-2" d="m44.93,223.89c3.64-3.29,6.34-4.77,11.16-6.27-5.18-8.54-7.38-18.32-7.38-28.03,0-.02-11.61-5.54-16.06-16.5,0,0,0,0,0,0-5.27,14.84-3.34,37.82,12.28,50.8Z"/>
      <path class="cls-2" d="m49.16,193.82l.05.12c0-.05-.01-.1-.02-.16,0,.01-.02.03-.03.04Z"/>
      <path class="cls-2" d="m89.82,159.94c.09-.02.13-.04.13-.04,0,0-.06-.03-.15-.07l.02.11Z"/>
      <path class="cls-2" d="m117.12,327.73v-46.06c-27.41,17.09-26.2,48.77-26.2,48.77,0,25.65,25.5,47.32,51,54.78-14.2-16.1-24.8-23.8-24.8-57.49h0Z"/>
    </g>
    <path class="cls-2" d="m348.45,93.19c-27.19-30.12-66.54-49.05-110.32-49.05-10.09,0-19.94,1.01-29.47,2.93-57.76,11.87-85.62,51.5-85.62,51.5l-13.56,4.54c33.81-56.92,88.07-63.28,88.07-63.28-.94-1.03-1.9-2.01-2.86-2.95-7.47-7.27-18.76-8.94-28.09-4.28-21.4,10.68-49.77,24.84-62.08,30.98l-.16,33.01c-5.32-1.53-10.71-7.68-12.78-12.55-3.58,14.1-.88,25.62.21,29.02-7.9,5.42-18.65,14.75-21.78,19.79h13.27c-2.99,1.42-37.71,24.93-45.45,33.12,3.28.08,6.79,1,11.86,3.81,0,0,10.84-9.96,25.39-9.96,6.36,0,13.07,1.03,12.36,1.27-6.37,2.12-12.48,5.72-16.62,8.94,1.02,1.59.4.62,3.01,5.15,0,0-10.43,4.86-18.55,11.99,1.1,8.26,4.84,36.41,36.42,43.54,10.08,2.28,25.11,4.31,26.11,17.68l.09,7.24c-3.47-10.51-13.55-12.44-17.51-13.24-16.65-2.9-30.85-6.27-40.26-18.81-3.82,2.32-23.68,15.46-23.66,37.73,0,8.26.73,26.34,20.61,39.08v-22.59s12.77,9.48,12.77,34.68c.13-.3.26-.62.39-.94,2.94-23.36,22.69-41.48,46.77-41.84,1.01-.04,2.01-.07,3.02-.07h17.66s43.17-34.98-7.55-90.83c0,0,53.55,33.11,103.27,7.02-24.16-13.78-35.88-38.38-41.15-59.29,10.05-4.11,18.37-6.28,18.37-6.28,3.72-1.02,7.48-1.83,11.29-2.46-10.83-11.64-36.62-21.6-55.55-23.6-13.53-.97-27.56.83-27.56.83,18.82-16.42,59.69-33.93,108.02-34.01,36.04-.06,71.39,12.78,101.63,32.17ZM89.82,159.94l-.02-.11c.09.04.15.07.15.07,0,0-.05.01-.13.04Zm75.24-17.12s-39.69,2.72-64.74,12.98c0,0,1.36-6.19,15.69-12.98l-5.58-9.96h8.3v-8.6h14.34s31.99,0,31.99,18.56Z"/>
  </g>
</svg>