<?xml version="1.0" encoding="UTF-8"?>
<svg id="Layer_3" data-name="Layer 3" xmlns="http://www.w3.org/2000/svg" viewBox="108 349 1708 384">
  <defs>
    <style>
      .cls-1 {
        fill: #4f4f4f;
      }

      .cls-1, .cls-2 {
        stroke-width: 0px;
      }

      .cls-2 {
        fill: #acbd55;
      }
    </style>
  </defs>
  <g>
    <g>
      <path class="cls-2" d="m452.72,479.62c-.71,0-1.47.04-2.27.17-.84.13-1.68.04-2.65-.17h-.71c-.25,0-.59.04-1.05.17-.46.13-.84.04-1.05-.17h-6.64c-1.64,0-3.28-.13-4.92-.34h-3.86c-.25-.21-.84-.34-1.76-.34h-2.1c0-.21-.13-.34-.34-.34h-2.98c-1.05,0-2.14-.13-3.32-.34-.92,0-1.64-.13-2.1-.34h-1.05c-.25-.21-.46-.34-.71-.34h-.34c0-.21-.13-.34-.34-.34-.46,0-.71-.13-.71-.34-.25,0-.42-.04-.55-.17-.13-.13-.29-.17-.55-.17,0-.21-.25-.8-.71-1.76v-1.05l-.34-.34v-.34c0-.21-.04-.76-.17-1.55-.13-.8-.04-1.47.17-1.93v-1.05l.34-.34v-2.44c0-.46.04-.88.17-1.22.13-.34.17-.76.17-1.22,0-.92.13-1.64.34-2.1,0-.46.13-.8.34-1.05v-.34c.21-.21.34-.46.34-.71.46-.21,1.39-.59,2.81-1.05h3.15c1.18-.21,2.27-.42,3.32-.5,1.05-.13,2.14-.04,3.32.17h3.49c.21,0,.71-.04,1.39-.17.71-.13,1.18-.04,1.39.17h4.54c2.56.25,5.08.29,7.52.17s4.96-.17,7.52-.17c0,.25.13.34.34.34v-.34c1.89,0,3.61.04,5.17.17,1.55.13,3.28.17,5.17.17h1.76c.25,0,.42.04.55.17.13.13.29.17.55.17h7.1c2.14,0,4.37-.13,6.72-.34,2.1-.46,4.2-.76,6.3-.88,2.1-.13,4.45-.04,7.02.17h5.25c1.18.25,2.39.29,3.7.17,1.26-.13,2.52-.04,3.7.17.46,0,.88.04,1.22.17.34.13.76.17,1.22.17h1.05c.21,0,.42.04.55.17.13.13.29.17.55.17h1.76v.34h2.1c.21,0,.34.04.34.17s.13.17.34.17h.34c0,.25.13.34.34.34h.71c0,.25.13.46.34.71.21,0,.34.13.34.34.21.25.34.59.34,1.05s.13.92.34,1.39v1.22c0,.59.13,1.09.34,1.55v2.1c-.25.46-.29,1.01-.17,1.55.13.59.17,1.09.17,1.6l-.34.34v3.15c0,.25-.04.42-.17.55-.13.13-.17.29-.17.55v.34c-.25,0-.34.13-.34.34v.34c-.46,0-.71.25-.71.71v.71h-.34c-.46.46-1.3.76-2.44.88-1.18.13-2.35.29-3.49.55h-.34v.34-.34h-1.05c-.92,0-1.64.13-2.1.34-.25,0-.34-.04-.34-.17s-.13-.17-.34-.17-.34.13-.34.34h-11.55c0-.21-.13-.21-.34,0h-1.39c-.25-.21-.34-.21-.34,0h-6.64v.34c-.25-.46-.34-.5-.34-.17s-.13.42-.34.17h-.71c-1.18,0-1.97.13-2.44.34h-2.81c0,.25-.13.34-.34.34l-.34-.34c-.25,0-.42.04-.55.17-.13.13-.42.17-.88.17,0,5.38.13,10.46.34,15.25s.34,9.87.34,15.25v10.5c.21.25.21.46,0,.71v4.2c-.25.25-.25.34,0,.34v7.02c0,.25.04.34.17.34s.17.13.17.34c-.25,0-.34.13-.34.34v1.39c0,.25.04.34.17.34s.17.13.17.34v7.35l-.34.34c0,.25.04.42.17.5.13.13.17.29.17.55-.25.25-.34.46-.34.71h.34l-.34.34v5.25c0,.92.04,1.81.17,2.65.13.84.04,1.81-.17,2.98v16.13c0,2.35-.13,4.79-.34,7.35,0,.25.04.59.17,1.05s.04.84-.17,1.05v3.86c.21.25.21.34,0,.34-.25.25-.29.84-.17,1.76.13.92.17,1.64.17,2.1-.25,0-.34.13-.34.34.21,0,.34.13.34.34l-.34.34c0,.46.04,1.09.17,1.93.13.84.17,1.6.17,2.27h-.34c.21,0,.34.13.34.34s-.13.46-.34.71c.21.25.21.34,0,.34l.34.34-.34.34v3.49c-.25.71-.29,1.47-.17,2.27.13.84.17,1.68.17,2.65,0,.25-.04.46-.17.71s-.17.46-.17.71v.34l.34.71c-.25,0-.34.13-.34.34s.04.42.17.55c.13.13.17.29.17.5h-.34v2.81h.34c-.25,0-.34.34-.34,1.05v5.97c.21.25.34.46.34.71h-.34c0,.46.04.76.17.88s.17.42.17.88v5.97c.21,1.89.34,3.78.34,5.8v5.8c0,.46.04.84.17,1.05.13.25.17.59.17,1.05v8.74l.34.34-.34.34v.34c.21.25.34.92.34,2.1v6.64c.21,0,.21.13,0,.34v2.1c0,.25.04.34.17.34s.17.13.17.34l-.34.34c.21,0,.34.13.34.34.21,3.28.42,6.3.5,9.12.13,2.81.04,5.84-.17,9.12v3.49c-.25,1.89-.34,3.74-.34,5.59s-.13,3.74-.34,5.59v7.69c0,.25-.04.34-.17.34s-.17.13-.17.34c0,1.64-.13,2.94-.34,3.86v.34c0,.92-.25,1.89-.71,2.81,0,.92-.13,1.51-.34,1.76,0,.25-.13.34-.34.34l-.71.34c-.25.25-.59.34-1.05.34-.25.25-.42.34-.55.34s-.29.13-.55.34h-1.43c-.46.25-1.55.34-3.19.34-2.6.25-5.29.25-7.98,0-2.73-.21-5.04-.59-6.93-1.05-.25-.46-.34-1.05-.34-1.76,0-.21-.04-.34-.17-.34s-.17-.13-.17-.34v-1.05c-.46-1.39-.71-2.56-.71-3.49s.13-1.76.34-2.44v-3.49c.21-.46.34-1.05.34-1.76l-.34-.34.34-.34v-3.86h.34l-.34-.34v-.34c0-.21.04-.34.17-.34s.17-.13.17-.34h-.34l.34-.34v-3.49h.34c-.25,0-.34-.13-.34-.34,0-.92.13-1.64.34-2.1v-12.6l.34-.34-.34-.34.34-.34v-.34c-.25-.21-.34-.46-.34-.71v-2.44c-.25-.46-.25-1.01,0-1.6.21-.59.21-1.22,0-1.93v-.34h-.34c0-.21.04-.34.17-.34s.17-.13.17-.34c-.25,0-.34-.13-.34-.34v-1.05c0-.21.04-.34.17-.34s.17-.13.17-.34-.04-.42-.17-.55-.17-.29-.17-.5c.21,0,.34-.13.34-.34s-.04-.55-.17-.88c-.13-.34-.17-.76-.17-1.22.21,0,.34-.13.34-.34l-.34-.34v-1.76c-.25,0-.34-.13-.34-.34.21-.21.34-.59.34-1.05,0-.21-.13-.34-.34-.34.21,0,.34-.13.34-.34v-1.05c-.25-.21-.29-.55-.17-.88s.04-.76-.17-1.22v-1.76l.34-.34v-.34c0-.21-.04-.42-.17-.55s-.17-.42-.17-.88h.34c-.25,0-.34-.13-.34-.34v-.34c.21,0,.34-.13.34-.34h-.34v-8.07c0-.71-.13-1.18-.34-1.39v-.71c0-.21.04-.42.17-.55s.17-.29.17-.55v-1.05c0-.21-.04-.34-.17-.34s-.17-.13-.17-.34c0-.46-.04-1.01-.17-1.55-.13-.59-.04-1.09.17-1.6v-4.54c-.25-.21-.34-.46-.34-.71,0-.46.04-.88.17-1.22s.17-.76.17-1.22l-.34-.34v-2.1c0-.21.04-.34.17-.34s.17-.13.17-.34l-.34-.34v-9.12c0-1.39.13-2.9.34-4.54v-8.07c.21-.46.29-.88.17-1.22s-.17-.76-.17-1.22c0-.21.04-.34.17-.34s.17-.13.17-.34c-.25,0-.34-.13-.34-.34s.04-.42.17-.55.17-.29.17-.5v-7.35c.21-1.85.42-3.78.5-5.8.13-1.97.17-3.91.17-5.8v-.71c-.25-.21-.29-.55-.17-.88.13-.34.17-.76.17-1.22v-13.99c.21-.21.34-.59.34-1.05h-.34c0-.21.04-.34.17-.34s.17-.13.17-.34v-18.57c0-.21.04-.34.17-.34s.17-.13.17-.34c-.25,0-.34-.13-.34-.34.21-.21.34-.21.34,0,0-.21-.04-.34-.17-.34s-.17-.13-.17-.34c.21,0,.34-.13.34-.34l-.34-.34c.21,0,.34-.13.34-.34h-.34v-1.76c.21-.21.34-.46.34-.71h-.34l.34-.34c0-.21-.04-.34-.17-.34s-.17-.13-.17-.34h.34c0-.21-.04-.34-.17-.34s-.17-.13-.17-.34c.21,0,.34-.13.34-.34h-.34v-.71h.34c0-.21-.04-.34-.17-.34s-.17-.13-.17-.34l.34-.34c0-.21-.04-.29-.17-.17-.13.13-.04-.04.17-.5,0-.21-.04-.42-.17-.55-.13-.13-.17-.42-.17-.88.21,0,.34-.13.34-.34h-.34c0-.21.04-.34.17-.34s.17-.13.17-.34v-.34l-.34-.34c.21,0,.34-.13.34-.34l-.34-.34.34-.34c0-.46-.04-1.3-.17-2.44-.13-1.18-.04-2.23.17-3.15v-1.76c0-.21-.04-.34-.17-.34s-.04-.21.17-.71v-1.05c-.25-.46-.29-1.18-.17-2.1.13-.92.17-1.76.17-2.44,0-.46-.04-.92-.17-1.39-.13-.46-.04-.92.17-1.39v-8.07c-.25,0-.34-.13-.34-.34l.34-.34c0-.21-.04-.42-.17-.55-.13-.13-.17-.29-.17-.55s.04-.42.17-.55c.13-.13.17-.29.17-.55l-.34-.34v-12.94l.34-.34h-.34v-2.44h.34l-.34-.34v-2.1l.04-.63Z"/>
      <path class="cls-2" d="m617.27,720.55h-2.86c-.71,0-1.47.04-2.31.17s-1.85.17-3.02.17h-9.96c-.25-.25-.42-.29-.55-.17s-.29.04-.55-.17c-.25,0-.34-.13-.34-.34l-.34-.34c0-.25-.04-.42-.17-.5-.13-.13-.17-.42-.17-.88l-1.05-2.1c-.46-1.39-.84-2.56-1.05-3.49-.25-.92-.34-2.23-.34-3.86-.25-1.18-.34-2.9-.34-5.25l-.34-.34c0-.46-.04-.8-.17-1.05-.13-.21-.17-.59-.17-1.05,0-1.39-.13-2.35-.34-2.81v-.34c-.46-1.85-.71-3.49-.71-4.92-.25-.21-.34-.59-.34-1.05l-.34-.34v-.34c0-1.18-.25-2.69-.71-4.54v-1.39c-.46-1.85-.71-3.49-.71-4.92-.25-1.18-.34-2.14-.34-2.98v-2.65c-.25-1.39-.42-2.73-.55-4.03s-.29-2.65-.55-4.03v-1.39c0-.46-.04-.76-.17-.88s-.17-.42-.17-.88v-.71c-.25-.46-.42-1.18-.5-2.1-.13-.92-.29-1.76-.55-2.44v-1.05c0-1.64-.13-2.81-.34-3.49v-.34c-.25-.21-.34-.8-.34-1.76h-.34c0-.21.13-.34.34-.34l-1.05-7.35c-.46-2.31-.71-4.07-.71-5.25-.46-.21-1.01-.29-1.55-.17-.59.13-1.09.17-1.6.17l-.34-.34c0,.25-.25.34-.71.34,0-.21-.13-.34-.34-.34,0,.25-.13.34-.34.34,0-.21-.13-.34-.34-.34s-.34.04-.34.17-.13.17-.34.17v-.34h-6.3c-.46-.21-1.09-.34-1.93-.34h-2.27c-.71,0-1.39-.04-2.1-.17-.71-.13-1.51-.17-2.44-.17-.25-.21-.34-.21-.34,0h-1.39c-.25,0-.34-.04-.34-.17s-.13-.17-.34-.17-.34.04-.34.17-.13.17-.34.17c0-.21-.13-.34-.34-.34h-8.4c-.46,0-.88-.04-1.22-.17-.34-.13-.76-.17-1.22-.17v-.34c-.25.25-1.18.34-2.81.34-.92,0-1.81.04-2.65.17-.84.13-1.81.17-2.98.17,0,2.35-.13,4.07-.34,5.25,0,.92-.13,1.76-.34,2.44v2.1c-.25,1.18-.34,2.94-.34,5.25-.25.92-.34,1.93-.34,2.98s-.13,2.14-.34,3.32v4.92c-.25.71-.34,1.89-.34,3.49l-.34.34c0,.25.04.46.17.71.13.25.04.59-.17,1.05v2.44c-.25,1.85-.42,3.78-.55,5.8-.13,1.97-.42,4.03-.88,6.13v.34c0,.92-.13,1.76-.34,2.44,0,.46-.04,1.05-.17,1.76s-.17,1.3-.17,1.76v1.05c0,1.18-.13,1.97-.34,2.44v1.39c-.46,1.89-.71,3.61-.71,5.25v.34c0,.46-.04,1.09-.17,1.93-.13.84-.17,1.47-.17,1.93v2.1c-.25.25-.34,1.18-.34,2.81l-.34.34c0,.25.04.34.17.34s.17.13.17.34h-.34c0,.92-.13,1.64-.34,2.1v1.05c0,.25-.04.42-.17.55s-.17.29-.17.55c-.25.46-.29,1.05-.17,1.76.13.71.04,1.3-.17,1.76,0,.71-.13,1.18-.34,1.39,0,.71-.13,1.18-.34,1.39-.46.46-.88.63-1.22.55-.34-.13-.88-.04-1.55.17-.46,0-.92.04-1.39.17-.46.13-.92.17-1.39.17h-6.3c-2.1,0-4.2-.13-6.3-.34h-3.15l-.34-.34c-1.18,0-1.89-.13-2.1-.34-.25-.71-.29-1.34-.17-1.93.13-.59.17-1.22.17-1.93v-1.76h.34v-3.15c0-1.85.13-3.28.34-4.2v-1.76c.21-.46.34-1.18.34-2.1v-2.1c.21,0,.34-.13.34-.34l-.34-.34c0-.21.04-.34.17-.34s.17-.13.17-.34v-1.05c0-.46.13-.92.34-1.39.21-1.39.34-2.86.34-4.37s.13-3.11.34-4.75v-1.05c.21-.46.34-.92.34-1.39s.13-.92.34-1.39v-2.44c0-.71.04-1.39.17-2.1s.17-1.39.17-2.1c.21-1.39.42-2.81.55-4.2.13-1.39.17-2.9.17-4.54.21-.46.34-1.01.34-1.55s.13-1.09.34-1.6v-4.54c.21-.92.34-2.44.34-4.54.21-.46.34-1.18.34-2.1v-3.15h.34v-2.44c.21-1.18.34-2.31.34-3.49s.13-2.35.34-3.49v-2.81c.21-.46.29-.92.17-1.39-.13-.46-.04-1.05.17-1.76.21-.21.29-.59.17-1.05-.13-.46-.04-.92.17-1.39v-.34c-.25-.46-.29-.76-.17-.88.13-.13.17-.29.17-.55v-.34c.21-.21.29-.59.17-1.05-.13-.46-.17-.92-.17-1.39l.34-.34v-3.15c0-.71.13-1.39.34-2.1-.25-.21-.25-.34,0-.34v-1.76c0-.21.04-.34.17-.34s.17-.21.17-.71v-2.27c0-.8.13-1.55.34-2.27,0-.92.13-1.64.34-2.1.21-1.64.34-3.28.34-4.92s.21-3.28.71-4.92v-.71c0-.71.04-1.47.17-2.27s.17-1.6.17-2.27c.21-.92.34-2.35.34-4.2,0-.71.04-1.47.17-2.27.13-.8.17-1.55.17-2.27.21-.92.34-2.31.34-4.2.21-.92.34-2.1.34-3.49v-.71c.21-.46.34-1.22.34-2.27s.13-1.93.34-2.65v-4.54c.21-.71.34-1.39.34-2.1s.13-1.51.34-2.44c0-.92.04-1.81.17-2.65.13-.8.17-1.68.17-2.65.21-1.18.42-2.44.5-3.86.13-1.39.29-2.69.55-3.86.21-2.1.42-4.2.55-6.3.13-2.1.29-4.33.55-6.64.21-1.18.42-2.23.55-3.15s.17-1.97.17-3.15c.21-.46.34-1.26.34-2.44.21-.46.34-1.3.34-2.44v-.71c0-.21.04-.42.17-.55.13-.13.17-.29.17-.55,0-.71.04-1.39.17-2.1.13-.71.17-1.39.17-2.1.46-1.64.76-3.19.88-4.75.13-1.51.29-3.19.55-5.08v-1.76c0-.71.13-1.18.34-1.39.21-.46.29-.88.17-1.22-.13-.34-.04-.63.17-.88v-2.1c.21-.46.34-1.18.34-2.1s.13-1.76.34-2.44c0-.46.04-.92.17-1.39.13-.46.17-1.05.17-1.76v-.71c0-.21.21-1.05.71-2.44v-2.44c.21-.46.34-.8.34-1.05v-.71c.21,0,.34-.21.34-.71v-1.76c.21-.21.34-.8.34-1.76v-1.39c0-.21.13-.34.34-.34.21-1.18.42-2.14.55-2.98.13-.8.29-1.68.55-2.65v-1.76l.34-.34c0-1.39.21-2.81.71-4.2.21-.46.29-.76.17-.88-.13-.13-.04-.42.17-.88v-1.05c.21,0,.34-.21.34-.71s.04-1.05.17-1.76.17-1.26.17-1.76c.21-.46.34-1.05.34-1.76l.34-.34v-1.05c0-.21.13-.46.34-.71,0-.92.13-1.64.34-2.1,0-.46.04-.8.17-1.05.13-.21.17-.59.17-1.05s.13-.92.34-1.39v-.71c0-.21.04-.34.17-.34s.17-.13.17-.34v-1.05c0-.21.04-.34.17-.34s.17-.13.17-.34.13-.59.34-1.05c0-.46.13-.8.34-1.05,0-.92.13-1.64.34-2.1,0-.46.13-.71.34-.71v-.34c.46-1.64,1.05-2.56,1.76-2.81.46-.46,1.09-.71,1.93-.71h2.98c.92,0,1.85.04,2.81.17.92.13,1.76.04,2.44-.17h10.5c.21,0,.34-.13.34-.34,1.18,0,2.65.04,4.37.17,1.76.13,3.19.17,4.37.17.46.25.92.29,1.39.17.46-.13.8-.04,1.05.17.21,0,.46.13.71.34v.34l.34.34.34.34.34.34v.34c.21.71.42,1.55.55,2.65.13,1.05.29,2.06.55,2.98.21,0,.34.25.34.71.21.46.34.84.34,1.05s.13.59.34,1.05c0,.46.21,1.39.71,2.81,0,.46.04.76.17.88s.17.42.17.88v.34c.21.46.34,1.18.34,2.1,0,.46.04.76.17.88s.17.42.17.88c0,.25.13.59.34,1.05,0,.92.21,2.1.71,3.49.46,3.02.92,5.88,1.39,8.57s.92,5.55,1.39,8.57c.21,1.39.46,2.86.71,4.37.21,1.51.46,2.98.71,4.37.21,1.18.34,2.23.34,3.15s.21,1.97.71,3.15v.71c0,.46.04.84.17,1.05.13.25.17.59.17,1.05v.34c.21.92.42,1.97.55,3.15.13,1.18.42,2.35.88,3.49v2.1h.34v2.81c.21.46.42,1.18.55,2.1.13.92.29,1.89.5,2.81,0,.25.04.46.17.71.13.25.17.46.17.71,0,.92.13,1.64.34,2.1v1.39c.46.92.71,2.1.71,3.49,0,1.18.13,2.1.34,2.81v1.39c.21,0,.34.25.34.71v1.05c0,.25.04.46.17.71.13.25.17.59.17,1.05v1.05c0,.25.04.42.17.55.13.13.17.29.17.55v.71c0,.25.04.59.17,1.05.13.46.17.92.17,1.39.46,1.39.71,2.35.71,2.81v.34c.21.71.34,1.64.34,2.81,0,.46.21,1.39.71,2.81,0,1.18.25,2.44.8,3.86,0,.71.08,1.34.21,1.93.13.59.21,1.09.21,1.55,0,.25.13.46.38.71,0,.92.13,1.76.38,2.44.25.46.38,1.05.38,1.76s.13,1.39.38,2.1c0,.71.13,1.3.38,1.76v1.76c0,.25.04.34.17.34s.17.13.17.34c0,.71.13,1.3.34,1.76v.71c.21.71.34,1.51.34,2.44s.13,1.76.34,2.44v1.76c0,.25.04.34.17.34s.17.13.17.34c0,.46.04,1.01.17,1.55.13.59.17,1.09.17,1.6.21.25.29.42.17.55-.13.13-.04.42.17.88,0,.92.13,1.64.34,2.1,0,.46.04,1.05.17,1.76.13.71.17,1.3.17,1.76.21.46.34.92.34,1.39s.13.92.34,1.39c0,.25.04.46.17.71.13.25.17.46.17.71,0,.46.04.92.17,1.39s.17.92.17,1.39.04.84.17,1.05c.13.25.17.59.17,1.05v.34c0,.25.04.59.17,1.05s.17.92.17,1.39v.71c.21.46.42,1.18.55,2.1.13.92.29,1.76.55,2.44.21,1.39.42,2.81.5,4.2.13,1.39.29,2.94.55,4.54.46,2.1.8,4.24,1.05,6.47.21,2.23.59,4.5,1.05,6.85,0,1.18.13,2.1.34,2.81v1.05c.46.46.59.71.34.71,0,.92.13,1.93.34,2.98.21,1.05.46,2.06.71,2.98v2.1c.21.46.34,1.18.34,2.1s.13,1.76.34,2.44c.21,1.18.34,2.23.34,3.15v3.15c.21.25.21.34,0,.34h.34c0,.46.04.92.17,1.39s.17.92.17,1.39v1.05l.34.71c0,.71.13,1.3.34,1.76v.71c0,.46.13.71.34.71v1.05c.21.25.34.63.34,1.22s.13,1.09.34,1.55c.21.46.34.92.34,1.39s.13.92.34,1.39v.34c0,.25.04.42.17.55s.17.29.17.55v.71c0,.25.13.34.34.34v1.05c.21.46.34,1.05.34,1.76,0,.25.04.42.17.55s.17.42.17.88v1.05l.34.34c0,.71.13,1.3.34,1.76v.71c.21,0,.34.13.34.34,0,.92.13,1.64.34,2.1,0,.25.04.55.17.88.13.34.17.76.17,1.22,0,.92.13,1.51.34,1.76,0,.25.13.46.34.71-.25.25-.25.46,0,.71v1.05c.21.25.34.92.34,2.1.46,1.85.71,3.4.71,4.54.21.25.34.92.34,2.1h.71v2.44c.71,2.81,1.05,5.5,1.05,8.07v1.05l.71,1.39v2.44c.21.25.34.92.34,2.1v2.81l.34.34-.34.34.34.34c-.25.21-.34.46-.34.71v1.05c-.46.46-1.3.71-2.48.71l.55-.25Zm-35.33-103.3c0-.21-.04-.46-.17-.71-.13-.21-.17-.46-.17-.71h.34c0-.21-.13-.42-.34-.55-.25-.13-.34-.29-.34-.55h.34v-.71c-.25-.21-.34-.92-.34-2.1-.25,0-.34-.46-.34-1.39,0-.46-.04-.92-.17-1.39-.13-.46-.17-.92-.17-1.39l-1.05-4.2c-.25-1.39-.46-2.81-.71-4.2s-.46-2.9-.71-4.54c-.25-.46-.34-.92-.34-1.39v-1.39c-.25-.46-.34-1.18-.34-2.1l-.34-.34c0-1.39-.13-2.44-.34-3.15v-.34c-.25-.71-.34-1.55-.34-2.65s-.13-1.81-.34-2.27v-.34c0-.71-.04-1.47-.17-2.27s-.17-1.47-.17-1.93v-.34l-.34-.71v-.34c0-.46-.04-.92-.17-1.39-.13-.46-.17-.92-.17-1.39-.25-.71-.34-1.39-.34-2.1s-.13-1.51-.34-2.44c-.25-.71-.34-1.39-.34-2.1s-.13-1.3-.34-1.76v-.34c-.25-.46-.34-1.18-.34-2.1,0-1.18-.13-1.97-.34-2.44v-.71c-.25-.21-.34-.46-.34-.71v-1.39c0-.46-.04-.76-.17-.88s-.17-.42-.17-.88c-.25-.92-.42-1.93-.55-2.98-.13-1.05-.29-1.93-.55-2.65v-1.39c-.25-.46-.34-.92-.34-1.39v-.34c0-1.18-.13-1.97-.34-2.44v-3.49c-.46-.92-.71-1.64-.71-2.1v-.34c0-.46-.04-.92-.17-1.39-.13-.46-.17-.92-.17-1.39-.25-.46-.34-.92-.34-1.39s-.13-.92-.34-1.39v-2.44c-.46-1.39-.71-2.56-.71-3.49-.25-.46-.34-.92-.34-1.39-.25-.46-.34-.92-.34-1.39,0-.71-.04-1.39-.17-2.1-.13-.71-.17-1.26-.17-1.76l-.71-1.39v-2.1c-.25-.21-.34-.59-.34-1.05v-.71l-.34-.34v-2.1c-.46-1.64-.76-3.32-.88-5.08-.13-1.76-.42-3.44-.88-5.08,0-.92-.04-1.85-.17-2.81-.13-.92-.17-1.76-.17-2.44v-.71c-.25-.92-.34-1.85-.34-2.81s-.13-1.85-.34-2.81l-.34-.34v-2.44c-.25-.71-.42-1.34-.55-1.93s-.17-1.22-.17-1.93c0-.21-.04-.42-.17-.55-.13-.13-.17-.29-.17-.55-.25,0-.34-.34-.34-1.05,0-.92-.13-1.39-.34-1.39v-.71c0-.46-.04-1.05-.17-1.76s-.17-1.26-.17-1.76v-1.76c0-.71-.13-1.26-.34-1.76-.25,0-.34-.13-.34-.34-.71-.21-1.39-.21-2.1,0-.46,0-.71.13-.71.34-.25.25-.29.42-.17.5.13.13.04.29-.17.55v1.76c-.25.25-.34.59-.34,1.05v.71c0,.46-.04.88-.17,1.22-.13.34-.17.76-.17,1.22v.71c-.25.71-.34,1.85-.34,3.49,0,1.18-.25,2.44-.71,3.86v.34c-.25.92-.34,1.76-.34,2.44s-.13,1.39-.34,2.1v.34c0,1.64-.13,2.81-.34,3.49v.34c0,1.18-.13,1.97-.34,2.44,0,.92-.13,1.64-.34,2.1v2.44c-.25.71-.34,1.47-.34,2.27s-.13,1.6-.34,2.27c-.25,1.85-.42,3.91-.55,6.13-.13,2.23-.29,4.28-.55,6.13v1.05c-.25.71-.34,1.6-.34,2.65s-.13,1.93-.34,2.65v1.39c-.25.71-.34,1.51-.34,2.44v1.05c0,.71-.04,1.34-.17,1.93-.13.59-.17,1.09-.17,1.55l-1.05,9.45c0,.71-.04,1.51-.17,2.44s-.17,1.76-.17,2.44v.34c0,.71-.04,1.34-.17,1.93s-.17,1.22-.17,1.93c-.25.46-.34,1.18-.34,2.1v2.44h-.34v.71c0,1.64-.13,2.81-.34,3.49,0,.92-.04,1.93-.17,2.98s-.17,1.93-.17,2.65v1.39c-.25.46-.29.88-.17,1.22.13.34.04.76-.17,1.22v.71c0,.71-.04,1.6-.17,2.65-.13,1.05-.17,1.81-.17,2.27v2.1c0,.71-.13,1.3-.34,1.76v6.64c-.25,1.18-.42,2.23-.55,3.15-.13.92-.17,1.89-.17,2.81v3.49l-1.05,11.55c-.25,1.18-.42,2.35-.55,3.49-.13,1.18-.17,2.35-.17,3.49,0,.25-.04.55-.17.88s-.04.76.17,1.22c.46.25,1.05.29,1.76.17.71-.13,1.26-.17,1.76-.17h1.39c.21-.21.34-.21.34,0,.71-.21,1.51-.34,2.44-.34h4.54c.46,0,1.01.04,1.55.17.59.13,1.09.17,1.6.17l.34-.34.34.34.34-.34v.34h1.39v-.34l.34.34h11.55c.71.25,1.76.34,3.15.34h.71c0,.25.13.25.34,0h1.05c.92.25,2.23.34,3.86.34v-1.05l-.59.04Z"/>
      <path class="cls-2" d="m678.61,558.05c.46.25.76.59.88,1.05.13.46.42.92.88,1.39,0,.25.04.34.17.34s.17.13.17.34.04.34.17.34.17.13.17.34l.34.34v.34c.46.46.8.92,1.05,1.39l.34.71h.34c-.25.25-.25.34,0,.34v.71h.34v.34c.21.25.34.46.34.71l.34.34.34.34v.34l.34.34c.21.25.34.59.34,1.05.21,0,.34.13.34.34v.34c.46.92.92,1.76,1.39,2.44,0,.25.13.46.34.71,0,.46.13.71.34.71v.71h.34v.34c.21,0,.34.13.34.34-.25,0-.13.25.34.71.21.46.42.84.55,1.05.13.25.29.59.5,1.05l.34.34c.21.25.34.46.34.71v.34c0,.25.04.34.17.34s.17.13.17.34l.71,1.39h.34v.34c0,.25.21.84.71,1.76h.34v.71c.21,0,.34.13.34.34.21,0,.34.13.34.34h.34v.71c.21,0,.34.13.34.34.21.25.34.46.34.71.21,0,.34.13.34.34s.13.46.34.71v.34l.34.34c0,.25.13.46.34.71,0,.25.13.34.34.34,0,.46.13.84.34,1.05l.34.34c0,.46.13.84.34,1.05,0,.25.04.34.17.34s.17.13.17.34v.34c.21,0,.34.13.34.34l.34.34v.34l.34.34c0,.25.13.46.34.71,0,.25.13.34.34.34v.34l.34.34c.46.46.71,1.05.71,1.76l.34.34.34.34v1.05h.34v.34c.21,0,.34.13.34.34v.71l1.05,1.76c0,.25.04.46.17.71s.17.59.17,1.05l.34.34v.34c0,.46.13.71.34.71v1.05c.21.46.34.76.34.88s.13.42.34.88v.71c.21.25.29.34.17.34s-.04.13.17.34v.34c.21.25.34.59.34,1.05.21.71.46,1.51.71,2.44.21.92.46,1.85.71,2.81,0,.71.13,1.18.34,1.39v.34c0,.25.04.46.17.71s.17.59.17,1.05c.21.71.42,1.47.55,2.27.13.84.29,1.6.55,2.27-.25.25-.25.34,0,.34v1.76c.21.25.34.59.34,1.05v.71c0,.46.13.84.34,1.05v.34c0,.92.13,1.64.34,2.1v1.05c.21.46.34,1.39.34,2.81v1.05l.34.71c0,1.64.13,2.94.34,3.86v1.05c0,.46.04.92.17,1.39s.17.92.17,1.39v4.2l.34.34v3.49c0,.25.04.42.17.5.13.13.17.29.17.55v2.81c.21.25.29.5.17.88-.13.34-.17.76-.17,1.22.21.46.34,1.18.34,2.1v3.15c0,.92-.13,1.97-.34,3.15v1.76c-.25.25-.34.92-.34,2.1v.34c0,.46-.04.88-.17,1.22s-.17.76-.17,1.22v.34c-.25.46-.34,1.18-.34,2.1v2.1c-.25,1.85-.42,3.57-.55,5.08-.13,1.51-.29,3.11-.55,4.75-.25.25-.29.46-.17.71.13.25.04.46-.17.71,0,.46-.04.88-.17,1.22s-.17.63-.17.88c-.25.46-.34,1.05-.34,1.76-.25.46-.42.88-.55,1.22s-.29.76-.55,1.22c0,.46-.13.71-.34.71.46.46.34.71-.34.71,0,.92-.13,1.68-.34,2.27-.25.59-.46,1.22-.71,1.93-.25,0-.34.13-.34.34-.25,0-.29.13-.17.34.13.25.04.46-.17.71v.34l-.34,1.05c-.25.25-.34.42-.34.55s-.13.29-.34.55v.71c-.25,0-.34.13-.34.34l-.34.71-.34.34v.34c-.25,0-.34.04-.34.17s-.13.17-.34.17c0,.25-.13.34-.34.34,0,.25-.25.59-.71,1.05-.46.46-.84.92-1.05,1.39h-.34l-.34.34c0,.25-.13.34-.34.34v.34h-.34c-.25,0-.34.13-.34.34s-.13.34-.34.34c-.25.25-.46.34-.71.34l-.34.34h-.34l-.71.71h-.34c-.25.25-.46.34-.71.34l-.34.34h-.71c.21,0,.21.13,0,.34h-.34l-.71.34h-.34c-.25,0-.29.04-.17.17.13.13.04.17-.17.17h-.34c0-.21-.34,0-1.05.71h-.34v.34h-.71c-.25,0-.29.04-.17.17.13.13.04.17-.17.17-.71,0-1.18.13-1.39.34-.25.21-.46.34-.71.34h-.71c-.46.21-1.18.34-2.1.34h-.71v.34c-.46,0-.88.04-1.22.17-.34.13-.76.17-1.22.17-2.35.46-4.33.71-5.97.71-1.85.46-3.86.46-5.97,0-2.1,0-3.61-.13-4.54-.34h-2.44c-.25-.25-.71-.34-1.39-.34h-.34c-.46-.25-1.01-.34-1.55-.34s-1.09-.13-1.6-.34l-2.1-1.05h-1.05c-.46-.25-.76-.34-.88-.34s-.42-.13-.88-.34c-.25,0-.42-.04-.55-.17s-.29-.17-.55-.17h-.34c-.25,0-.34-.04-.34-.17s-.13-.17-.34-.17c0-.21-.25-.34-.71-.34-.25,0-.29-.04-.17-.17.13-.13.04-.17-.17-.17h-.34c-.25-.21-.46-.34-.71-.34l-.34-.34-.34-.34h-.34c0-.46-.25-.71-.71-.71,0-.21-.13-.34-.34-.34s-.34-.04-.34-.17-.13-.17-.34-.17l-1.05-1.05h-.34v-.71c-.25,0-.59-.21-1.05-.71v-.34h-.34c-.25-.21-.34-.42-.34-.55s-.13-.29-.34-.55l-.34-.34c-.25,0-.34-.13-.34-.34-.46-.46-.92-1.18-1.39-2.1-.71-.92-1.18-1.85-1.39-2.81-.25,0-.34-.13-.34-.34-.25-.21-.34-.42-.34-.55s-.13-.29-.34-.55v-.34c0-.21-.04-.34-.17-.34s-.17-.13-.17-.34l-.71-1.39v-.71h-.34c0-.46-.25-.92-.71-1.39v-.71c-.25-.21-.34-.46-.34-.71v-.34l-.34-.34c0-.46-.13-.92-.34-1.39v-1.05c-.46-.46-.71-1.3-.71-2.44,0-.71-.13-1.18-.34-1.39v-.34c-.46-2.56-.63-5.13-.55-7.69.13-2.56.04-5.13-.17-7.69,0-1.18-.04-2.39-.17-3.7-.13-1.26-.17-2.65-.17-4.03-.25-3.02-.25-6.05,0-9.12.21-3.02.59-5.97,1.05-8.74v-.34c.21-.92.42-1.85.55-2.81.13-.92.29-1.85.55-2.81,0-.71.13-1.18.34-1.39v-.71c0-.21.04-.34.17-.34s.17-.13.17-.34v-.34h.34v-.34c0-.21.04-.29.17-.17s.17.04.17-.17v-.34h.71l.34-.34h3.15c.21,0,.42-.04.55-.17.13-.13.29-.17.55-.17.46,0,1.01.04,1.55.17.59.13,1.09.17,1.6.17s.88-.04,1.22-.17c.34-.13.76-.04,1.22.17h1.6c.59,0,1.09.13,1.55.34h2.27c.8,0,1.68.25,2.65.71h.71c.46.46.8.71,1.05.71.21,1.18.42,2.39.5,3.7.13,1.3.17,2.65.17,4.03v1.05c0,.25-.04.42-.17.55s-.17.29-.17.55v2.1c0,1.39-.13,2.56-.34,3.49.21.25.21.46,0,.71v4.2c-.25.25-.25.34,0,.34,0,.25-.04.46-.17.71s-.17.46-.17.71v3.15c-.25.46-.29,1.05-.17,1.76.13.71.17,1.3.17,1.76,0,.25-.04.42-.17.5-.13.13-.17.29-.17.55.21,0,.34.13.34.34h-.34l.34.34c0,.25-.04.29-.17.17s-.17-.04-.17.17c.21.25.34.46.34.71v2.1c0,.25.04.46.17.71s.17.46.17.71v1.39c.21,0,.34.25.34.71s.13.92.34,1.39c0,1.18.13,1.97.34,2.44v1.05l.71,1.39v.34c.21.46.46.92.71,1.39.21.46.46.92.71,1.39,0,.25.04.46.17.71.13.25.17.46.17.71.46.46.71.84.71,1.05v.34l.34.34v.34c.21,0,.34.25.34.71,0,.25.13.34.34.34,0,.25.13.34.34.34-.25,0-.25.13,0,.34l.71.71c0,.25.21.59.71,1.05l.71.71c.71.71,1.3,1.18,1.76,1.39,0,.25.04.34.17.34s.17.13.17.34h.34l.34.34h.34c0,.25.13.34.34.34l.34.34h.34v.34h.34c.21.25.55.42.88.5.34.13.76.29,1.22.55.21.25.59.34,1.05.34.71,0,1.97-.21,3.86-.71h.34c.21,0,.55-.04.88-.17s.76-.17,1.22-.17c.46-.21.8-.34,1.05-.34s.59-.13,1.05-.34l.71-.34v-.34h.34l2.44-2.44c.46-.46.88-1.05,1.22-1.76.34-.71.76-1.26,1.22-1.76l.34-.34c0-.21.04-.34.17-.34s.17-.13.17-.34c.46-.92.71-1.51.71-1.76.21-.21.34-.46.34-.71s.04-.42.17-.5c.13-.13.17-.29.17-.55.21-.71.34-1.76.34-3.15.21-.71.34-1.51.34-2.44,0-.71.04-1.39.17-2.1s.17-1.39.17-2.1v-4.54c0-.21.04-.42.17-.55s.17-.29.17-.55v-.71c-.25-.21-.34-.46-.34-.71l.34-.34h-.34c.21-.21.34-.63.34-1.22v-1.6l-1.05-8.4v-1.05c0-.46-.04-1.09-.17-1.93-.13-.8-.17-1.47-.17-1.93-.25-1.18-.34-2.27-.34-3.32s-.13-2.14-.34-3.32c0-1.18-.04-2.27-.17-3.32-.13-1.05-.29-2.14-.55-3.32v-1.76l-.34-.34v-1.05c-.25-.92-.34-2.1-.34-3.49-.25-.21-.34-.59-.34-1.05-.25,0-.34-.13-.34-.34s-.04-.34-.17-.34-.17-.13-.17-.34v-1.05c-.46-.46-.71-1.05-.71-1.76-.25-.21-.34-.46-.34-.71v-.34c-.25-.21-.34-.46-.34-.71-.25-.21-.34-.46-.34-.71s-.04-.42-.17-.5c-.13-.13-.17-.29-.17-.55,0-.46-.13-.8-.34-1.05-.25,0-.34-.13-.34-.34v-.71c-.25-.21-.34-.8-.34-1.76h-.34c0-.46-.13-.8-.34-1.05l-1.05-3.15c0-.21-.13-.34-.34-.34v-.34c0-.21-.13-.46-.34-.71-.25-.21-.34-.71-.34-1.39h-.34c0-.21-.04-.34-.17-.34s-.17-.13-.17-.34v-.34c0-.46-.13-.8-.34-1.05-.25-.21-.34-.46-.34-.71s-.13-.46-.34-.71v-.34l-.34-.71v-.34c-.25-.21-.34-.46-.34-.71h-.34c0-.71-.13-1.18-.34-1.39-.25,0-.34-.13-.34-.34v-.34c0-.21-.04-.42-.17-.55s-.17-.29-.17-.55l-.34-.34c0-.21-.04-.42-.17-.55s-.17-.29-.17-.5c-.25,0-.34-.13-.34-.34v-.71c-.46,0-.71-.46-.71-1.39h-.34v-.34c0-.21-.04-.42-.17-.55s-.17-.29-.17-.5c-.25-.21-.34-.46-.34-.71v-.34l-1.05-1.05c0-.92-.25-1.51-.71-1.76,0-.46-.13-.8-.34-1.05v-.34c-.25,0-.34-.13-.34-.34v-.34c-.25,0-.34-.13-.34-.34s-.13-.46-.34-.71v-.71h-.34c0-.46-.13-.71-.34-.71v-.34c-.25,0-.34-.13-.34-.34s-.04-.34-.17-.34-.17-.13-.17-.34c-.25-.46-.34-.8-.34-1.05s-.13-.59-.34-1.05c-.25,0-.34-.13-.34-.34-.25-.21-.34-.46-.34-.71-.25-.21-.34-.46-.34-.71s-.13-.46-.34-.71c0-.21-.13-.34-.34-.34v-.71l-.34-.34v-.71h-.34c0-.46-.25-.92-.71-1.39,0-.21-.13-.46-.34-.71,0-.21-.13-.46-.34-.71l-.34-.34v-.34l-.34-.34c0-.46-.13-.8-.34-1.05l-.34-.71c-.25-.21-.34-.42-.34-.55s-.13-.29-.34-.55l-.34-.34c0-.21-.13-.46-.34-.71-.25-.21-.34-.46-.34-.71s-.04-.34-.17-.34-.17-.13-.17-.34c0-.46-.13-.71-.34-.71v-.34l-.34-.34c-.25-.21-.29-.34-.17-.34s.04-.13-.17-.34c0-.46-.25-.92-.71-1.39,0-.21-.04-.34-.17-.34s-.17-.13-.17-.34l-.34-.34v-.71h-.34v-.71h-.34c0-.21-.13-.46-.34-.71v-.71l-.71-1.39-.34-.34-2.1-4.2c0-.21-.04-.34-.17-.34s-.17-.13-.17-.34c-.25-.21-.34-.42-.34-.5s-.13-.29-.34-.55c0-.21-.04-.34-.17-.34s-.17-.13-.17-.34l-.34-.34v-.34l-.34-.34c0-.21-.04-.34-.17-.34s-.17-.13-.17-.34-.13-.34-.34-.34c0-.46-.13-.71-.34-.71l-.34-.34c.21-.21.21-.34,0-.34l-.71-1.39v-.34c-.25,0-.34-.13-.34-.34s-.13-.46-.34-.71l-.34-.34v-.71h-.34c-.25-.21-.34-.59-.34-1.05-.46-.46-.59-.71-.34-.71,0-.21-.04-.34-.17-.34s-.17-.13-.17-.34-.13-.34-.34-.34v-.71l-.34-.34-.34-.34v-.71c-.25,0-.34-.13-.34-.34s-.04-.42-.17-.5c-.13-.13-.17-.29-.17-.55s-.13-.34-.34-.34c0-.21-.13-.34-.34-.34v-.71c0-.21-.13-.46-.34-.71-.25-.21-.34-.46-.34-.71s-.13-.46-.34-.71v-.34c-.25-.21-.34-.46-.34-.71-.25,0-.34-.13-.34-.34v-.34c-.25,0-.34-.13-.34-.34v-.71c0-.21-.13-.46-.34-.71-.25-.21-.34-.59-.34-1.05h-.34v-.71h-.34c0-.46-.13-.8-.34-1.05v-.34c-.25-.21-.34-.46-.34-.71-.46-.92-.71-1.76-.71-2.44-.46-.92-.71-1.76-.71-2.44-.25-.21-.34-.59-.34-1.05h-.34c0-.46-.13-.92-.34-1.39-.25-.21-.34-.59-.34-1.05v-1.05h-.34v-.71h-.34v-1.39h-.34c0-.21-.04-.46-.17-.71-.13-.21-.17-.46-.17-.71v-.71c-.25,0-.34-.13-.34-.34s-.04-.55-.17-.88c-.13-.34-.17-.76-.17-1.22v-1.05c0-.21-.25-1.05-.71-2.44v-2.81c-.25-1.18-.42-2.31-.55-3.49-.13-1.18-.17-2.44-.17-3.86.21,0,.34-.13.34-.34h-.34c0-.21.04-.42.17-.55s.17-.29.17-.55h-.34c0-.21.04-.34.17-.34s.17-.13.17-.34c-.25-.21-.34-.8-.34-1.76l.34-.34c-.25-.21-.34-.59-.34-1.05v-2.1h.34c0-1.18.04-2.39.17-3.7s.29-2.52.55-3.7c.21-.71.42-1.34.5-1.93.13-.59.29-1.22.55-1.93v-.71l.34-.34-.34-.34c.46-.46.71-1.18.71-2.1v-.71c.21,0,.34-.13.34-.34v-.71c.46-.46.71-1.05.71-1.76.21-.21.34-.59.34-1.05h.34c0-.71.13-1.05.34-1.05v-.71l.34-.34v-.34l1.05-2.1c0-.21.04-.42.17-.5.13-.13.17-.29.17-.55.21,0,.34-.13.34-.34v-.71l.34-.34v-.34h.34c0-.46.13-.71.34-.71,0-.21.13-.34.34-.34v-.71c.21-.21.59-.8,1.05-1.76.46-.21.92-.8,1.39-1.76l.34-.34v-.34h.34v-.34c.21,0,.34-.13.34-.34v-.34l.71-.71v-.34c.21-.21.42-.34.55-.34s.29-.13.55-.34l.34-.34v-.34l1.05-1.05c.21-.21.42-.55.55-.88.13-.34.42-.55.88-.55.46-.46.71-.8.71-1.05h.34l.71-.71h.34l.34-.34.34-.34h.34c0-.21.21-.34.71-.34l.34-.34.34-.34h.71c.21,0,.59-.21,1.05-.71.46,0,.8-.13,1.05-.34.21,0,.42-.04.55-.17.13-.13.29-.17.55-.17.21-.21.46-.34.71-.34s.46-.13.71-.34c.21,0,.46-.04.71-.17.21-.13.59-.17,1.05-.17v-.34h.71c.21-.21.34-.29.34-.17s.13.04.34-.17h.34c.46,0,.8-.13,1.05-.34h.34c.21-.21.92-.34,2.1-.34,0-.21.13-.34.34-.34v.34c.21,0,.42-.04.5-.17s.29-.17.55-.17h5.8c1.05,0,2.06.13,2.98.34h1.39c.21,0,.42.04.55.17.13.13.29.17.55.17h1.76v.34c.46,0,.8.13,1.05.34h1.76v.34h1.05c1.85.92,3.4,1.51,4.54,1.76l.34.34c.21.25.46.34.71.34s.46.13.71.34l.34.34c.46,0,.63.04.55.17-.13.13-.04.17.17.17h.34c.21.25.34.29.34.17s.13-.04.34.17v.34h.71v.34h.71c0,.25.13.34.34.34l.34.34h.34c.21.25.34.42.34.55s.13.29.34.5l.71.34c.46.25.76.46.88.71.13.25.29.46.55.71v.34c0,.25.17.42.55.55.34.13.55.29.55.55v.34c.71.25,1.18.71,1.39,1.39.21.25.34.42.34.55s.13.29.34.55l.34.34.34.34v.34h.34c-.25.25-.25.34,0,.34s.21.13,0,.34c.46,0,.63.04.55.17-.13.13-.04.17.17.17l.34.34v.34l.34.34.34.34v.71c.21.25.34.46.34.71v.34c.21.25.59.84,1.05,1.76v1.05c.21.46.46,1.09.71,1.93.21.84.34,1.47.34,1.93.21.25.34.71.34,1.39,0,.46.13.84.34,1.05v.71c.21.25.29.42.17.5-.13.13-.04.42.17.88,0,.71.13,1.3.34,1.76,0,1.39.04,2.81.17,4.2s.29,2.81.55,4.2c-.25.25-.25.34,0,.34,0,.25.13.46.34.71l-.34.34c.21.25.34.46.34.71.21.25.21.34,0,.34-.25.25-.25.34,0,.34s.21.13,0,.34v1.39c0,.25.04.42.17.55.13.13.17.29.17.55v1.05c.21.92.34,2.23.34,3.86v1.05l.34.34c-.25,0-.34.13-.34.34h.34v2.44c-.25.25-.25.46,0,.71v1.76c0,.46-.04,1.01-.17,1.55-.13.59-.17,1.09-.17,1.6v1.76c-.25,0-.34.13-.34.34v2.1c0,.25-.13.46-.34.71,0,.25-.04.34-.17.34s-.17.13-.17.34c0,.46-.46.71-1.39.71-.71.25-1.51.29-2.44.17-.92-.13-1.89-.04-2.81.17h-2.65c-.84,0-1.6-.13-2.27-.34h-2.1c-.46,0-.84-.13-1.05-.34-.46,0-.84-.13-1.05-.34-.25-.21-.46-.34-.71-.34l-.34-.34v-.34h-.34c0-.21-.04-.34-.17-.34s-.17-.13-.17-.34v-.34c-.25-.21-.34-.46-.34-.71v-1.39c-.25,0-.34-.13-.34-.34h.34l-.34-.34c0-.46.04-.8.17-1.05.13-.21.04-.59-.17-1.05v-2.81c-.25-1.85-.42-3.49-.55-4.92-.13-1.39-.29-2.9-.55-4.54v-.71c0-.46-.13-.92-.34-1.39v-2.1c-.25,0-.34-.13-.34-.34,0-.92-.04-1.76-.17-2.44-.13-.71-.17-1.51-.17-2.44-.25-.21-.34-.46-.34-.71v-2.44c-.25-.21-.34-.71-.34-1.39-.25-.46-.34-.8-.34-1.05s-.13-.59-.34-1.05v-.34c0-.21-.04-.34-.17-.34s-.17-.21-.17-.71-.13-.8-.34-1.05c-.25-.21-.46-.55-.71-.88-.25-.34-.46-.63-.71-.88l-.34-.71c-.25-.21-.42-.34-.55-.34s-.29-.13-.55-.34v-.34l-1.39-1.39c0-.21-.13-.34-.34-.34h-.34c0-.21-.13-.34-.34-.34h-.34v-.34c-.25.25-.34.25-.34,0h-.34c-.25-.21-.46-.34-.71-.34h-.34c0-.21-.13-.34-.34-.34s-.42-.04-.55-.17c-.13-.13-.29-.17-.5-.17s-.42-.04-.55-.17c-.13-.13-.29-.17-.55-.17h-1.05c0-.21-.13-.34-.34-.34h-.34c-.71-.21-1.51-.34-2.44-.34h-4.2c-.46,0-.84.13-1.05.34h-.34c-.25,0-.42.13-.55.34-.13.25-.29.34-.55.34h-.71c0-.21-.34,0-1.05.71-.25.25-.46.34-.71.34l-1.05,1.05c0,.25-.25.59-.71,1.05v.34c-.25,0-.34.13-.34.34-.25.25-.46.5-.71.88-.25.34-.46.63-.71.88,0,.25-.13.46-.34.71,0,.25-.13.34-.34.34v.71c-.25,0-.34.13-.34.34v.71l-.34.34v1.05c-.25,0-.34.13-.34.34v1.05c-.25.25-.34.46-.34.71s-.13.46-.34.71v2.44c0,.46-.04.88-.17,1.22-.13.34-.17.76-.17,1.22-.25.92-.29,1.85-.17,2.81.13.92.04,1.97-.17,3.15v1.76c0,1.18.13,1.97.34,2.44v5.59l.34.34v2.1c0,.25.04.34.17.34s.17.13.17.34c0,.46.04.88.17,1.22s.17.76.17,1.22c.21.46.34,1.05.34,1.76s.13,1.39.34,2.1v.34l.34.34v1.05c.21.25.34.46.34.71v1.05c.21.25.34.59.34,1.05.21.25.34.71.34,1.39.21.25.34.71.34,1.39.21.25.34.42.34.55s.13.29.34.55v.71c0,.25.13.34.34.34v1.05h.34c0,.71.21,1.3.71,1.76,0,.46.21,1.18.71,2.1l.34.34c-.25,0-.25.13,0,.34v.34l.34.34c0,.25.13.46.34.71,0,.46.13.84.34,1.05v.71h.34v.34c.21.25.34.46.34.71s.13.46.34.71v.71h.34c.21.25.34.46.34.71s.13.46.34.71v.34l.34.34c0,.46.13.84.34,1.05v.34l.34.34v.34c0,.25.13.34.34.34l.34.71.34.34v.71c0,.25.13.34.34.34v.34l.34.34c0,.25.13.46.34.71,0,.25.13.46.34.71v1.05h.34v.34l.34.34v.34h.34v.34l.34.71.34.34c0,.25.13.46.34.71v.34c.46.46.71.8.71,1.05l.71.71c0,.25.13.46.34.71,0,.25.21.59.71,1.05v.71h.34v.34l.34.34c0,.25.13.34.34.34v.34c.21.25.34.46.34.71l.34.34c.21.25.34.42.34.55s.13.29.34.5c.46.92.71,1.51.71,1.76l-.55-.08Z"/>
      <path class="cls-2" d="m769.64,479.62c-.71,0-1.47.04-2.27.17-.84.13-1.68.04-2.65-.17h-.71c-.25,0-.59.04-1.05.17-.46.13-.84.04-1.05-.17h-6.64c-1.64,0-3.28-.13-4.92-.34h-3.86c-.25-.21-.84-.34-1.76-.34h-2.1c0-.21-.13-.34-.34-.34h-2.98c-1.05,0-2.14-.13-3.32-.34-.92,0-1.64-.13-2.1-.34h-1.05c-.25-.21-.46-.34-.71-.34h-.34c0-.21-.13-.34-.34-.34-.46,0-.71-.13-.71-.34-.25,0-.42-.04-.55-.17-.13-.13-.29-.17-.55-.17,0-.21-.25-.8-.71-1.76v-1.05l-.34-.34v-.34c0-.21-.04-.76-.17-1.55-.13-.8-.04-1.47.17-1.93v-1.05l.34-.34v-2.44c0-.46.04-.88.17-1.22.13-.34.17-.76.17-1.22,0-.92.13-1.64.34-2.1,0-.46.13-.8.34-1.05v-.34c.21-.21.34-.46.34-.71.46-.21,1.39-.59,2.81-1.05h3.15c1.18-.21,2.27-.42,3.32-.5,1.05-.13,2.14-.04,3.32.17h3.49c.21,0,.71-.04,1.39-.17.71-.13,1.18-.04,1.39.17h4.54c2.56.25,5.08.29,7.52.17,2.44-.13,4.96-.17,7.52-.17,0,.25.13.34.34.34v-.34c1.89,0,3.61.04,5.17.17,1.55.13,3.28.17,5.17.17h1.76c.25,0,.42.04.55.17.13.13.29.17.55.17h7.1c2.14,0,4.37-.13,6.72-.34,2.1-.46,4.2-.76,6.3-.88,2.1-.13,4.45-.04,7.02.17h5.25c1.18.25,2.39.29,3.7.17,1.26-.13,2.52-.04,3.7.17.46,0,.88.04,1.22.17.34.13.76.17,1.22.17h1.05c.21,0,.42.04.55.17.13.13.29.17.55.17h1.76v.34h2.1c.21,0,.34.04.34.17s.13.17.34.17h.34c0,.25.13.34.34.34h.71c0,.25.13.46.34.71.21,0,.34.13.34.34.21.25.34.59.34,1.05s.13.92.34,1.39v1.22c0,.59.13,1.09.34,1.55v2.1c-.25.46-.29,1.01-.17,1.55.13.59.17,1.09.17,1.6l-.34.34v3.15c0,.25-.04.42-.17.55-.13.13-.17.29-.17.55v.34c-.25,0-.34.13-.34.34v.34c-.46,0-.71.25-.71.71v.71h-.34c-.46.46-1.3.76-2.44.88-1.18.13-2.35.29-3.49.55h-.34v.34-.34h-1.05c-.92,0-1.64.13-2.1.34-.25,0-.34-.04-.34-.17s-.13-.17-.34-.17-.34.13-.34.34h-11.55c0-.21-.13-.21-.34,0h-1.39c-.25-.21-.34-.21-.34,0h-6.64v.34c-.25-.46-.34-.5-.34-.17s-.13.42-.34.17h-.71c-1.18,0-1.97.13-2.44.34h-2.81c0,.25-.13.34-.34.34l-.34-.34c-.25,0-.42.04-.55.17-.13.13-.42.17-.88.17,0,5.38.13,10.46.34,15.25.21,4.79.34,9.87.34,15.25v10.5c.21.25.21.46,0,.71v4.2c-.25.25-.25.34,0,.34v7.02c0,.25.04.34.17.34s.17.13.17.34c-.25,0-.34.13-.34.34v1.39c0,.25.04.34.17.34s.17.13.17.34v7.35l-.34.34c0,.25.04.42.17.5.13.13.17.29.17.55-.25.25-.34.46-.34.71h.34l-.34.34v5.25c0,.92.04,1.81.17,2.65.13.84.04,1.81-.17,2.98v16.13c0,2.35-.13,4.79-.34,7.35,0,.25.04.59.17,1.05.13.46.04.84-.17,1.05v3.86c.21.25.21.34,0,.34-.25.25-.29.84-.17,1.76.13.92.17,1.64.17,2.1-.25,0-.34.13-.34.34.21,0,.34.13.34.34l-.34.34c0,.46.04,1.09.17,1.93.13.84.17,1.6.17,2.27h-.34c.21,0,.34.13.34.34s-.13.46-.34.71c.21.25.21.34,0,.34l.34.34-.34.34v3.49c-.25.71-.29,1.47-.17,2.27.13.84.17,1.68.17,2.65,0,.25-.04.46-.17.71s-.17.46-.17.71v.34l.34.71c-.25,0-.34.13-.34.34s.04.42.17.55.17.29.17.5h-.34v2.81h.34c-.25,0-.34.34-.34,1.05v5.97c.21.25.34.46.34.71h-.34c0,.46.04.76.17.88s.17.42.17.88v5.97c.21,1.89.34,3.78.34,5.8v5.8c0,.46.04.84.17,1.05.13.25.17.59.17,1.05v8.74l.34.34-.34.34v.34c.21.25.34.92.34,2.1v6.64c.21,0,.21.13,0,.34v2.1c0,.25.04.34.17.34s.17.13.17.34l-.34.34c.21,0,.34.13.34.34.21,3.28.42,6.3.5,9.12.13,2.81.04,5.84-.17,9.12v3.49c-.25,1.89-.34,3.74-.34,5.59s-.13,3.74-.34,5.59v7.69c0,.25-.04.34-.17.34s-.17.13-.17.34c0,1.64-.13,2.94-.34,3.86v.34c0,.92-.25,1.89-.71,2.81,0,.92-.13,1.51-.34,1.76,0,.25-.13.34-.34.34l-.71.34c-.25.25-.59.34-1.05.34-.25.25-.42.34-.55.34s-.29.13-.55.34h-1.43c-.46.25-1.55.34-3.19.34-2.6.25-5.29.25-7.98,0-2.73-.21-5.04-.59-6.93-1.05-.25-.46-.34-1.05-.34-1.76,0-.21-.04-.34-.17-.34s-.17-.13-.17-.34v-1.05c-.46-1.39-.71-2.56-.71-3.49s.13-1.76.34-2.44v-3.49c.21-.46.34-1.05.34-1.76l-.34-.34.34-.34v-3.86h.34l-.34-.34v-.34c0-.21.04-.34.17-.34s.17-.13.17-.34h-.34l.34-.34v-3.49h.34c-.25,0-.34-.13-.34-.34,0-.92.13-1.64.34-2.1v-12.6l.34-.34-.34-.34.34-.34v-.34c-.25-.21-.34-.46-.34-.71v-2.44c-.25-.46-.25-1.01,0-1.6.21-.59.21-1.22,0-1.93v-.34h-.34c0-.21.04-.34.17-.34s.17-.13.17-.34c-.25,0-.34-.13-.34-.34v-1.05c0-.21.04-.34.17-.34s.17-.13.17-.34-.04-.42-.17-.55-.17-.29-.17-.5c.21,0,.34-.13.34-.34s-.04-.55-.17-.88c-.13-.34-.17-.76-.17-1.22.21,0,.34-.13.34-.34l-.34-.34v-1.76c-.25,0-.34-.13-.34-.34.21-.21.34-.59.34-1.05,0-.21-.13-.34-.34-.34.21,0,.34-.13.34-.34v-1.05c-.25-.21-.29-.55-.17-.88.13-.34.04-.76-.17-1.22v-1.76l.34-.34v-.34c0-.21-.04-.42-.17-.55s-.17-.42-.17-.88h.34c-.25,0-.34-.13-.34-.34v-.34c.21,0,.34-.13.34-.34h-.34v-8.07c0-.71-.13-1.18-.34-1.39v-.71c0-.21.04-.42.17-.55s.17-.29.17-.55v-1.05c0-.21-.04-.34-.17-.34s-.17-.13-.17-.34c0-.46-.04-1.01-.17-1.55-.13-.59-.04-1.09.17-1.6v-4.54c-.25-.21-.34-.46-.34-.71,0-.46.04-.88.17-1.22.13-.34.17-.76.17-1.22l-.34-.34v-2.1c0-.21.04-.34.17-.34s.17-.13.17-.34l-.34-.34v-9.12c0-1.39.13-2.9.34-4.54v-8.07c.21-.46.29-.88.17-1.22-.13-.34-.17-.76-.17-1.22,0-.21.04-.34.17-.34s.17-.13.17-.34c-.25,0-.34-.13-.34-.34s.04-.42.17-.55c.13-.13.17-.29.17-.5v-7.35c.21-1.85.42-3.78.5-5.8.13-1.97.17-3.91.17-5.8v-.71c-.25-.21-.29-.55-.17-.88.13-.34.17-.76.17-1.22v-13.99c.21-.21.34-.59.34-1.05h-.34c0-.21.04-.34.17-.34s.17-.13.17-.34v-18.57c0-.21.04-.34.17-.34s.17-.13.17-.34c-.25,0-.34-.13-.34-.34.21-.21.34-.21.34,0,0-.21-.04-.34-.17-.34s-.17-.13-.17-.34c.21,0,.34-.13.34-.34l-.34-.34c.21,0,.34-.13.34-.34h-.34v-1.76c.21-.21.34-.46.34-.71h-.34l.34-.34c0-.21-.04-.34-.17-.34s-.17-.13-.17-.34h.34c0-.21-.04-.34-.17-.34s-.17-.13-.17-.34c.21,0,.34-.13.34-.34h-.34v-.71h.34c0-.21-.04-.34-.17-.34s-.17-.13-.17-.34l.34-.34c0-.21-.04-.29-.17-.17-.13.13-.04-.04.17-.5,0-.21-.04-.42-.17-.55-.13-.13-.17-.42-.17-.88.21,0,.34-.13.34-.34h-.34c0-.21.04-.34.17-.34s.17-.13.17-.34v-.34l-.34-.34c.21,0,.34-.13.34-.34l-.34-.34.34-.34c0-.46-.04-1.3-.17-2.44-.13-1.18-.04-2.23.17-3.15v-1.76c0-.21-.04-.34-.17-.34s-.04-.21.17-.71v-1.05c-.25-.46-.29-1.18-.17-2.1.13-.92.17-1.76.17-2.44,0-.46-.04-.92-.17-1.39-.13-.46-.04-.92.17-1.39v-8.07c-.25,0-.34-.13-.34-.34l.34-.34c0-.21-.04-.42-.17-.55-.13-.13-.17-.29-.17-.55s.04-.42.17-.55c.13-.13.17-.29.17-.55l-.34-.34v-12.94l.34-.34h-.34v-2.44h.34l-.34-.34v-2.1l.04-.63Z"/>
      <path class="cls-2" d="m931.08,456.14c.46.46.63,1.01.55,1.6-.13.59-.17,1.22-.17,1.93,0,.25.13.59.34,1.05v.71c-.25.25-.29.8-.17,1.76.13.92.17,1.64.17,2.1v1.39c.46.71.46,1.64,0,2.81v3.86c0,.25-.04.34-.17.34s-.17.13-.17.34c0,1.39-.25,2.35-.71,2.81-.46.46-1.01.63-1.55.55-.59-.13-1.22-.04-1.93.17h-5.97c0,.25-.13.34-.34.34,0-.21-.13-.34-.34-.34v.34h-15.04c-3.74,0-7.35.13-10.84.34-.71,0-1.34.04-1.93.17-.59.13-1.22.17-1.93.17-1.39,0-2.44.13-3.15.34h-6.64c-1.18.25-2.44.34-3.86.34s-2.81.25-4.2.71v7.35c.21,1.18.29,2.44.17,3.86-.13,1.39-.17,2.69-.17,3.86.21,1.89.34,3.78.34,5.8s.13,4.03.34,6.13v1.76c0,1.39.04,2.94.17,4.54.13,1.64.17,3.28.17,4.92v7.69c0,2.56.04,5.04.17,7.35.13,2.35.29,4.79.55,7.35v4.03c0,1.3.13,2.52.34,3.7v3.49l.34.34v5.97c.21,1.39.34,2.94.34,4.54v4.92c0,1.64.13,2.81.34,3.49,0,10.29.34,20.42,1.05,30.46.21.25.71.34,1.39.34,1.18,0,1.97.13,2.44.34h.71c.92,0,1.81.04,2.65.17.8.13,1.81.17,2.98.17,1.85.25,3.74.29,5.59.17,1.85-.13,3.74-.17,5.59-.17s3.7-.04,5.42-.17c1.76-.13,3.57-.17,5.42-.17h7.02c1.18-.46,2.44-.46,3.86,0l1.05,1.05c-.25.25-.25.34,0,.34v.34h.34c-.25.25-.25.34,0,.34v.34c0,.25.13.46.34.71,0,.46.21,1.18.71,2.1.21,1.18.42,2.35.55,3.49.13,1.18.17,2.35.17,3.49.21.46.29.92.17,1.39-.13.46-.17.92-.17,1.39,0,.25.04.42.17.55s.17.29.17.5c-.25.25-.34.46-.34.71.21,0,.34.13.34.34-.25,0-.34.13-.34.34v3.49c0,1.18-.25,2.35-.71,3.49-.92.46-1.85.71-2.81.71h-4.2c-.46.25-1.09.34-1.93.34h-2.27c-.71.25-1.64.34-2.81.34-.71.25-1.64.34-2.81.34h-3.49c-1.18,0-2.35.13-3.49.34h-2.1c0-.21-.13-.21-.34,0h-7.02c0,.25-.13.34-.34.34-.25-.21-.46-.34-.71-.34,0,.25-.13.34-.34.34v-.34c-.25,0-.34.04-.34.17s-.13.17-.34.17v-.34h-4.2l-.34.34c0-.21-.13-.34-.34-.34h-1.05c-.25.25-.71.29-1.39.17-.71-.13-1.3-.17-1.76-.17v1.05c0,.92.04,1.89.17,2.81.13.92.17,1.97.17,3.15v1.05l.34.71c0,.25-.13.25-.34,0,0,.71.13,1.18.34,1.39-.25.25-.25.46,0,.71v4.54c.21.92.29,1.89.17,2.81-.13.92-.17,1.97-.17,3.15l.34.71v1.05c0,.25-.04.59-.17,1.05-.13.46-.17.92-.17,1.39,0,.25.04.34.17.34s.17.13.17.34h-.34c0,.71.04,1.47.17,2.27.13.84.17,1.68.17,2.65v1.93c0,.84-.13,1.47-.34,1.93l.34.34-.34.34v18.19c0,3.02-.04,5.97-.17,8.74-.13,2.81-.17,5.84-.17,9.12,1.39.46,2.98.63,4.75.55,1.76-.13,3.57-.17,5.42-.17h13.65c3.28,0,6.55-.13,9.79-.34.46,0,1.01.04,1.6.17.59.13,1.22.04,1.93-.17,1.18-.21,2.44-.34,3.86-.34h3.86c1.85,0,3.95-.04,6.3-.17s4.45-.04,6.3.17c.92,0,1.51.13,1.76.34h.71l.34.34c0,.25.13.34.34.34v.34c.21.25.34.42.34.55s.13.29.34.55c.21.71.34,1.6.34,2.65v2.98c.21.92.34,2.35.34,4.2,0,.46.04,1.09.17,1.93s.04,1.47-.17,1.93c-.25,0-.34.13-.34.34l-.71.71c0,.71-.25,1.05-.71,1.05-.46.46-.88.71-1.22.71s-.76.13-1.22.34c-.46,0-.76.04-.88.17-.13.13-.42.17-.88.17h-.71c-.25,0-.34.04-.34.17s-.13.17-.34.17h-1.39c-.46.21-1.22.34-2.27.34h-2.98c-.92.21-1.81.34-2.65.34s-1.68.13-2.65.34c-4.2.21-8.57.42-13.15.55-4.54.13-8.95.29-13.15.55-.46,0-1.05-.04-1.76-.17-.71-.13-1.3-.04-1.76.17h-1.39c-.46,0-1.05.04-1.76.17s-1.3.04-1.76-.17h-7.02c0-.25-.13-.34-.34-.34h-4.92c-3.28,0-6.13-.13-8.57-.34-2.44-.25-5.21-.59-8.23-1.05h-1.76v-.34h-.34c-.46-.46-.71-.92-.71-1.39l-.71-1.39v-1.05c0-.46-.04-1.05-.17-1.76s-.17-1.3-.17-1.76.04-.88.17-1.22.17-.76.17-1.22v-12.6c.21-.46.29-.92.17-1.39-.13-.46-.17-.92-.17-1.39v-.71l.34-.34v-7.02c0-.46.04-.8.17-1.05.13-.21.17-.46.17-.71v-9.79c.21-4.2.34-8.36.34-12.43v-12.43c0-2.1-.04-4.2-.17-6.3-.13-2.1-.17-4.2-.17-6.3-.25-1.39-.34-2.73-.34-4.03s-.13-2.65-.34-4.03h.34c0-.21-.13-.46-.34-.71v-17.35c0-2.23-.13-4.37-.34-6.47v-3.86c-.25-2.81-.34-5.67-.34-8.57s-.25-5.67-.71-8.23c0-.92.04-1.93.17-2.98s.04-2.14-.17-3.32c.21-.21.21-.34,0-.34v-.71c-.25-.46-.29-1.09-.17-1.93.13-.8.17-1.55.17-2.27v-8.07c-.25-.21-.29-.8-.17-1.76.13-.92.17-1.64.17-2.1v-.34h-.34v-4.54c0-1.39-.13-2.81-.34-4.2,0-.21.04-.63.17-1.22.13-.59.04-.88-.17-.88v-.71c-.25-1.18-.34-2.52-.34-4.03v-6.85h-.34c.21-.21.21-.46,0-.71v-16.47c-.25-1.64-.29-3.28-.17-4.92.13-1.64.04-3.15-.17-4.54v-8.07c-.25-.46-.29-1.09-.17-1.93.13-.8.17-1.55.17-2.27,0-.46-.04-.88-.17-1.22s-.17-.76-.17-1.22c0-.21.04-.34.17-.34s.17-.21.17-.71c-.25,0-.34-.13-.34-.34v-.71h.34v-.34l-.34-.34c0-.21.04-.34.17-.34s.17-.13.17-.34c0-2.35-.04-4.54-.17-6.64-.13-2.1.04-4.2.55-6.3,0-.46-.04-.92-.17-1.39s-.04-.92.17-1.39v-2.81c0-1.18.04-2.65.17-4.37.13-1.76.04-3.44-.17-5.08v-2.81c0-.46-.04-.8-.17-1.05-.13-.21-.04-.59.17-1.05v-2.1l.34-.34v-.34l.34-.34c0-.46.59-.71,1.76-.71.21-.21.92-.34,2.1-.34.71,0,1.22-.04,1.55-.17.34-.13.76-.17,1.22-.17l.34.34c.21,0,.42-.04.55-.17s.42-.17.88-.17v.34c.21-.21.46-.34.71-.34h5.25c.21,0,.59.04,1.05.17.46.13.92.17,1.39.17h29.41c.21,0,.34-.04.34-.17s.21-.17.71-.17c1.39,0,2.9-.04,4.54-.17,1.64-.13,3.36-.17,5.25-.17h2.81c.46-.21,1.09-.29,1.93-.17.8.13,1.47.17,1.93.17h4.54l.34-.34h4.2c.46.25,1.09.34,1.93.34h2.27c.92,0,1.64.13,2.1.34l.08.04Z"/>
    </g>
    <path class="cls-1" d="m344.46,506.05c-1.81,1.26-3.82,2.35-5.42,3.86-3.32,3.11-5.88,7.52-9.75,9.41-6.68,3.28-13.91,5.59-21.17,7.27-37.14,8.61-74.9,10.46-112.59,5.92-19.66-2.35-38.94-8.15-58.14-13.28-3.74-1.01-8.15-5.76-8.86-9.45-.46-2.31,4.92-6.93,8.57-8.61,19.66-9.2,40.88-12.06,62.26-13.44,1.85-.13,5.46,3.4,5.76,5.59,2.1,14.75,10.96,23.61,24.79,25.42,15,1.93,30.46,2.18,45.58,1.13,11.17-.76,22.39-3.99,33.02-7.73,3.99-1.39,8.49-7.14,8.86-11.26.34-3.57-3.99-8.95-7.69-11.26-5.76-3.61-12.52-6.76-19.16-7.52-20.88-2.39-41.93-3.65-62.93-5.25-3.49-.25-7.06,0-10.5,0-.59-14.91,1.85-17.98,14.2-17.35,14.66.76,25.42-5.76,34.74-16.3,6.76-7.65,14.41-14.45,21.59-21.76,1.93-1.97,3.44-4.41,5.17-6.6-2.39-1.51-4.66-3.91-7.27-4.45-18.4-3.74-35.2.34-50.54,11.01-2.1,1.47-4.16,2.94-7.69,5.42-.42-6.3-.5-10.67-1.05-15-3.02-24.53-16.09-41.38-39.03-50.54-7.86-3.15-10.63-1.47-10.12,5.67,1.09,15.21,2.02,30.42,3.49,45.58,1.72,17.77,8.28,32.85,25.75,40.71,4.2,1.89,5.13,4.45,3.57,8.57-1.05,2.86-2.02,5.84-2.31,8.82-.59,6.09-4.2,7.27-9.62,7.86-12.39,1.34-25.04,2.27-36.97,5.5-12.14,3.28-24.32,7.86-35.12,14.2-10.5,6.18-9.91,17.6.21,24.53,6.09,4.16,13.02,7.73,20.08,9.75,50.08,14.33,100.91,14.2,151.82,5.59,12.69-2.14,25-6.47,37.43-9.83,1.05,35.29-44.78,76.79-91.62,82.76-41.21,5.25-95.99-25.29-103.22-58.23,5.08,1.3,9.83,2.44,14.58,3.7,34.24,9.16,68.85,11.76,103.93,6.05,2.44-.38,4.41-3.61,6.6-5.5-2.48-1.13-5.17-3.57-7.48-3.23-42.43,6.3-83.56,1.22-123.72-13.36-2.31-.84-5.25,0-7.9,0,.17,3.11-.5,6.51.59,9.24,17.06,42.35,59.7,70.87,105.65,70.91,47.09,0,90.11-28.23,106.75-71.54,4.5-11.72,5.88-24.66,8.23-37.09.34-1.68-2.1-3.86-3.28-5.8l-.08-.08Zm-72.09-87.13c-9.33,21.21-29.45,34.15-47.3,29.87,6.01-17.77,29.24-32.22,47.3-29.87Zm-52.76,67.05c6.34,0,12.73-.13,19.07-.08,3.19,0,6.34.04,9.54.13,6.34.17,12.69.5,18.99,1.13,3.15.34,6.3.71,9.41,1.22,6.26,1.01,12.52,2.39,18.69,4.33,2.35.71,4.66,1.72,6.89,2.86.97.5,1.89,1.09,3.07,1.89,1.18.8,2.6,1.76,4.58,3.07-1.05.59-2.02,1.18-2.94,1.72-2.69,1.68-4.83,3.11-7.14,3.78-5.17,1.51-10.38,2.77-15.59,3.74-2.6.5-5.25.92-7.86,1.26-5.25.71-10.54,1.13-15.84,1.3-7.94.25-15.92-.08-23.95-1.05-6.43-.76-11.68-2.94-15.46-6.09-1.89-1.55-3.4-3.4-4.54-5.38-1.13-1.97-1.85-4.2-2.1-6.51-.04-.5-.13-1.01-.13-1.47-.17-3.32.71-5.84,5.25-5.84h.04Zm-9.87-42.01c-17.22-7.56-21.76-28.1-21.68-56.59,0-4.37.13-8.95.34-13.7,13.32,3.02,23.23,16.22,27.43,32.31.92,3.57,1.55,7.31,1.89,11.09.17,1.89.25,3.82.25,5.71s-.08,3.82-.21,5.76c-.46,5.76-1.72,11.51-3.82,16.93-1.47-.42-2.9-.92-4.2-1.51h0Z"/>
  </g>
  <g id="pBFQ5V">
    <g>
      <path class="cls-1" d="m1719.41,666.71c.54-9.93-1.19-19.59-1.33-29.32-.08-5.15-.29-10.29-.23-15.46.2-16.54.26-33.1,0-49.64-.15-9.08-.64-18.16-.28-27.24.55-13.81.02-27.67,1.52-41.44,1.23-11.29,2.23-22.63,6.34-33.39,1.56-4.09,4.3-7.19,7.37-10.17,3.76-3.63,7.36-7.35,11.96-10.04,3.61-2.11,7.58-2.61,11.46-3.1,8.84-1.12,17.36.76,25.5,4.18,5.91,2.48,9.44,7.68,13.11,12.57,2.65,3.53,4.71,7.47,6.35,11.56,2.05,5.12,3.1,10.52,3.58,15.99.25,2.89.79,5.74.62,8.72-.38,6.7-1.09,8.28-7.4,9.92-3.11.81-6.46,1.24-9.74.95-3.53-.3-5.44-2.3-5.61-5.94-.26-5.38-.4-10.74-1.42-16.06-1.49-7.71-5.23-14.12-11.36-18.84-4.15-3.2-9.19-2.14-13.99-1.25-6.06,1.12-12.67,9.23-13.14,16.25-.52,7.82-1.39,15.62-1.81,23.45-.51,9.27-.74,18.56.07,27.84.2,2.32-.2,4.7-.21,7.04-.04,9.49.82,18.93,1.25,28.4.35,7.6.3,15.21.3,22.82.01,12.13-.32,24.26-.04,36.38.23,9.81,1.34,19.59,1.73,29.4.22,5.39-.74,10.85-.26,16.2.66,7.5,2.56,14.8,7.15,21.06,2.57,3.5,6.38,2.87,9.87,2.46,8.53-1,12.97-6.83,15.75-14.24,2.53-6.74,3.27-13.74,3.29-20.94.02-8.59.56-17.17,1-25.75.11-2.19-.45-2.58-2.71-2.53-6.14.14-12.28-.5-18.39-1.15-2.07-.22-2.86-1.32-2.94-3.56-.13-3.77-.15-7.53-.14-11.3,0-3.4,1.43-4.55,4.8-4.74,8.58-.48,17.21.32,25.78-1.27,3.38-.63,6.91-1.2,10.47-.51,2.05.39,3.14,1.38,3.83,3.25,1.39,3.77,1.49,7.72,1.43,11.6-.2,13.08-1.15,26.13-1.27,39.22-.12,13.27-3.09,26.03-10.24,37.35-4.13,6.55-9.5,12.35-17.43,14.46-8.7,2.32-17.47,1.7-26.24-.03-11.7-2.32-18.16-9.97-22.4-20.54-2.93-7.3-4.63-14.77-5.55-22.5-.41-3.43-.22-6.87-.4-10.13Z"/>
      <g>
        <path class="cls-1" d="m1694.84,527.72c-.02-6.45-.66-12.86-.52-19.31.1-4.51-.13-9.03-.31-13.54-.33-7.92.16-15.83.52-23.74.18-4,.13-7.97-.02-11.96-.04-1.2-.8-1.41-1.82-1.46-5.64-.29-11.26.16-16.89.27-1.02.02-1.77.53-2.33,1.51-.76,1.35-.99,2.81-1.04,4.24-.32,9.9-1.22,19.79-1.1,29.71.15,11.92.57,23.85.22,35.75-.28,9.61-.16,19.21.37,28.76.79,14.08.89,28.16,1.17,42.24.28,14.1-.94,28.18-1.45,42.27-.13,3.64-.52,7.28-.8,10.99-.81-.36-.77-.99-.94-1.49-1.83-5.16-3.65-10.32-5.46-15.48-2.83-8.1-6.02-16.09-8.38-24.32-3.85-13.39-7.55-26.84-10.73-40.42-2.77-11.82-5.67-23.6-8.48-35.41-1.93-8.09-3.78-16.2-5.69-24.3-2.1-8.9-4.32-17.78-7.17-26.48-2.47-7.52-4.81-15.09-8.77-22.03-.92-1.62-2.07-2.67-4-2.74-5.25-.18-10.46.02-15.68.74-1.84.25-2.23,1.1-2.43,2.66-.34,2.64.34,5.22.31,7.83-.13,11.14-.29,22.28-.37,33.41-.12,16.72-.26,33.44-.22,50.16.04,21.15-.35,42.31.21,63.46.34,13.02-.89,26.02-.57,39.04.12,4.83,0,9.68-.25,14.5-.39,7.53-.94,15.05-.63,22.6.1,2.29.08,4.56-.07,6.86-.23,3.51-.14,7.05.01,10.57.07,1.58.16,3.63,2.2,3.97,5.69.93,11.41,1.07,17.1-.08,1.34-.27,2.14-1.26,2.33-2.57.34-2.35.59-4.71.84-7.07.95-9.13.33-18.32,1-27.47,1.16-15.79.37-31.63.96-47.45.47-12.69-.42-25.39-.8-38.09-.39-13.19.1-26.39-.49-39.58-.09-1.88.34-3.77.54-5.75.72.49.74,1.13.89,1.76,3.08,12.53,5.44,25.23,8.82,37.69,2.89,10.63,5.51,21.34,8.5,31.94,1.7,6.04,3.88,11.95,5.87,17.91,2.38,7.11,4.7,14.24,7.19,21.32,3.12,8.84,6.37,17.63,9.58,26.44,3.26,8.94,6.54,17.87,9.8,26.81,1.18,3.22,3.52,4.52,6.91,4.84,4.74.44,9.5-.05,14.22.66,2.58.39,4.6-1.15,4.9-3.31.98-6.91.52-13.89.9-20.84.32-6.07-.15-12.17-.26-18.26-.14-8.36.8-16.68,1.1-25.02.58-16.38.23-32.77.66-49.16.44-16.53-.09-33.06-.39-49.59-.15-8.03.92-15.99.9-24.02Z"/>
        <path class="cls-1" d="m1502.94,658.99c-1.04-10.11-2.88-19.95-6.79-29.39-3.3-7.97-8.14-14.84-14.14-20.93-2.05-2.08-4.36-3.9-6.69-5.96,2.33-1.5,4.72-2.73,6.76-4.4,7.23-5.91,11.87-13.65,14.56-22.44,2.89-9.46,4.43-19.21,4.46-29.14.03-6.44.31-12.89-.06-19.31-.38-6.61-.32-13.23-.44-19.84-.12-6.24-.33-12.43-1.87-18.43-2.78-10.8-7.3-20.65-15.67-28.55-6.46-6.09-13.79-10.07-22.47-11.64-10.44-1.89-20.87-1.23-31.32.08-2.74.34-3.56,1.63-3.53,4.17.07,5.38.21,10.77-.12,16.13-.68,10.87-.64,21.7,0,32.58.67,11.52,1.81,23.02,1.83,34.58.01,11.19-1.05,22.34-.69,33.54.18,5.63-.3,11.27-.21,16.9.28,17.21.68,34.43.29,51.64-.16,7.03-.8,14.05-.79,21.07.03,13.58-.62,27.17.36,40.73.32,4.38.03,8.89,1.56,13.06.67,1.83.38,4.64,3.39,5.06,4.88.68,9.78,1.15,14.72.97,2.5-.09,4.04-1.51,4.63-3.96.91-3.79.77-7.55.35-11.43-.8-7.46-.6-14.99-.7-22.5-.24-17.52.81-35.01.94-52.51.02-2.84-.41-5.72.16-8.55.1-.5-.17-1.34.75-1.24,3.45.37,7.16-.16,10.2,1.82,3.37,2.21,5.92,5.34,8.21,8.68,6.32,9.22,8.03,19.83,9.42,30.55.94,7.23,1.04,14.51,1.47,21.78.66,11.33.79,22.71,2.33,33.99.21,1.54.62,2.22,2.22,2.62,5.57,1.39,11.1.1,16.64.11,1.56,0,1.9-.67,2.16-1.98.64-3.27.22-6.54.26-9.8.18-16.06-.51-32.07-2.15-48.06Zm-43.3-72.97c-2.26,1.28-4.79,2.08-7.17,3.17-1.04.48-1.46.37-1.43-.88.25-10.31-.09-20.61.28-30.93.38-10.53.41-21.09-.13-31.65-.39-7.61-1.17-15.18-1.8-22.76-.88-10.61-1.47-21.2-1.37-31.85.02-1.82.29-2.36,2.25-2.24,12.31.76,22.03,8.46,25.99,20.08,2.79,8.19,2.55,16.6,2.87,24.99.15,4.07.03,8.16.03,12.24h-.17c0,8.43.11,16.86-.04,25.29-.11,6.31-1.4,12.44-3.63,18.38-2.88,7.68-8.89,12.32-15.68,16.16Z"/>
        <path class="cls-1" d="m1196.85,706.46c-1.18-12.22-3.62-24.21-6.2-36.18-1.33-6.14-3.03-12.23-3.6-18.49-.42-4.64-.91-9.26-1.65-13.85-2.57-15.81-4.49-31.73-7.36-47.5-1.6-8.76-2.41-17.66-4.05-26.41-2.31-12.28-4.25-24.6-6.17-36.94-1.52-9.84-3.18-19.66-4.73-29.49-2.46-15.5-4.89-31.01-8.77-46.25-.47-1.86-1.08-3.31-3.58-3.57-9.42-.97-18.83.38-28.23-.19-1.81-.11-3.17.9-3.7,2.67-.74,2.42-1.44,4.85-2,7.32-2,8.75-3.47,17.61-5.03,26.45-1.91,10.85-3.3,21.77-4.6,32.7-1.07,9.01-2.67,17.98-3.36,27.02-.85,11.19-2.38,22.29-3.21,33.48-1.29,17.28-3.24,34.52-4.83,51.78-.88,9.58-1.74,19.16-2.34,28.76-.62,9.96-1.71,19.87-2.69,29.79-1,10.08-1.82,20.18-2.74,30.28-.13,1.4.31,2.06,1.84,2.24,6.29.73,12.59.85,18.89.32,3.26-.27,3.64-.99,4.03-4.23.8-6.56,1.63-13.11,2.19-19.7.81-9.45,2.38-18.83,3.02-28.31.66-9.8,1.54-19.58,2.23-29.37.11-1.51.61-1.93,2.05-1.94,2.85,0,5.7-.08,8.55-.04,10.48.15,20.9,1.41,31.37,1.44.76,0,1.45-.09,1.61.99,1.26,8.9,2.57,17.78,3.84,26.68,1.04,7.29,1.07,14.68,2.44,21.94,1.02,5.36,1.98,10.75,2.62,16.16.55,4.63.74,9.27,2.84,13.6.68,1.41,1.42,2.04,2.92,2.02,2.71-.04,5.42-.01,8.13-.01v-.23c2.71,0,5.41.03,8.12,0,2.99-.04,3.32-.5,3.19-3.46-.13-3.18-.72-6.31-1.02-9.46Zm-38.88-88.75c-.48-.11-.98-.09-1.47-.13-7.59-.99-15.24.08-22.84-.79-3.11-.36-6.22.27-9.32.47-1.86.12-2.72-.11-2.46-2.3.67-5.69,1.15-11.41,1.67-17.11.35-3.83.54-7.68.73-11.51.46-9.48,1.09-18.95,1.98-28.4,1.51-15.97,2.84-31.96,4.57-47.91.89-8.2,1.59-16.43,3.1-24.56.68-3.68.9-7.46,1.22-11.2.12-1.38.6-2.19,2.05-2.16,1.41.03,1.68,1.04,1.84,2.17,1.98,14.54,3.71,29.13,6.05,43.61,1.2,7.4,2.81,14.77,3.73,22.19.93,7.46,2.16,14.87,3.18,22.31.84,6.15,2.09,12.25,2.72,18.43,1.18,11.55,3.82,22.87,5.61,34.32.34,2.18-.04,3.09-2.36,2.56Z"/>
        <path class="cls-1" d="m1075.61,493.38c-.61-5.35-1.03-10.74-2.45-15.95-2.97-10.88-10-18.71-19.03-25.04-2.06-1.44-4.35-2.39-6.68-2.91-7.73-1.7-15.5-2.09-23.15.56-6.4,2.21-12.22,5.31-16.61,10.67-7.96,9.72-12.29,21.08-14.81,33.18-1.72,8.26-1.01,16.78-2.07,25.13-.96,7.56.1,15.13.05,22.7-.1,13.84-.32,27.69.27,41.54.52,12.26-.07,24.53-.81,36.77-.87,14.58-.35,29.14-.11,43.71.11,7.05,1.22,13.98,3.49,20.69,2.63,7.8,6.08,15.19,11.69,21.33,4,4.39,9.42,6.72,14.58,9.37,5.05,2.59,10.26,3.37,15.94,2.22,6.05-1.23,11.82-2.98,17.38-5.67,11.26-5.44,16.84-14.75,18.9-26.65,1.31-7.57,1.94-15.21,2.65-22.85.74-8.04.61-15.98-1.12-23.9-.51-2.35-1.81-3.24-4.08-3.39-3.91-.25-7.82-.63-11.72-.99-2.75-.25-4.25.88-4.91,3.63-.44,1.85-.54,3.71-.68,5.58-.62,8.15-1.26,16.3-1.99,24.44-.65,7.16-1.46,14.3-4.38,20.99-.54,1.24-1.34,2.1-2.54,2.82-4.3,2.58-8.82,2.64-13.53,1.7-3.27-.65-5.6-2.45-7.32-5.26-4.56-7.47-7.39-15.54-7.4-24.29-.02-11.13-1.13-22.23-.44-33.4.61-9.88.35-19.82.69-29.73.24-7.19-.03-14.41-.22-21.62-.46-17.68.15-35.38-.64-53.07-.28-6.2.28-12.44.56-18.66.16-3.54.25-7.09.67-10.63.57-4.87,2.61-9.2,4.38-13.67,2.32-5.86,6.29-9.82,12.48-11.44,2.38-.62,4.93-.7,6.95.37,5.08,2.7,8.85,6.86,10.25,12.55,1.01,4.11,1.6,8.33,1.71,12.62.18,6.7-.3,13.41.33,20.12.23,2.46,1.6,3.55,3.49,4.18,4.24,1.41,8.65,1.83,13.1,1.54,4.81-.32,5.49-1.07,6.7-5.78,1.08-4.19.85-8.44.88-12.69.03-3.61-.01-7.2-.43-10.8Z"/>
        <path class="cls-1" d="m1402.49,699.18c-8.44-.58-16.84.4-25.25.47-9.85.08-19.7.2-29.54.32-1.79.02-2.79-.56-2.52-2.6.2-1.54.16-3.11.19-4.66.21-13.98.52-27.97.56-41.95.02-5.94-.51-11.89-.8-17.83-.21-4.47-.21-4.61,4.28-4.51,12.3.28,24.53-.88,36.8-1.47,2.29-.11,3.48-1.13,3.57-3.4.07-1.55.15-3.11.15-4.67,0-5.07.02-10.14-1.96-14.97-.64-1.57-1.61-2.63-3.27-2.38-5.63.85-11.32-.1-16.39.63-7.86.32-15.14.37-22.42-.59-1.73-.23-2.19-.8-2.24-2.38-.13-4.67-.47-9.33-.56-14-.29-14.65-.93-29.29-1.65-43.93-.95-19.31-1.25-38.64-1.85-57.97-.08-2.68,1.06-3.28,3.19-3.34,10.74-.29,21.43-1.56,32.18-1.47,6.64.05,13.28-.02,19.91-.46,2.04-.13,2.6-.96,2.94-2.75,1.09-5.69-.13-11.37.05-17.05.04-1.18-.85-1.37-1.83-1.52-5.61-.8-11.25,0-16.87-.17-6.86-.2-13.74.6-20.61.74-7.3.15-14.62.23-21.92-.04-4.67-.17-9.31-.26-13.96.06-4.07.28-4.71.99-4.72,5.11,0,3.52.41,7,.29,10.54-.2,5.72-.98,11.43-.57,17.16.25,3.49-.18,6.96.01,10.47.37,6.69.3,13.41.29,20.12,0,13.83.78,27.63,1.41,41.44.44,9.55.08,19.12.65,28.68.72,12.02,1.09,24.07.89,36.12-.03,1.55.11,3.11.22,4.66.98,13.59.97,27.19.58,40.8-.22,7.6-.42,15.2-.75,22.8-.24,5.39.27,10.79-.35,16.19-.23,2.03.1,4.23.9,6.25.44,1.12,1.16,1.6,2.37,1.78,10.16,1.56,20.43,1.55,30.65,1.74,10.81.2,21.65-.48,32.44-1.2,5.44-.36,10.97-.34,16.31-1.85,2.32-.66,3.64-2.23,3.71-4.28.11-3.58-.24-7.2-.6-10.78-.22-2.21-1.26-3.67-3.9-3.85Z"/>
        <path class="cls-1" d="m1297.17,459.5c-3.38-.55-6.81-1.23-10.21-1.23-8.34.02-16.68-1.14-25.03.45-4.99.95-10.11.43-15.19.04-7.44-.57-14.91-.06-22.35-.22-7.62-.17-15.22-.42-22.83.19-2.85.23-3.95,1.21-4.32,4.02-.34,2.59-.67,5.17-.93,7.77-.55,5.49,1.23,7.68,6.69,8.34.16.02.33.01.49.03,10.61.97,21.23,1.72,31.89,1.45,1.47-.04,1.8.46,1.8,1.8.02,14.69.26,29.39.09,44.08-.14,12.01-.12,24.02-.42,36.03-.31,12.68-.64,25.35-1.08,38.02-.32,9.04-.53,18.09-.33,27.12.16,6.97.72,13.94.66,20.92-.05,6.02.24,12.04.44,18.04.33,9.47.03,18.91-.24,28.37-.17,5.99-1.69,11.97-.2,18,.42,1.69.95,2.65,2.9,2.94,4.74.7,9.48.96,14.22.39,5.92-.71,5.89-1.35,6.78-6.15,1.03-5.59.77-11.25,1-16.88.31-7.52,1.03-15.03.46-22.59-.54-7.09-.8-14.21-1.08-21.32-.26-6.54-.29-13.1-.59-19.64-.4-8.73-.76-17.48-.24-26.18.42-7.02.33-14.03.6-21.04.44-11.03.05-22.09.27-33.13.1-4.94.17-9.87.1-14.81-.23-17.04-.17-34.09-.79-51.13-.06-1.64.52-2.01,2.07-2.15,5.47-.49,10.93-.98,14.76-.77,7.65.11,13.6-.08,19.55-.76,2.58-.29,4.08-1.59,4.49-4.33.6-3.98.71-8.06.04-12.12-.35-2.14-1.58-3.25-3.47-3.56Z"/>
        <path class="cls-1" d="m1567.16,456.9c-9.34.23-18.67,1.21-28.03.66-3.12,0-6.23.05-9.35-.01-5.98-.12-7.93,1.79-7.97,7.94-.02,2.47.71,4.85,1.03,7.26.27,1.99,1.16,2.68,2.91,2.92,2.69.37,5.39.49,8.1.36,1.44-.07,2.03.3,1.99,1.89-.14,4.91.05,9.83-.21,14.72-.12,2.2-.52,4.39-.3,6.6.55,5.56.6,11.17.13,16.7-1.01,11.83-.84,23.7-.83,35.52,0,10.78.01,21.59.48,32.39.41,9.61.32,19.27-.14,28.92-.49,10.18-.45,20.4.18,30.62.72,11.58,1.37,23.18,1.11,34.8-.02,1.06.07,2.13.08,3.19,0,4.88-.03,9.77.03,14.65.01,1.09-.37,1.32-1.4,1.41-2.93.24-5.86.56-8.77,1-2.88.43-3.73,1.57-3.82,4.46-.1,3.21.39,6.34.99,9.49.59,3.08,1.87,4.38,4.94,4.01,2.22-.27,4.42-.22,6.63-.24,9.1-.09,18.2-.13,27.29-.27,4.16-.06,7.41-2.37,7.64-5.52.23-3.09.19-6.22-.65-9.26-.48-1.73-1.47-2.72-3.37-3.06-1.61-.29-3.25-.28-4.86-.51-1.63-.23-1.69-.89-1.78-2.18-.34-4.97-.04-9.96-.11-14.93-.22-14.54-1.24-29.04-1.77-43.56-.23-6.28-.27-12.55-.02-18.82.21-5.3.4-10.61.27-15.91-.28-12.41-.93-24.81-1.08-37.22-.07-5.79-.22-11.61-.43-17.38-.46-12.78.74-25.5.6-38.26-.06-5.57-.12-11.18-.05-16.77.06-4.99.15-9.99.19-14.98,0-.92.16-1.71,1.27-1.67,3.12.11,6.16-.84,9.25-.81,2.09.02,3.1-1.03,3.32-2.82.52-4.13.87-8.27.09-12.45-.41-2.21-1.33-2.96-3.59-2.9Z"/>
      </g>
    </g>
  </g>
</svg>