<?xml version="1.0" encoding="utf-8"?>
<!-- Generator: Adobe Illustrator 27.8.1, SVG Export Plug-In . SVG Version: 6.00 Build 0)  -->
<svg version="1.1" id="Layer_1" xmlns="http://www.w3.org/2000/svg" xmlns:xlink="http://www.w3.org/1999/xlink" x="0px" y="0px"
	 viewBox="0 0 1920 1080" style="enable-background:new 0 0 1920 1080;" xml:space="preserve">
<style type="text/css">
	.st0{fill:#6E0833;}
</style>
<g>
	<path class="st0" d="M1100.71,637.69c-0.51-2.34-0.85-4.54-1.04-6.6c-0.19-2.06-0.29-3.78-0.29-5.17c0-1.46,0.05-3.13,0.14-5.03
		c0.09-1.9,0.24-3.67,0.43-5.31l-5.41,2.09c-2.47,0.95-4.49,2.06-6.07,3.32c-1.58,1.27-2.83,2.64-3.75,4.13
		c-0.92,1.49-1.54,3.08-1.85,4.79c-0.32,1.71-0.47,3.51-0.47,5.41c0,1.14,0.05,2.58,0.14,4.32c0.1,1.74,0.27,3.58,0.52,5.5
		c0.25,1.93,0.63,3.88,1.14,5.84c0.51,1.96,1.17,3.73,1.99,5.31c0.82,1.58,1.85,2.86,3.08,3.84c1.23,0.98,2.7,1.47,4.41,1.47
		c1.71,0,3.23-0.35,4.55-1.04c1.33-0.7,2.51-1.53,3.56-2.51c1.04-0.98,1.95-2.01,2.71-3.08c0.76-1.08,1.39-2.02,1.9-2.85
		c-1.46-2.34-2.64-4.74-3.56-7.21C1101.93,642.43,1101.22,640.03,1100.71,637.69z"/>
	<path class="st0" d="M774.65,620.98c-1.96,0-3.84,0.57-5.65,1.71c-1.8,1.14-3.43,2.55-4.89,4.22c-1.46,1.68-2.72,3.48-3.8,5.41
		c-1.08,1.93-1.9,3.72-2.47,5.36c1.45,0.25,3.07,0.38,4.84,0.38c2.28,0,4.43-0.35,6.45-1.04c2.02-0.7,3.81-1.61,5.36-2.75
		c1.55-1.14,2.78-2.47,3.7-3.99c0.92-1.52,1.38-3.1,1.38-4.75c0-1.26-0.38-2.34-1.14-3.23
		C777.68,621.43,776.42,620.98,774.65,620.98z"/>
	<path class="st0" d="M630.59,620.98c-1.96,0-3.84,0.57-5.65,1.71c-1.8,1.14-3.43,2.55-4.89,4.22c-1.46,1.68-2.72,3.48-3.8,5.41
		c-1.08,1.93-1.9,3.72-2.47,5.36c1.45,0.25,3.07,0.38,4.84,0.38c2.28,0,4.43-0.35,6.45-1.04c2.02-0.7,3.81-1.61,5.36-2.75
		c1.55-1.14,2.78-2.47,3.7-3.99c0.92-1.52,1.38-3.1,1.38-4.75c0-1.26-0.38-2.34-1.14-3.23
		C633.63,621.43,632.36,620.98,630.59,620.98z"/>
	<path class="st0" d="M950.92,629c0.22-0.85,0.33-1.6,0.33-2.23c0-0.57-0.08-1.19-0.24-1.85c-0.16-0.66-0.44-1.28-0.85-1.85
		c-0.41-0.57-0.96-1.06-1.66-1.47c-0.7-0.41-1.61-0.62-2.75-0.62c-2.09,0-4.13,0.58-6.12,1.75c-1.99,1.17-3.86,2.71-5.6,4.6
		c-1.74,1.9-3.34,4.07-4.79,6.5c-1.46,2.44-2.7,4.9-3.75,7.4c-1.04,2.5-1.85,4.92-2.42,7.26c-0.57,2.34-0.85,4.4-0.85,6.17
		c0,2.03,0.39,3.67,1.19,4.93c0.79,1.27,2.1,1.9,3.94,1.9c1.83,0,3.7-0.57,5.6-1.71c1.9-1.14,3.64-2.5,5.22-4.08
		c1.58-1.58,2.94-3.16,4.08-4.75c1.14-1.58,1.87-2.81,2.18-3.7l5.03-13.95C950.21,631.3,950.7,629.86,950.92,629z"/>
	<path class="st0" d="M1060.22,452.36h-25.28v41.72h25.28c18.84,0,29.33-6.44,29.33-20.34
		C1089.55,459.62,1079.06,452.36,1060.22,452.36z"/>
	<path class="st0" d="M1312.71,620.98c-1.84,0-3.58,0.54-5.22,1.61c-1.65,1.08-3.15,2.48-4.51,4.22c-1.36,1.74-2.58,3.72-3.65,5.93
		c-1.08,2.22-1.98,4.48-2.71,6.79c-0.73,2.31-1.28,4.55-1.66,6.74c-0.38,2.18-0.57,4.1-0.57,5.74c0,3.23,0.77,5.62,2.32,7.17
		c1.55,1.55,3.53,2.33,5.93,2.33c1.96,0,3.8-0.57,5.5-1.71s3.26-2.64,4.65-4.51c1.39-1.87,2.62-3.94,3.7-6.22
		c1.07-2.28,1.98-4.56,2.7-6.83c0.73-2.28,1.28-4.43,1.66-6.45c0.38-2.02,0.57-3.67,0.57-4.93c0-3.04-0.65-5.44-1.95-7.21
		C1318.2,621.87,1315.94,620.98,1312.71,620.98z"/>
	<path class="st0" d="M1116.51,607.7c1.61-1.08,2.99-2.29,4.13-3.65c1.14-1.36,1.71-2.83,1.71-4.41c0-1.58-0.54-2.89-1.61-3.94
		c-1.08-1.04-2.53-1.57-4.37-1.57c-2.09,0-3.72,0.54-4.89,1.61c-1.17,1.08-2.04,2.47-2.61,4.18c-0.57,1.71-0.95,3.64-1.14,5.79
		c-0.19,2.15-0.32,4.3-0.38,6.45c1.14-0.38,2.55-0.95,4.22-1.71C1113.25,609.69,1114.9,608.77,1116.51,607.7z"/>
	<path class="st0" d="M1476.08,629c0.22-0.85,0.33-1.6,0.33-2.23c0-0.57-0.08-1.19-0.24-1.85c-0.16-0.66-0.44-1.28-0.85-1.85
		c-0.41-0.57-0.96-1.06-1.66-1.47c-0.7-0.41-1.61-0.62-2.75-0.62c-2.09,0-4.13,0.58-6.12,1.75c-1.99,1.17-3.86,2.71-5.6,4.6
		c-1.74,1.9-3.34,4.07-4.79,6.5c-1.46,2.44-2.71,4.9-3.75,7.4c-1.04,2.5-1.85,4.92-2.42,7.26c-0.57,2.34-0.85,4.4-0.85,6.17
		c0,2.03,0.39,3.67,1.19,4.93c0.79,1.27,2.1,1.9,3.94,1.9s3.7-0.57,5.6-1.71c1.9-1.14,3.64-2.5,5.22-4.08
		c1.58-1.58,2.94-3.16,4.08-4.75c1.14-1.58,1.87-2.81,2.18-3.7l5.03-13.95C1475.36,631.3,1475.85,629.86,1476.08,629z"/>
	<path class="st0" d="M1388.44,620.98c-1.96,0-3.84,0.57-5.65,1.71c-1.8,1.14-3.43,2.55-4.89,4.22c-1.46,1.68-2.72,3.48-3.8,5.41
		c-1.08,1.93-1.9,3.72-2.47,5.36c1.46,0.25,3.07,0.38,4.84,0.38c2.28,0,4.43-0.35,6.45-1.04c2.02-0.7,3.81-1.61,5.36-2.75
		c1.55-1.14,2.78-2.47,3.7-3.99s1.38-3.1,1.38-4.75c0-1.26-0.38-2.34-1.14-3.23C1391.47,621.43,1390.21,620.98,1388.44,620.98z"/>
	<path class="st0" d="M906.41,468.84c-1.85-5.13-3.08-9.23-3.9-12.71c-1.03,3.49-2.26,7.59-4.1,12.71l-14.97,37.31h38.14
		L906.41,468.84z"/>
	<path class="st0" d="M255.16,311.02v457.97h1409.68V311.02H255.16z M1414.14,507.13c-25.69-7.87-40.73-20.51-40.73-45.07
		c0-24.32,17.35-42.21,48.13-42.21c30.05,0,42.69,10.73,53.73,19.01l-9.49,24.8c-23.62-13.54-28.51-15.03-41.7-15.03
		c-10.18,0-17.59,3.65-17.59,10.81c0,10.02,7.64,12.64,36.33,22.42c27.3,9.54,39.11,19.79,39.11,44.59
		c0,27.19-19.44,43.4-49.75,43.4c-18.74,0-45.68-9.01-64.42-20.7l17.18-23.64c18.06,9.49,33.01,15.48,45.62,15.48
		c10.41,0,16.66-4.53,16.66-12.64C1447.23,519.06,1442.14,515.72,1414.14,507.13z M1217.5,422.24h32.97v77.03
		c0,26.95,10.83,40.3,31.08,40.3c20.72,0,31.55-13.35,31.55-40.3v-77.03h32.73v77.26c0,46.74-21.66,70.35-64.29,70.35
		c-42.39,0-64.05-23.61-64.05-70.59V422.24z M885.77,422.24h33.73l59.11,145.47h-32.7l-13.09-29.78H872.2l-12.85,29.78h-32.94
		L885.77,422.24z M675.73,422.24h29.56l67.56,91.57v-91.57h32.61v145.47h-29.79l-67.33-90.62v90.62h-32.61V422.24z M606.6,422.24
		h33.15v145.47H606.6V422.24z M469.59,422.24l40.3,96.09l40.3-96.09h35.29l-59.3,145.47h-16.29h-16.29l-59.3-145.47H469.59z
		 M480.84,662.83l0.38-45.74h-0.19l-30.75,45.74h-2.37l0.76-67.47h-10.44l0.38-1.33h27.9l-0.38,1.33h-9.21l-0.57,55.9h0.19
		l24.77-37.11l0.19-18.79h-9.96l0.38-1.33h28.75l-0.38,1.33h-10.63l-0.57,55.23h0.19l36.92-55.23h-9.11l0.38-1.33h19.45l-0.38,1.33
		h-8.45l-45.36,67.47H480.84z M545.52,655.76c-0.54,1.04-1.28,2.09-2.23,3.13c-0.95,1.04-2.12,1.95-3.51,2.71
		c-1.39,0.76-3.04,1.14-4.94,1.14c-2.09,0-3.75-0.43-4.98-1.28c-1.23-0.85-1.85-2.29-1.85-4.32c0-1.08,0.19-2.26,0.57-3.56
		c0.38-1.3,0.76-2.48,1.14-3.56l9.77-27.81h-8.45l0.38-1.33h15.09l-11.2,32.17c-0.32,0.95-0.63,1.91-0.95,2.89
		c-0.32,0.98-0.47,1.91-0.47,2.8c0,0.76,0.22,1.41,0.66,1.95c0.44,0.54,1.11,0.81,1.99,0.81c1.01,0,2.01-0.35,2.99-1.04
		c0.98-0.7,1.88-1.5,2.7-2.42c0.82-0.92,1.52-1.85,2.09-2.8c0.57-0.95,0.98-1.71,1.23-2.28l1.14,0.47
		C546.45,653.95,546.05,654.72,545.52,655.76z M546.66,601.67c-0.85-0.85-1.28-1.91-1.28-3.18c0-1.26,0.43-2.33,1.28-3.18
		c0.85-0.85,1.91-1.28,3.18-1.28c1.26,0,2.33,0.43,3.18,1.28c0.85,0.85,1.28,1.92,1.28,3.18c0,1.27-0.43,2.33-1.28,3.18
		c-0.85,0.85-1.91,1.28-3.18,1.28C548.57,602.95,547.51,602.53,546.66,601.67z M597.28,655.95c-0.57,1.04-1.31,2.07-2.23,3.08
		c-0.92,1.01-2.04,1.88-3.37,2.61s-2.91,1.09-4.74,1.09c-2.03,0-3.73-0.44-5.12-1.33c-1.39-0.89-2.09-2.34-2.09-4.37
		c0-0.82,0.11-1.68,0.33-2.56c0.22-0.89,0.49-1.83,0.81-2.85l7.97-22.68c0.51-1.52,0.76-2.78,0.76-3.8c0-0.82-0.27-1.61-0.81-2.37
		c-0.54-0.76-1.5-1.14-2.89-1.14c-1.39,0-3.01,0.52-4.84,1.57c-1.84,1.04-3.67,2.47-5.5,4.27c-1.84,1.8-3.56,3.92-5.17,6.36
		c-1.61,2.44-2.93,5.08-3.94,7.92l-7.12,19.83h-6.55l13.67-39.38h-8.64l0.38-1.33h14.99l-3.89,11.67h0.19
		c6.14-8.16,11.92-12.24,17.37-12.24c2.66,0,4.76,0.71,6.31,2.14c1.55,1.42,2.32,3.18,2.32,5.27c0,1.08-0.17,2.14-0.52,3.18
		c-0.35,1.04-0.78,2.29-1.28,3.75l-6.17,17.56c-0.38,1.08-0.73,2.13-1.04,3.18c-0.32,1.04-0.47,2.07-0.47,3.08
		c0,0.76,0.16,1.46,0.47,2.09c0.32,0.63,0.98,0.95,1.99,0.95c1.14,0,2.18-0.32,3.13-0.95c0.95-0.63,1.82-1.39,2.61-2.28
		c0.79-0.89,1.47-1.82,2.04-2.8c0.57-0.98,1.01-1.82,1.33-2.51l1.04,0.47C598.3,654.07,597.85,654.91,597.28,655.95z M640.03,631.28
		c-0.92,1.3-2.1,2.41-3.56,3.32c-1.46,0.92-3.05,1.69-4.79,2.33c-1.74,0.63-3.43,1.12-5.08,1.47c-1.65,0.35-3.15,0.6-4.51,0.76
		c-1.36,0.16-2.36,0.24-2.99,0.24c-1.08,0-2.12-0.03-3.13-0.09c-1.01-0.06-1.9-0.16-2.66-0.29c-0.7,2.03-1.28,4.03-1.76,6.03
		c-0.47,1.99-0.71,4.1-0.71,6.31c0,3.42,0.89,5.96,2.66,7.64c1.77,1.68,4.02,2.51,6.74,2.51c2.02,0,3.81-0.39,5.36-1.19
		c1.55-0.79,2.91-1.72,4.08-2.8c1.17-1.07,2.15-2.17,2.94-3.27c0.79-1.11,1.44-1.98,1.95-2.61l1.14,0.66
		c-0.38,0.44-0.95,1.25-1.71,2.42c-0.76,1.17-1.8,2.34-3.13,3.51c-1.33,1.17-2.96,2.22-4.89,3.13c-1.93,0.92-4.26,1.38-6.98,1.38
		c-2.72,0-5.02-0.44-6.88-1.33c-1.87-0.89-3.39-2.02-4.56-3.42c-1.17-1.39-2.03-2.92-2.56-4.6c-0.54-1.68-0.81-3.3-0.81-4.89
		c0-3.16,0.77-6.44,2.32-9.82c1.55-3.38,3.57-6.48,6.07-9.3c2.5-2.81,5.33-5.14,8.49-6.98c3.16-1.83,6.39-2.75,9.68-2.75
		c1.27,0,2.53,0.14,3.8,0.43c1.27,0.29,2.4,0.71,3.42,1.28c1.01,0.57,1.83,1.3,2.47,2.18c0.63,0.89,0.95,1.96,0.95,3.23
		C641.41,628.48,640.95,629.98,640.03,631.28z M733.84,660.27l-0.38,1.33h-29.32l0.38-1.33h9.87l23.35-64.91h-0.19L691.8,661.6
		l1.33-66.24h-0.28l-23.06,64.91h10.82l-0.38,1.33h-22.02l0.38-1.33h9.77l23.25-64.91H680.7l0.38-1.33h20.31l-1.14,52.67h0.19
		l36.35-52.67h19.64l-0.38,1.33h-9.77l-23.25,64.91H733.84z M784.09,631.28c-0.92,1.3-2.1,2.41-3.56,3.32
		c-1.46,0.92-3.05,1.69-4.79,2.33c-1.74,0.63-3.43,1.12-5.08,1.47c-1.65,0.35-3.15,0.6-4.51,0.76c-1.36,0.16-2.36,0.24-2.99,0.24
		c-1.08,0-2.12-0.03-3.13-0.09c-1.01-0.06-1.9-0.16-2.66-0.29c-0.7,2.03-1.28,4.03-1.76,6.03c-0.47,1.99-0.71,4.1-0.71,6.31
		c0,3.42,0.89,5.96,2.66,7.64c1.77,1.68,4.02,2.51,6.74,2.51c2.02,0,3.81-0.39,5.36-1.19c1.55-0.79,2.91-1.72,4.08-2.8
		c1.17-1.07,2.15-2.17,2.94-3.27c0.79-1.11,1.44-1.98,1.95-2.61l1.14,0.66c-0.38,0.44-0.95,1.25-1.71,2.42
		c-0.76,1.17-1.8,2.34-3.13,3.51c-1.33,1.17-2.96,2.22-4.89,3.13c-1.93,0.92-4.26,1.38-6.98,1.38c-2.72,0-5.02-0.44-6.88-1.33
		c-1.87-0.89-3.39-2.02-4.56-3.42c-1.17-1.39-2.03-2.92-2.56-4.6c-0.54-1.68-0.81-3.3-0.81-4.89c0-3.16,0.77-6.44,2.32-9.82
		c1.55-3.38,3.57-6.48,6.07-9.3c2.5-2.81,5.33-5.14,8.49-6.98c3.16-1.83,6.39-2.75,9.68-2.75c1.27,0,2.53,0.14,3.8,0.43
		c1.27,0.29,2.4,0.71,3.42,1.28c1.01,0.57,1.83,1.3,2.47,2.18c0.63,0.89,0.95,1.96,0.95,3.23
		C785.46,628.48,785,629.98,784.09,631.28z M826.79,629.1c-0.35,0.66-0.79,1.17-1.33,1.52c-0.54,0.35-1.09,0.59-1.66,0.71
		c-0.57,0.13-1.11,0.19-1.61,0.19c-0.89,0-1.61-0.22-2.18-0.66c-0.57-0.44-0.85-1.11-0.85-1.99c0-0.7,0.14-1.22,0.43-1.57
		c0.28-0.35,0.58-0.68,0.9-1c0.32-0.32,0.62-0.66,0.9-1.04c0.28-0.38,0.43-0.89,0.43-1.52c0-0.63-0.25-1.14-0.76-1.52
		c-0.51-0.38-1.14-0.57-1.9-0.57c-1.2,0-2.6,0.62-4.18,1.85c-1.58,1.23-3.15,2.82-4.7,4.75c-1.55,1.93-3.02,4.13-4.41,6.59
		c-1.39,2.47-2.53,4.93-3.42,7.4l-6.83,19.36h-6.64l10.25-29.23c0.57-1.64,1.11-3.32,1.61-5.03c0.51-1.71,1.01-3.42,1.52-5.12h-8.26
		l0.38-1.33h14.61c-0.32,1.33-0.78,3.01-1.38,5.03c-0.6,2.03-1.25,3.99-1.95,5.88l0.19,0.19c0.63-0.95,1.42-2.09,2.37-3.42
		c0.95-1.33,2.02-2.61,3.23-3.84c1.2-1.23,2.53-2.28,3.99-3.13c1.45-0.85,3-1.28,4.65-1.28c2.34,0,4.13,0.67,5.36,1.99
		c1.23,1.33,1.82,2.75,1.76,4.27C827.31,627.6,827.14,628.43,826.79,629.1z M862.47,631.33c-1.04,0.63-2.14,0.95-3.27,0.95
		s-1.93-0.24-2.37-0.71c-0.44-0.47-0.66-1.03-0.66-1.66c0-0.76,0.13-1.38,0.38-1.85c0.25-0.47,0.55-0.9,0.9-1.28
		c0.35-0.38,0.65-0.81,0.9-1.28c0.25-0.47,0.38-1.09,0.38-1.85c0-1.01-0.36-1.71-1.09-2.09c-0.73-0.38-1.72-0.57-2.99-0.57
		c-2.03,0-3.92,0.51-5.69,1.52c-1.77,1.01-3.4,2.36-4.89,4.03c-1.49,1.68-2.8,3.59-3.94,5.74c-1.14,2.15-2.12,4.37-2.94,6.64
		c-0.82,2.28-1.44,4.52-1.85,6.74c-0.41,2.22-0.62,4.24-0.62,6.07c0,2.72,0.77,5.03,2.33,6.93c1.55,1.9,3.94,2.85,7.16,2.85
		c1.77,0,3.4-0.33,4.89-1c1.49-0.66,2.83-1.5,4.03-2.51c1.2-1.01,2.24-2.1,3.13-3.27c0.89-1.17,1.61-2.23,2.18-3.18l1.33,0.76
		c-0.76,1.2-1.66,2.42-2.7,3.65s-2.25,2.36-3.61,3.37c-1.36,1.01-2.93,1.84-4.7,2.47c-1.77,0.63-3.76,0.95-5.98,0.95
		c-2.34,0-4.43-0.38-6.26-1.14c-1.84-0.76-3.37-1.79-4.6-3.08c-1.23-1.3-2.18-2.8-2.85-4.51c-0.66-1.71-1-3.54-1-5.5
		c0-3.23,0.76-6.53,2.28-9.92c1.52-3.38,3.54-6.48,6.07-9.3c2.53-2.81,5.42-5.12,8.68-6.93c3.26-1.8,6.63-2.71,10.11-2.71
		c1.08,0,2.14,0.13,3.18,0.38c1.04,0.25,1.98,0.66,2.8,1.23c0.82,0.57,1.5,1.34,2.04,2.33c0.54,0.98,0.81,2.2,0.81,3.65
		C864.04,629.33,863.52,630.7,862.47,631.33z M909.02,655.95c-0.57,1.04-1.31,2.07-2.23,3.08c-0.92,1.01-2.04,1.88-3.37,2.61
		s-2.91,1.09-4.74,1.09c-2.03,0-3.73-0.44-5.12-1.33c-1.39-0.89-2.09-2.34-2.09-4.37c0-0.82,0.11-1.68,0.33-2.56
		c0.22-0.89,0.49-1.83,0.81-2.85l7.97-22.68c0.51-1.52,0.76-2.78,0.76-3.8c0-0.82-0.27-1.61-0.81-2.37
		c-0.54-0.76-1.5-1.14-2.89-1.14c-1.39,0-3.01,0.52-4.84,1.57c-1.84,1.04-3.67,2.47-5.5,4.27c-1.84,1.8-3.56,3.92-5.17,6.36
		c-1.61,2.44-2.93,5.08-3.94,7.92l-7.12,19.83h-6.55l25.62-70.79h-8.64l0.38-1.33h14.99l-15.85,42.99h0.19
		c0.95-1.26,2.06-2.61,3.32-4.03c1.27-1.42,2.66-2.74,4.18-3.94c1.52-1.2,3.12-2.2,4.79-2.99c1.68-0.79,3.37-1.19,5.08-1.19
		c2.66,0,4.76,0.71,6.31,2.14c1.55,1.42,2.32,3.18,2.32,5.27c0,1.08-0.17,2.14-0.52,3.18c-0.35,1.04-0.78,2.29-1.28,3.75
		l-6.17,17.56c-0.38,1.08-0.73,2.13-1.04,3.18c-0.32,1.04-0.47,2.07-0.47,3.08c0,0.76,0.16,1.46,0.47,2.09
		c0.32,0.63,0.98,0.95,1.99,0.95c1.14,0,2.18-0.32,3.13-0.95c0.95-0.63,1.82-1.39,2.61-2.28c0.79-0.89,1.47-1.82,2.04-2.8
		c0.57-0.98,1.01-1.82,1.33-2.51l1.04,0.47C910.03,654.07,909.59,654.91,909.02,655.95z M950.49,660.94c1.27,0,2.4-0.36,3.42-1.09
		c1.01-0.73,1.88-1.55,2.61-2.47c0.73-0.92,1.33-1.83,1.8-2.75c0.47-0.92,0.81-1.57,1-1.95l1.23,0.67c-0.32,0.7-0.79,1.58-1.42,2.66
		c-0.63,1.08-1.46,2.1-2.47,3.08c-1.01,0.98-2.18,1.84-3.51,2.56c-1.33,0.73-2.88,1.09-4.65,1.09c-4.18,0-6.26-1.9-6.26-5.69
		c0-0.44,0.09-1.22,0.29-2.33c0.19-1.11,0.44-2.1,0.76-2.99h-0.19c-0.89,1.08-1.9,2.26-3.04,3.56c-1.14,1.3-2.42,2.5-3.84,3.61
		c-1.42,1.11-2.99,2.03-4.7,2.75c-1.71,0.73-3.61,1.09-5.69,1.09c-1.33,0-2.61-0.24-3.84-0.71s-2.33-1.2-3.27-2.18
		c-0.95-0.98-1.69-2.23-2.23-3.75c-0.54-1.52-0.81-3.32-0.81-5.41c0-2.53,0.51-5.06,1.52-7.59c1.01-2.53,2.33-4.95,3.94-7.26
		c1.61-2.31,3.48-4.44,5.6-6.41c2.12-1.96,4.27-3.67,6.45-5.12c2.18-1.46,4.33-2.59,6.45-3.42c2.12-0.82,4-1.23,5.65-1.23
		c1.9,0,3.51,0.54,4.84,1.61c1.33,1.08,1.99,2.5,1.99,4.27h0.19l1.61-4.65h6.64l-10.34,28.75c-0.57,1.65-1.06,3.23-1.47,4.75
		c-0.41,1.52-0.62,2.88-0.62,4.08C948.12,660.12,948.91,660.94,950.49,660.94z M1010.94,655.95c-0.57,1.04-1.31,2.07-2.23,3.08
		c-0.92,1.01-2.04,1.88-3.37,2.61c-1.33,0.73-2.91,1.09-4.75,1.09c-2.03,0-3.73-0.44-5.12-1.33c-1.39-0.89-2.09-2.34-2.09-4.37
		c0-0.82,0.11-1.68,0.33-2.56c0.22-0.89,0.49-1.83,0.81-2.85l7.97-22.68c0.51-1.52,0.76-2.78,0.76-3.8c0-0.82-0.27-1.61-0.81-2.37
		c-0.54-0.76-1.5-1.14-2.89-1.14c-1.39,0-3.01,0.52-4.84,1.57c-1.84,1.04-3.67,2.47-5.5,4.27c-1.84,1.8-3.56,3.92-5.17,6.36
		c-1.61,2.44-2.93,5.08-3.94,7.92l-7.12,19.83h-6.55l13.67-39.38h-8.64l0.38-1.33h14.99l-3.89,11.67h0.19
		c6.14-8.16,11.92-12.24,17.37-12.24c2.66,0,4.76,0.71,6.31,2.14c1.55,1.42,2.33,3.18,2.33,5.27c0,1.08-0.17,2.14-0.52,3.18
		c-0.35,1.04-0.78,2.29-1.28,3.75l-6.17,17.56c-0.38,1.08-0.73,2.13-1.04,3.18c-0.32,1.04-0.47,2.07-0.47,3.08
		c0,0.76,0.16,1.46,0.47,2.09c0.32,0.63,0.98,0.95,1.99,0.95c1.14,0,2.18-0.32,3.13-0.95c0.95-0.63,1.82-1.39,2.61-2.28
		c0.79-0.89,1.47-1.82,2.04-2.8c0.57-0.98,1.01-1.82,1.33-2.51l1.04,0.47C1011.95,654.07,1011.51,654.91,1010.94,655.95z
		 M1047.47,622.22h-10.34l-10.82,30.18c-0.32,0.95-0.63,1.93-0.95,2.94c-0.32,1.01-0.47,2.03-0.47,3.04c0,0.95,0.24,1.71,0.71,2.28
		s1.25,0.85,2.33,0.85c1.14,0,2.21-0.35,3.23-1.04c1.01-0.7,1.93-1.5,2.75-2.42c0.82-0.92,1.52-1.85,2.09-2.8s0.98-1.71,1.23-2.28
		l1.14,0.47c-0.25,0.51-0.66,1.28-1.23,2.33s-1.33,2.09-2.28,3.13c-0.95,1.04-2.14,1.95-3.56,2.71c-1.42,0.76-3.12,1.14-5.08,1.14
		c-2.41,0-4.21-0.59-5.41-1.76c-1.2-1.17-1.8-2.58-1.8-4.22c0-1.26,0.24-2.71,0.71-4.32c0.47-1.61,0.96-3.08,1.47-4.41l9.3-25.81
		h-8.54l0.38-1.33h8.54l3.42-9.3h6.64l-3.42,9.3h10.34L1047.47,622.22z M1034.94,523.08v44.63h-33.15V422.24h57.95
		c45.02,0,62.72,15.79,62.72,52.94c0,21.94-10.78,34.78-29.86,42.41l34.15,47.49v2.62h-35.53l-31.72-44.63H1034.94z M1131.98,622.64
		c-0.54-0.35-1.25-0.52-2.13-0.52c-1.33,0-2.93,0.63-4.79,1.9c-1.87,1.27-3.78,3.58-5.74,6.93c-0.7,1.2-1.39,2.48-2.09,3.84
		c-0.7,1.36-1.38,2.7-2.04,4.03c-0.66,1.33-1.3,2.59-1.9,3.8c-0.6,1.2-1.12,2.25-1.57,3.13c0.25,1.39,0.71,3.05,1.38,4.98
		c0.66,1.93,1.38,3.59,2.14,4.98c0.32,0.57,0.7,1.2,1.14,1.9c0.44,0.7,0.98,1.33,1.61,1.9c0.63,0.57,1.39,1.06,2.28,1.47
		c0.88,0.41,1.93,0.62,3.13,0.62c1.64,0,3.13-0.44,4.46-1.33c1.33-0.89,2.51-2.01,3.56-3.37c1.04-1.36,1.95-2.86,2.71-4.51
		c0.76-1.64,1.41-3.23,1.95-4.75c0.54-1.52,0.95-2.86,1.23-4.03c0.29-1.17,0.46-1.98,0.52-2.42l1.33,0.29
		c-0.13,0.38-0.33,1.19-0.62,2.42c-0.28,1.23-0.68,2.64-1.19,4.22c-0.51,1.58-1.16,3.24-1.95,4.98c-0.79,1.74-1.77,3.32-2.94,4.75
		c-1.17,1.42-2.58,2.61-4.22,3.56c-1.65,0.95-3.54,1.42-5.69,1.42c-1.77,0-3.4-0.25-4.89-0.76c-1.49-0.51-2.86-1.2-4.13-2.09
		c-1.27-0.88-2.42-1.91-3.46-3.08c-1.04-1.17-2.01-2.39-2.89-3.65l-1.23,1.8c-1.65,2.41-3.53,4.3-5.65,5.69
		c-2.12,1.39-4.79,2.09-8.02,2.09c-1.84,0-3.83-0.35-5.98-1.04c-2.15-0.7-4.14-1.82-5.98-3.37c-1.84-1.55-3.37-3.56-4.6-6.03
		c-1.23-2.47-1.85-5.5-1.85-9.11c0-3.42,0.55-6.56,1.66-9.44c1.11-2.88,2.59-5.46,4.46-7.73c1.87-2.28,4.02-4.24,6.45-5.88
		c2.43-1.64,4.98-2.94,7.64-3.89l6.07-2.18c0.25-1.9,0.74-4.06,1.47-6.5c0.73-2.43,1.74-4.76,3.04-6.97c1.3-2.21,2.88-4.08,4.74-5.6
		c1.87-1.52,4.1-2.28,6.69-2.28c2.47,0,4.35,0.67,5.65,1.99c1.3,1.33,1.95,3.01,1.95,5.03c0,1.77-0.6,3.4-1.8,4.89
		c-1.2,1.49-2.66,2.8-4.37,3.94s-3.5,2.12-5.36,2.94c-1.87,0.82-3.46,1.46-4.79,1.9c0.13,3.48,0.33,7.29,0.62,11.43
		c0.28,4.14,0.9,8.4,1.85,12.76l1.33,5.98h0.19c1.58-3.23,3.05-6.23,4.41-9.02c1.36-2.78,2.78-5.2,4.27-7.26
		c1.49-2.05,3.1-3.67,4.84-4.84c1.74-1.17,3.78-1.76,6.12-1.76c2.4,0,4.38,0.63,5.93,1.9c1.55,1.27,2.33,2.91,2.33,4.93
		c0,1.27-0.32,2.33-0.95,3.18c-0.63,0.85-1.58,1.28-2.85,1.28c-2.28,0-3.42-1.08-3.42-3.23c0-0.57,0.05-1.03,0.14-1.38
		c0.09-0.35,0.19-0.65,0.28-0.9c0.09-0.25,0.17-0.52,0.24-0.81c0.06-0.29,0.09-0.71,0.09-1.28
		C1132.79,623.61,1132.52,622.99,1131.98,622.64z M1152.45,422.24h33.15v145.47h-33.15V422.24z M1232.24,610.17
		c0.25-0.7,0.51-1.71,0.76-3.04c0.25-1.33,0.38-2.59,0.38-3.8c0-2.34-0.51-4.25-1.52-5.74c-1.01-1.49-3.04-2.23-6.07-2.23h-20.02
		l-10.53,29.32h8.92c2.02,0,3.81-0.52,5.36-1.57c1.55-1.04,2.88-2.25,3.99-3.61c1.11-1.36,2.01-2.7,2.71-4.03
		c0.7-1.33,1.2-2.28,1.52-2.85h1.33l-9.96,27.62h-1.33c0.32-0.76,0.6-1.8,0.85-3.13c0.25-1.33,0.38-2.59,0.38-3.8
		c0-2.4-0.7-4.22-2.09-5.46s-3.29-1.85-5.69-1.85h-6.45l-12.24,34.26h22.21c2.53,0,4.89-0.73,7.07-2.18
		c2.18-1.45,4.11-3.15,5.79-5.08c1.68-1.93,3.08-3.84,4.22-5.74c1.14-1.9,1.96-3.32,2.47-4.27h1.33l-6.64,18.6h-55.14l0.38-1.33
		h9.77l23.25-64.91h-11.01l0.38-1.33h52.76l-5.79,16.13H1232.24z M1281.4,655.95c-0.57,1.04-1.31,2.07-2.23,3.08
		c-0.92,1.01-2.04,1.88-3.37,2.61c-1.33,0.73-2.91,1.09-4.75,1.09c-2.03,0-3.73-0.44-5.12-1.33c-1.39-0.89-2.09-2.34-2.09-4.37
		c0-0.82,0.11-1.68,0.33-2.56c0.22-0.89,0.49-1.83,0.81-2.85l7.97-22.68c0.51-1.52,0.76-2.78,0.76-3.8c0-0.82-0.27-1.61-0.81-2.37
		c-0.54-0.76-1.5-1.14-2.89-1.14c-1.39,0-3.01,0.52-4.84,1.57c-1.84,1.04-3.67,2.47-5.5,4.27c-1.84,1.8-3.56,3.92-5.17,6.36
		c-1.61,2.44-2.93,5.08-3.94,7.92l-7.12,19.83h-6.55l13.67-39.38h-8.64l0.38-1.33h14.99l-3.89,11.67h0.19
		c6.14-8.16,11.92-12.24,17.37-12.24c2.66,0,4.76,0.71,6.31,2.14c1.55,1.42,2.33,3.18,2.33,5.27c0,1.08-0.17,2.14-0.52,3.18
		c-0.35,1.04-0.78,2.29-1.28,3.75l-6.17,17.56c-0.38,1.08-0.73,2.13-1.04,3.18c-0.32,1.04-0.47,2.07-0.47,3.08
		c0,0.76,0.16,1.46,0.47,2.09c0.32,0.63,0.98,0.95,1.99,0.95c1.14,0,2.18-0.32,3.13-0.95c0.95-0.63,1.82-1.39,2.61-2.28
		c0.79-0.89,1.47-1.82,2.04-2.8c0.57-0.98,1.01-1.82,1.33-2.51l1.04,0.47C1282.41,654.07,1281.97,654.91,1281.4,655.95z
		 M1325.33,646.18c-1.58,3.26-3.58,6.12-5.98,8.59c-2.41,2.47-5.08,4.41-8.02,5.84c-2.94,1.42-5.74,2.13-8.4,2.13
		c-2.28,0-4.32-0.44-6.12-1.33c-1.8-0.89-3.35-2.06-4.65-3.51c-1.3-1.45-2.29-3.15-2.99-5.08c-0.7-1.93-1.04-3.97-1.04-6.12
		c0-3.8,0.79-7.35,2.37-10.68c1.58-3.32,3.59-6.18,6.03-8.59c2.43-2.4,5.14-4.3,8.11-5.69c2.97-1.39,5.82-2.09,8.54-2.09
		c2.47,0,4.62,0.51,6.45,1.52c1.83,1.01,3.35,2.31,4.56,3.89c1.2,1.58,2.09,3.32,2.66,5.22c0.57,1.9,0.85,3.73,0.85,5.5
		C1327.71,639.46,1326.91,642.92,1325.33,646.18z M1353.23,655.76c-0.57,1.04-1.33,2.09-2.28,3.13c-0.95,1.04-2.14,1.95-3.56,2.71
		c-1.42,0.76-3.12,1.14-5.08,1.14c-2.41,0-4.21-0.59-5.41-1.76c-1.2-1.17-1.8-2.58-1.8-4.22c0-1.26,0.24-2.71,0.71-4.32
		c0.47-1.61,0.96-3.08,1.47-4.41l9.3-25.81h-8.54l0.38-1.33h8.54l3.42-9.3h6.64l-3.42,9.3h10.34l-0.38,1.33h-10.34l-10.82,30.18
		c-0.32,0.95-0.63,1.93-0.95,2.94c-0.32,1.01-0.47,2.03-0.47,3.04c0,0.95,0.24,1.71,0.71,2.28s1.25,0.85,2.33,0.85
		c1.14,0,2.21-0.35,3.23-1.04c1.01-0.7,1.93-1.5,2.75-2.42c0.82-0.92,1.52-1.85,2.09-2.8s0.98-1.71,1.23-2.28l1.14,0.47
		C1354.21,653.95,1353.8,654.72,1353.23,655.76z M1397.88,631.28c-0.92,1.3-2.1,2.41-3.56,3.32c-1.46,0.92-3.05,1.69-4.79,2.33
		c-1.74,0.63-3.43,1.12-5.08,1.47c-1.65,0.35-3.15,0.6-4.51,0.76c-1.36,0.16-2.36,0.24-2.99,0.24c-1.08,0-2.12-0.03-3.13-0.09
		c-1.01-0.06-1.9-0.16-2.66-0.29c-0.7,2.03-1.28,4.03-1.75,6.03c-0.47,1.99-0.71,4.1-0.71,6.31c0,3.42,0.88,5.96,2.66,7.64
		c1.77,1.68,4.02,2.51,6.74,2.51c2.02,0,3.81-0.39,5.36-1.19c1.55-0.79,2.91-1.72,4.08-2.8c1.17-1.07,2.15-2.17,2.94-3.27
		c0.79-1.11,1.44-1.98,1.95-2.61l1.14,0.66c-0.38,0.44-0.95,1.25-1.71,2.42c-0.76,1.17-1.8,2.34-3.13,3.51
		c-1.33,1.17-2.96,2.22-4.89,3.13c-1.93,0.92-4.25,1.38-6.97,1.38c-2.72,0-5.01-0.44-6.88-1.33c-1.87-0.89-3.39-2.02-4.56-3.42
		c-1.17-1.39-2.03-2.92-2.56-4.6c-0.54-1.68-0.81-3.3-0.81-4.89c0-3.16,0.77-6.44,2.33-9.82c1.55-3.38,3.57-6.48,6.07-9.3
		c2.5-2.81,5.33-5.14,8.49-6.98c3.16-1.83,6.39-2.75,9.68-2.75c1.26,0,2.53,0.14,3.8,0.43c1.26,0.29,2.4,0.71,3.42,1.28
		c1.01,0.57,1.83,1.3,2.47,2.18c0.63,0.89,0.95,1.96,0.95,3.23C1399.26,628.48,1398.8,629.98,1397.88,631.28z M1437.64,631.33
		c-1.04,0.63-2.13,0.95-3.27,0.95c-1.14,0-1.93-0.24-2.37-0.71c-0.44-0.47-0.66-1.03-0.66-1.66c0-0.76,0.13-1.38,0.38-1.85
		c0.25-0.47,0.55-0.9,0.9-1.28c0.35-0.38,0.65-0.81,0.9-1.28c0.25-0.47,0.38-1.09,0.38-1.85c0-1.01-0.37-1.71-1.09-2.09
		c-0.73-0.38-1.72-0.57-2.99-0.57c-2.03,0-3.92,0.51-5.69,1.52c-1.77,1.01-3.4,2.36-4.89,4.03c-1.49,1.68-2.8,3.59-3.94,5.74
		c-1.14,2.15-2.12,4.37-2.94,6.64c-0.82,2.28-1.44,4.52-1.85,6.74c-0.41,2.22-0.62,4.24-0.62,6.07c0,2.72,0.77,5.03,2.33,6.93
		c1.55,1.9,3.94,2.85,7.17,2.85c1.77,0,3.4-0.33,4.89-1c1.49-0.66,2.83-1.5,4.03-2.51c1.2-1.01,2.25-2.1,3.13-3.27
		c0.89-1.17,1.61-2.23,2.18-3.18l1.33,0.76c-0.76,1.2-1.66,2.42-2.71,3.65s-2.25,2.36-3.61,3.37c-1.36,1.01-2.93,1.84-4.7,2.47
		c-1.77,0.63-3.76,0.95-5.98,0.95c-2.34,0-4.43-0.38-6.26-1.14s-3.37-1.79-4.6-3.08c-1.23-1.3-2.18-2.8-2.85-4.51s-1-3.54-1-5.5
		c0-3.23,0.76-6.53,2.28-9.92c1.52-3.38,3.54-6.48,6.07-9.3c2.53-2.81,5.42-5.12,8.68-6.93c3.26-1.8,6.63-2.71,10.11-2.71
		c1.08,0,2.14,0.13,3.18,0.38c1.04,0.25,1.98,0.66,2.8,1.23c0.82,0.57,1.5,1.34,2.04,2.33c0.54,0.98,0.81,2.2,0.81,3.65
		C1439.21,629.33,1438.69,630.7,1437.64,631.33z M1475.65,660.94c1.27,0,2.4-0.36,3.42-1.09c1.01-0.73,1.88-1.55,2.61-2.47
		c0.73-0.92,1.33-1.83,1.8-2.75c0.47-0.92,0.81-1.57,1-1.95l1.23,0.67c-0.32,0.7-0.79,1.58-1.42,2.66c-0.63,1.08-1.46,2.1-2.47,3.08
		c-1.01,0.98-2.18,1.84-3.51,2.56c-1.33,0.73-2.88,1.09-4.65,1.09c-4.18,0-6.26-1.9-6.26-5.69c0-0.44,0.09-1.22,0.29-2.33
		c0.19-1.11,0.44-2.1,0.76-2.99h-0.19c-0.89,1.08-1.9,2.26-3.04,3.56c-1.14,1.3-2.42,2.5-3.84,3.61c-1.42,1.11-2.99,2.03-4.7,2.75
		s-3.61,1.09-5.69,1.09c-1.33,0-2.61-0.24-3.84-0.71s-2.33-1.2-3.27-2.18c-0.95-0.98-1.69-2.23-2.23-3.75
		c-0.54-1.52-0.81-3.32-0.81-5.41c0-2.53,0.51-5.06,1.52-7.59c1.01-2.53,2.32-4.95,3.94-7.26c1.61-2.31,3.48-4.44,5.6-6.41
		c2.12-1.96,4.27-3.67,6.45-5.12c2.18-1.46,4.33-2.59,6.45-3.42c2.12-0.82,4-1.23,5.65-1.23c1.9,0,3.51,0.54,4.84,1.61
		c1.33,1.08,1.99,2.5,1.99,4.27h0.19l1.61-4.65h6.64l-10.34,28.75c-0.57,1.65-1.06,3.23-1.47,4.75c-0.41,1.52-0.62,2.88-0.62,4.08
		C1473.28,660.12,1474.07,660.94,1475.65,660.94z"/>
</g>
</svg>
