<?xml version="1.0" encoding="UTF-8"?>
<svg id="Layer_1" data-name="Layer 1" xmlns="http://www.w3.org/2000/svg" viewBox="0 0 360.9 547.46">
  <defs>
    <style>
      .cls-1 {
        fill: #fff;
        stroke-width: 0px;
      }
    </style>
  </defs>
  <polygon class="cls-1" points="69.87 81.88 68.8 59.82 62.16 60.15 63.5 87.71 80.92 86.87 80.65 81.35 69.87 81.88"/>
  <rect class="cls-1" x="84.68" y="58.97" width="6.64" height="27.6" transform="translate(-2.92 3.69) rotate(-2.36)"/>
  <path class="cls-1" d="m117.87,64.15c-.6-1.5-1.39-2.72-2.38-3.67-.99-.94-2.16-1.63-3.51-2.07s-2.81-.63-4.38-.58c-1.57.05-3.02.34-4.33.86-1.32.52-2.44,1.29-3.37,2.29s-1.64,2.27-2.14,3.81c-.5,1.54-.71,3.34-.64,5.42l.14,4.32c.07,2.05.4,3.83.99,5.33s1.39,2.73,2.38,3.68c.99.96,2.16,1.65,3.51,2.09,1.35.44,2.81.63,4.38.58,1.57-.05,3.02-.34,4.33-.86,1.32-.52,2.44-1.29,3.37-2.31.93-1.02,1.64-2.29,2.14-3.83.5-1.54.71-3.33.65-5.38l-.14-4.32c-.07-2.08-.4-3.87-1-5.37Zm-6.42,14.9c-.69,1.06-1.72,1.62-3.11,1.66-1.39.04-2.46-.44-3.21-1.46-.75-1.02-1.17-2.66-1.24-4.92l-.14-4.32c-.07-2.27.23-3.93.92-4.99.69-1.06,1.72-1.62,3.11-1.66,1.39-.04,2.46.44,3.21,1.46.75,1.02,1.17,2.66,1.24,4.92l.14,4.32c.07,2.27-.23,3.93-.92,4.99Z"/>
  <polygon class="cls-1" points="139.65 57.42 139.96 72.89 129.41 57.62 124.13 57.73 124.69 85.33 130.93 85.2 130.62 69.92 141.09 84.99 146.45 84.89 145.89 57.29 139.65 57.42"/>
  <polygon class="cls-1" points="167.3 57.12 167.37 67.67 158.89 67.73 158.82 57.17 152.19 57.21 152.36 84.81 159 84.77 158.93 73.25 167.41 73.19 167.48 84.71 174.12 84.67 173.94 57.07 167.3 57.12"/>
  <polygon class="cls-1" points="197.5 79.27 186.7 79.21 186.74 73.21 196.34 73.27 196.37 67.75 186.77 67.69 186.8 62.65 197.6 62.71 197.64 57.2 180.2 57.09 180.03 84.68 197.47 84.79 197.5 79.27"/>
  <path class="cls-1" d="m207.8,80.23l8.52.15,1.4,4.75,7.08.13-9.1-27.77-6.4-.12-10.09,27.42,7.08.13,1.52-4.69Zm4.52-13.6l2.37,8.2-5.08-.09,2.71-8.11Z"/>
  <path class="cls-1" d="m227.9,85.35l6.64.2.31-10.43,3.44.1,4.28,10.57,7.28.22-5.17-11.76c1.43-.6,2.55-1.49,3.34-2.68.8-1.19,1.22-2.69,1.28-4.5.04-1.44-.17-2.71-.63-3.8s-1.13-2.02-2.02-2.78c-.88-.76-1.96-1.34-3.23-1.74-1.27-.4-2.7-.62-4.3-.67l-10.39-.31-.83,27.58Zm7.3-21.87l2.96.09c.67.02,1.28.08,1.84.18s1.04.26,1.45.5c.41.24.72.57.93.99.21.42.31.96.29,1.63-.02.64-.15,1.16-.39,1.55-.24.39-.57.68-.99.87s-.91.31-1.47.36-1.18.06-1.84.04l-2.96-.09.18-6.12Z"/>
  <polygon class="cls-1" points="258.78 86.38 265.41 86.65 266.31 64.59 273.51 64.88 273.73 59.37 252.71 58.51 252.49 64.02 259.68 64.32 258.78 86.38"/>
  <path class="cls-1" d="m288.83,81.92c-.57.44-1.49.63-2.77.56-1.25-.06-2.3-.32-3.15-.76-.85-.44-1.59-1.11-2.24-2l-5.13,3.23c1.22,1.72,2.69,2.96,4.42,3.73,1.72.77,3.85,1.22,6.38,1.34,3.14.16,5.57-.47,7.28-1.88,1.71-1.41,2.63-3.36,2.76-5.87.06-1.17-.04-2.21-.3-3.12s-.7-1.72-1.32-2.43-1.44-1.35-2.47-1.93c-1.03-.57-2.27-1.11-3.74-1.61-1.73-.59-2.96-1.17-3.7-1.73-.73-.56-1.08-1.25-1.04-2.07.04-.69.31-1.25.83-1.68.52-.43,1.33-.61,2.45-.56,1.25.06,2.24.3,2.97.71.73.41,1.33,1.1,1.82,2.05l5.09-3.27c-.91-1.57-2.2-2.77-3.86-3.6-1.67-.83-3.61-1.3-5.82-1.41-1.68-.08-3.14.04-4.38.38-1.25.34-2.28.84-3.1,1.51-.82.67-1.45,1.48-1.88,2.43s-.68,2-.74,3.15c-.11,2.21.43,4.03,1.63,5.47,1.2,1.44,3.17,2.68,5.92,3.72,1,.37,1.82.71,2.47,1.03.65.31,1.17.62,1.56.92.39.3.65.61.79.94.14.33.21.69.19,1.09-.03.67-.33,1.22-.9,1.66Z"/>
  <polygon class="cls-1" points="139.63 45.4 139.59 41.26 131.49 41.34 131.34 24.78 126.36 24.82 126.55 45.52 139.63 45.4"/>
  <path class="cls-1" d="m155.28,43.42c.72-.74,1.28-1.69,1.68-2.83.4-1.14.6-2.48.59-4.02l-.02-3.24c0-1.56-.22-2.91-.64-4.05-.42-1.14-.99-2.07-1.71-2.8s-1.59-1.27-2.59-1.62-2.09-.53-3.27-.52c-1.18,0-2.27.19-3.27.56-1,.37-1.85.92-2.57,1.65s-1.28,1.67-1.68,2.81c-.4,1.14-.6,2.49-.59,4.05l.02,3.24c0,1.54.22,2.88.64,4.02s.99,2.07,1.71,2.81c.72.74,1.59,1.28,2.59,1.64s2.09.53,3.27.52c1.18,0,2.27-.19,3.27-.56,1-.37,1.85-.92,2.57-1.66Zm-3.5-3.1c-.54.78-1.32,1.18-2.36,1.18s-1.83-.38-2.38-1.16-.82-2.02-.83-3.72l-.02-3.24c0-1.7.25-2.94.79-3.72.54-.78,1.32-1.18,2.36-1.18,1.04,0,1.83.38,2.38,1.16.54.78.82,2.02.83,3.72l.02,3.24c0,1.7-.25,2.94-.79,3.72Z"/>
  <polygon class="cls-1" points="173.24 24.57 173.25 36.18 165.56 24.58 161.6 24.58 161.62 45.28 166.3 45.27 166.29 33.81 173.92 45.27 177.94 45.26 177.92 24.56 173.24 24.57"/>
  <path class="cls-1" d="m193.39,44.84c1-.31,1.86-.81,2.59-1.52.72-.71,1.29-1.62,1.7-2.74.41-1.12.62-2.49.63-4.11v-3c.02-1.64-.18-3.02-.59-4.14-.41-1.12-.97-2.03-1.69-2.74-.72-.7-1.58-1.21-2.57-1.52-1-.31-2.09-.47-3.27-.48l-7.71-.03-.07,20.7,7.71.03c1.18,0,2.27-.15,3.27-.45Zm-5.94-16.12h2.73c.64.01,1.16.13,1.57.36s.73.55.97.96c.24.41.4.91.49,1.49.09.58.13,1.22.13,1.92v3c-.01.7-.06,1.34-.15,1.92-.09.58-.26,1.07-.5,1.48-.24.41-.57.73-.98.96s-.94.34-1.58.34h-2.73s.04-12.43.04-12.43Z"/>
  <path class="cls-1" d="m204.19,43.47c.71.75,1.57,1.3,2.57,1.67,1,.37,2.09.56,3.27.57,1.18,0,2.27-.16,3.27-.51,1-.35,1.87-.89,2.59-1.63.73-.73,1.3-1.67,1.72-2.81.42-1.14.64-2.48.65-4.02l.03-3.24c.01-1.56-.18-2.91-.58-4.05-.4-1.14-.96-2.08-1.67-2.82-.71-.74-1.57-1.29-2.57-1.66s-2.09-.56-3.27-.57c-1.18,0-2.27.16-3.27.51-1,.35-1.87.89-2.59,1.61s-1.3,1.65-1.72,2.79-.64,2.48-.65,4.04l-.03,3.24c-.01,1.54.18,2.88.58,4.02.4,1.14.96,2.09,1.67,2.83Zm2.75-10.06c.01-1.7.29-2.94.84-3.71.55-.78,1.34-1.16,2.38-1.15,1.04,0,1.83.4,2.36,1.19.53.78.79,2.03.78,3.73l-.03,3.24c-.01,1.7-.29,2.94-.84,3.71s-1.34,1.16-2.38,1.15c-1.04,0-1.83-.41-2.36-1.19-.53-.78-.79-2.03-.78-3.73l.03-3.24Z"/>
  <polygon class="cls-1" points="227.02 34.11 234.5 45.66 238.52 45.71 238.78 25.01 234.1 24.96 233.95 36.57 226.42 24.86 222.46 24.81 222.2 45.51 226.88 45.57 227.02 34.11"/>
  <path class="cls-1" d="m179.77,477.52c26.84-9.33,53.84-23.77,78.1-39.04-7.17,1.97-14.42,3.74-21.75,5.29,0,0-2.27.3-6.06.78-15.33,8.55-31.3,16.28-47.26,22.28V107.95c79.09.23,140.71,6.5,156.48,8.26v76.18c3.24,4.48,6.25,9.13,9,13.92V12.72c0-2.28-1.71-4.2-3.98-4.47-.71-.08-71.6-8.25-166.01-8.25S12.99,8.16,12.29,8.25c-2.27.27-3.98,2.19-3.98,4.47v233.95c2.61-2.1,5.72-4.48,9-6.91v-123.54c15.78-1.76,77.39-8.02,156.48-8.26v358.9c-8.93-3.35-17.86-7.25-26.67-11.54.65,3.7,1.73,7.54,3.28,11.5,8.75,4.02,17.6,7.64,26.42,10.71.48.17.98.25,1.48.25s1-.08,1.48-.25ZM17.31,107.16V16.75c16.15-1.69,79.8-7.75,160.98-7.75s144.83,6.06,160.98,7.75v90.4c-17.81-1.96-80.95-8.21-160.98-8.21s-143.17,6.25-160.98,8.21Z"/>
  <path class="cls-1" d="m197.55,210.7c4.75-1.33,13.45-2.83,32.17-2.81,33.59.02,66.09,12.94,95.18,29.42,11.81,6.66,23.07,14.16,33.79,22.3-4.12-23.84-13.85-45.77-27.79-64.35-26.94-16.6-57.58-26.94-89.14-29.2-14.73-1.04-29.62-.59-44.21,1.66v42.98Z"/>
  <path class="cls-1" d="m359.29,263.41c-23.7-15.55-49.4-28.01-76.78-35.35-24.81-6.51-51.09-8.82-76.4-4.44-2.88.5-5.74,1.08-8.57,1.77v57.38c11.11-3.77,25.61-9.2,55.97-8.23,38.73,1.24,72.84,25.69,102.05,50.65,3.47-12.68,5.34-26.02,5.34-39.81,0-7.47-.55-14.8-1.6-21.98Z"/>
  <path class="cls-1" d="m159.12,410.8v-83.97c-60.66,52.42-93.35,143.43-1.51,169.2-35.86-47.58-14.87-76.26,1.51-85.23Z"/>
  <path class="cls-1" d="m15.09,316.91c3.68-3.33,6.41-4.83,11.29-6.34-5.24-8.64-7.47-18.53-7.47-28.36,0-.03-11.75-5.6-16.25-16.69,0,0,0,0,0,0-5.33,15.01-3.38,38.26,12.43,51.4Z"/>
  <path class="cls-1" d="m88.09,421.97v-46.6c-27.73,17.29-26.51,49.34-26.51,49.34,0,25.95,25.8,47.87,51.6,55.42-14.37-16.29-25.1-24.08-25.1-58.17h0Z"/>
  <path class="cls-1" d="m91.22,363.21h17.86s43.68-35.39-7.63-91.9c0,0,25.46,15.74,57.68,17.14v-98.15c-7.23-2.29-14.53-3.91-21.02-4.59-13.69-.98-27.88.84-27.88.84,10.42-9.09,27.54-18.51,48.9-25.19v-17.18c-43.67,15.85-64.85,45.96-64.85,45.96l-13.72,4.59c24.96-42.02,60.94-56.8,78.56-61.72v-10.31c-6.56-2.74-14.15-2.6-20.77.71-21.66,10.81-50.35,25.13-62.81,31.35l-.17,33.4c-5.39-1.55-10.83-7.77-12.93-12.7-3.63,14.27-.89,25.92.21,29.36-8,5.49-18.86,14.92-22.04,20.03h13.42c-3.03,1.43-38.15,25.22-45.98,33.51,3.32.09,6.87,1.01,12,3.85,0,0,10.97-10.08,25.68-10.08,6.44,0,13.23,1.05,12.51,1.28-6.44,2.15-12.62,5.78-16.81,9.05,1.03,1.61.41.63,3.05,5.21,0,0-10.55,4.92-18.76,12.13,1.12,8.35,4.9,36.84,36.85,44.05,10.2,2.3,25.41,4.36,26.41,17.89l.09,7.32c-3.51-10.63-13.71-12.59-17.72-13.4-16.85-2.94-31.21-6.34-40.73-19.03-3.87,2.35-23.96,15.64-23.93,38.17,0,8.36.74,26.65,20.85,39.54v-22.86s12.92,9.59,12.92,35.08c.13-.3.26-.62.4-.95,2.97-23.64,22.96-41.96,47.31-42.33,1.02-.04,2.03-.07,3.05-.07Zm-19.93-115.18s1.37-6.26,15.88-13.13l-5.65-10.08h8.4v-8.7h14.5s32.37,0,32.37,18.78c0,0-40.15,2.75-65.5,13.13Z"/>
  <path class="cls-1" d="m197.55,301.11v86.54c8.38-6.09,17.82-13.6,28.78-23.12,19.36-20.24,30.6-39.96,36.77-53.55,4.55-10.54,6.67-17.92,6.67-17.92-22.25-8.16-47.82-3.87-72.23,8.04Z"/>
  <path class="cls-1" d="m321.53,359.62c-19.41,30.91-47.38,56.14-79.71,72.84,52.26-11.05,94.49-49.24,111.27-99.14-4.39-3.31-8.86-6.49-13.43-9.53-4.66,12.57-11.01,24.54-18.13,35.83Z"/>
  <path class="cls-1" d="m197.55,406.9v28.26c4.29.37,8.63.56,13.01.56,6.02,0,10.59-.21,16.42-.9,27.86-15.03,53.53-36.54,71.28-62.76,11.45-16.94,20.59-35.56,26.05-55.26.19-.71.38-1.43.56-2.15-7.75-4.42-15.75-8.42-24.01-11.89-4.2-1.72-8.52-3.33-12.94-4.78-4.02,15.26-11.37,29.61-19.86,42.75-17.85,27.27-42.73,49.4-70.51,66.17Z"/>
  <path class="cls-1" d="m210.56,135.05c-4.39,0-8.72.2-13.01.57v17.72c7.06-.77,14.34-1.19,21.8-1.21,36.46-.06,72.23,12.93,102.83,32.55-27.51-30.47-67.33-49.63-111.61-49.63Z"/>
  <polygon class="cls-1" points="73.15 536.14 67.99 519.47 60.75 519.47 70.19 547.06 76.15 547.06 85.59 519.47 78.35 519.47 73.15 536.14"/>
  <path class="cls-1" d="m106.47,521.96c-.96-.97-2.11-1.7-3.44-2.18s-2.79-.72-4.36-.72-3.03.24-4.36.72-2.48,1.21-3.44,2.18-1.71,2.22-2.26,3.74c-.55,1.52-.82,3.32-.82,5.4v4.32c0,2.05.27,3.84.82,5.36.55,1.52,1.3,2.77,2.26,3.76s2.11,1.72,3.44,2.2,2.79.72,4.36.72,3.03-.24,4.36-.72,2.48-1.21,3.44-2.2c.96-.99,1.71-2.24,2.26-3.76.55-1.52.82-3.31.82-5.36v-4.32c0-2.08-.27-3.88-.82-5.4-.55-1.52-1.3-2.77-2.26-3.74Zm-3.56,13.46c0,2.27-.36,3.92-1.08,4.96-.72,1.04-1.77,1.56-3.16,1.56s-2.44-.52-3.16-1.56c-.72-1.04-1.08-2.69-1.08-4.96v-4.32c0-2.27.36-3.92,1.08-4.96.72-1.04,1.77-1.56,3.16-1.56s2.44.52,3.16,1.56,1.08,2.69,1.08,4.96v4.32Z"/>
  <polygon class="cls-1" points="121.59 519.47 114.95 519.47 114.95 547.06 132.39 547.06 132.39 541.54 121.59 541.54 121.59 519.47"/>
  <polygon class="cls-1" points="143.03 519.47 136.39 519.47 136.39 547.06 153.83 547.06 153.83 541.54 143.03 541.54 143.03 519.47"/>
  <polygon class="cls-1" points="157.83 547.06 175.27 547.06 175.27 541.54 164.47 541.54 164.47 535.54 174.07 535.54 174.07 530.02 164.47 530.02 164.47 524.98 175.27 524.98 175.27 519.47 157.83 519.47 157.83 547.06"/>
  <polygon class="cls-1" points="189.39 528.94 185.11 519.47 177.47 519.47 186.07 536.02 186.07 547.06 192.71 547.06 192.71 536.02 201.31 519.47 193.67 519.47 189.39 528.94"/>
  <path class="cls-1" d="m221.71,532.54c.96-.64,1.73-1.4,2.3-2.28s.86-2.04.86-3.48c0-2.53-.9-4.39-2.7-5.56-1.8-1.17-4.34-1.76-7.62-1.76h-9.64v27.6h10.52c1.84,0,3.41-.21,4.72-.62,1.31-.41,2.37-.98,3.2-1.7.83-.72,1.43-1.56,1.82-2.52.39-.96.58-1.99.58-3.08,0-1.71-.35-3.08-1.06-4.12-.71-1.04-1.7-1.87-2.98-2.48Zm-10.16-7.6h2.2c.91,0,1.65.06,2.24.18.59.12,1.05.29,1.38.5s.56.49.68.82c.12.33.18.7.18,1.1,0,.8-.31,1.41-.92,1.82-.61.41-1.6.62-2.96.62h-2.8v-5.04Zm3.16,16.6h-3.16v-6.04h2.68c1.68,0,2.91.22,3.7.66.79.44,1.18,1.22,1.18,2.34,0,2.03-1.47,3.04-4.4,3.04Z"/>
  <path class="cls-1" d="m237.35,519.47l-9.6,27.6h7.08l1.44-4.72h8.52l1.48,4.72h7.08l-9.6-27.6h-6.4Zm.64,17.36l2.56-8.16,2.52,8.16h-5.08Z"/>
  <polygon class="cls-1" points="263.19 519.47 256.55 519.47 256.55 547.06 273.99 547.06 273.99 541.54 263.19 541.54 263.19 519.47"/>
  <polygon class="cls-1" points="284.63 519.47 277.99 519.47 277.99 547.06 295.43 547.06 295.43 541.54 284.63 541.54 284.63 519.47"/>
</svg>