<?xml version="1.0" encoding="utf-8"?>
<!-- Generator: Adobe Illustrator 27.8.1, SVG Export Plug-In . SVG Version: 6.00 Build 0)  -->
<svg version="1.1" id="Layer_1" xmlns="http://www.w3.org/2000/svg" xmlns:xlink="http://www.w3.org/1999/xlink" x="0px" y="0px"
	 viewBox="0 0 1920 1080" style="enable-background:new 0 0 1920 1080;" xml:space="preserve">
<style type="text/css">
	.st0{fill:url(#SVGID_1_);}
</style>
<linearGradient id="SVGID_1_" gradientUnits="userSpaceOnUse" x1="542.2581" y1="540" x2="1377.7419" y2="540">
	<stop  offset="0" style="stop-color:#0A244E"/>
	<stop  offset="0.2566" style="stop-color:#06275B"/>
	<stop  offset="0.6289" style="stop-color:#012A67"/>
	<stop  offset="1" style="stop-color:#002B6B"/>
</linearGradient>
<path class="st0" d="M960,957.74c-56.35,0-111.07-11.06-162.64-32.87c-49.76-21.05-94.42-51.15-132.75-89.48
	c-38.33-38.33-68.43-82.99-89.48-132.75c-21.81-51.57-32.87-106.29-32.87-162.64s11.06-111.07,32.87-162.64
	c21.05-49.76,51.15-94.42,89.48-132.75c38.33-38.33,82.99-68.43,132.75-89.48c51.57-21.81,106.29-32.87,162.64-32.87
	s111.07,11.06,162.64,32.87c49.76,21.05,94.42,51.15,132.75,89.48c38.33,38.33,68.43,82.99,89.48,132.75
	c21.81,51.57,32.87,106.29,32.87,162.64s-11.06,111.07-32.87,162.64c-21.05,49.76-51.15,94.42-89.48,132.75
	c-38.33,38.33-82.99,68.43-132.75,89.48C1071.07,946.68,1016.35,957.74,960,957.74z M960,343.91c-52.38,0-101.62,20.4-138.65,57.43
	c-37.04,37.04-57.43,86.28-57.43,138.65s20.4,101.62,57.43,138.65c37.04,37.04,86.28,57.43,138.65,57.43s101.62-20.4,138.65-57.43
	c37.04-37.04,57.43-86.28,57.43-138.65s-20.4-101.62-57.43-138.65C1061.62,364.31,1012.38,343.91,960,343.91z"/>
</svg>
